<mxfile host="app.diagrams.net" modified="2022-09-29T09:57:55.727Z" agent="5.0 (Windows NT 10.0; Win64; x64) AppleWebKit/537.36 (KHTML, like Gecko) Chrome/105.0.0.0 Safari/537.36" etag="uBA8kmjqHgGlPsPwgZy6" version="20.3.7" type="github">
  <diagram id="bx1mzAF9D-YcKVkSvei-" name="Page-1">
    <mxGraphModel dx="2249" dy="-365" grid="1" gridSize="10" guides="1" tooltips="1" connect="1" arrows="1" fold="1" page="1" pageScale="1" pageWidth="827" pageHeight="1169" math="0" shadow="0">
      <root>
        <mxCell id="0" />
        <mxCell id="1" parent="0" />
        <mxCell id="nL-H-F1wq60gKDnkxpsh-1" value="" style="rounded=0;whiteSpace=wrap;html=1;fontSize=13;fontColor=#CCB312;fillColor=#FEF2FF;gradientColor=none;strokeColor=none;glass=1;" vertex="1" parent="1">
          <mxGeometry x="-800" y="1530" width="940" height="140" as="geometry" />
        </mxCell>
        <mxCell id="nL-H-F1wq60gKDnkxpsh-2" value="" style="rounded=0;whiteSpace=wrap;html=1;fontSize=13;fontColor=#CCB312;fillColor=#F2FFFC;gradientColor=none;strokeColor=none;shadow=0;sketch=0;glass=1;" vertex="1" parent="1">
          <mxGeometry x="-800" y="1260" width="940" height="270" as="geometry" />
        </mxCell>
        <mxCell id="nL-H-F1wq60gKDnkxpsh-3" value="&lt;blockquote style=&quot;margin: 0 0 0 40px; border: none; padding: 0px;&quot;&gt;&lt;b&gt;90N&lt;/b&gt;&lt;div style=&quot;&quot;&gt;&lt;span style=&quot;background-color: initial;&quot;&gt;&lt;b&gt;REAL &lt;/b&gt;TEST&lt;/span&gt;&lt;/div&gt;&lt;/blockquote&gt;" style="rounded=1;whiteSpace=wrap;html=1;fontSize=12;glass=0;strokeWidth=1;shadow=0;fillColor=#d80073;fontColor=#ffffff;strokeColor=#A50040;image=data:image/png,iVBORw0KGgoAAAANSUhEUgAAAQAAAAEAEAQAAACm67yuAAAABGdBTUEAALGPC/xhBQAAACBjSFJNAAB6JgAAgIQAAPoAAACA6AAAdTAAAOpgAAA6mAAAF3CculE8AAAAAmJLR0QAAKqNIzIAAAAJcEhZcwAAAGAAAABgAPBrQs8AAAAHdElNRQfmCR0JGwebKdq6AAAgPUlEQVR42u3dZ5hV1bkH8P97gKEORTpDBwFFlEREAaliuDgKokAUxRIVzTUKXgsYUa6FPOAlNKNSolIUQ4cAF1QEFERAfSBEehMCilQdEGZGZv3vh32NAoc5be+99jnn/T3PfGA4s/e71jprrV1WAdIYTaVK5L330syeTf7znzSHD5O5ueTeveTq1TR//jPZujUZCtmONRWQ111HfvQReeoUU8oPP5DvvUe2amU7j1UUaKpUIV95hczPj6p8zc6d5M032447mdHceSdZUGC7qnorP5/Mzrad16oQ5K23kt9/H18Bv/ceWbGi7TQkG5qyZcnjx21XT38cOECTkWE7z1UY5DPPkMYkVsCbNtHUrGk7LcmE7N7ddrX0lbn2Wtt5Hq2itgPwC/nQQ8BLLyV+pEsvhXz8MdmihcixY4We05QpA5k9Gyn/DKFHDwmdPHnhjKhSBWI7Rj9Vq2Y7gmilRQNA07YtMHase0esVw+YNIns3l2EvNCnJHTyJI0IpHNn23ngrWLFCv1vkbSq/kDypDfFeybAeYI/dmzEL2nMbroJvPPOiB+Td96xnQdKXUjKNwDA7bdDmjf35NDyzDNkkSKFf+iDD2zngFIXkgYNwH33eXfsxo2BLl0K+4TI118DO3bYzgWlwknpBsB5Zde2rbdn6do18mc2b7adF0qFk9INANCmDVDU4wednTpF/Ai3b7edE0qFk+INQFaW9+eoVSviRyK8LlTKlhRvAKpW9f4cmZlkyZKFfyYnx3ZOKBVOijcAubnen6OgAMjPL/wzOjRUBVOKNwAHD3p/jiNHRAoKCv9M2bK2c0KpcFK7AaAPT9+5aVPkD/nxLEKp2KV2AyCffQbs3+/tOd57L/KHGje2nRVKhZPSDYAzTn/ePO/OUFAAzp1b2CeckYJXXGE7L5QKJ6UbAAAAR4yI/JAuXjNnSijCKD9eeSVQvrztbFAqnJRvACS0dy/w1lvuH/n0aeD55yMHoCvEqOBK+QYAAMAnnnB/OO6AASJbtxZ6WopENWNQKUvSYj0ACZ08SfbqBaxYAVSunPgRx48XmTAh8udKlQIGDQIjfzK5/fBD4f/v1S1YQEmapTdZ0DRqRO7endh6T6NHk8mz4EMQ0Fx9te1VunxlGja0nefqAsiKFWneeCP2tQEPHqTp2dN2/MmIFCFXr7ZdL/2xYIHt/FZRoGnZkpwyJfIa9Zs20TzxBFm6tO2YkxlNrVrkP/9pu3p6ynz6KU2lSrbzOhZpfylLk5kJadEC+PWvf34+kJvrjPBbv15CO3fajjFV0BQrBunZE7j6aiDSBKokwh9+gKxaBcyfH3lYuPKMs+FHhQq241BKWUAzciTNmjU0ZcrYjkUp5SOyWjVnjzaSXLFCrwSUSiM0I0ee//Du4ottx6WU8pjT+4d7mn/iBM399+t7e6VSGDlqVOHvZ1avJq+5xnacSimXkdWrR73fvFm+nLzlFprixW3HrZRyQeTeP5ycHPJvf6P5wx/Ia67RLb9Vukrqe2OyenVg1y53BpXs2wc2aiShvDzb6UpHNO+/DzRoYDuOiGT9epHUGRKe5LMBBw50b0TZ2LFa+S2S8uWB+vVthxFZam3zlrTrAZDVqgH9+rlzsCNHwPHjbacprfHIEdshRCe1NnlJ2gYAGDTItd5fhg2T0MmTtlOU3rZssR1BdLZtsx2Bm5LyFsC593ex94f2/taJx6s3u+abb2xHkPbIMWPcm8P5+OO205POaIoWJQcOJPPy3CtTL+Xnk//9385qz8p3Mb33j8QcPqwTh+wh69cnP/7YdpWOz+rVOtTcAld7f/PEE7bTk46cFYL69aM5edJ2NU7MDz+Q/fvrUHOfaO+f/JwyXLTIdtV113vvkbr9m+fIsWNdKzPt/X1H06sXefSo7erqjePHafr2tZ3HKUt7/+RFU7kyzezZtquoL8yMGTq03APa+ycnsmtX8uuvbddLfx08SHbrZjvvU4b2/smHplw5ctKk+Arp1CmaXbtsV2PH9u1kbm4cXzRDjh+v3zUXkK+84lp5au/vOZprr6XZuTO+Alq3jmzShKZOHfLQIW8qdbS+/pqsUYNs2pTms8/iO8aePWT79rbLJGlp7588yJIlnde0sW66QjoDbJ59lqZo0Z+P1769a2Ufs5wcmhYt/h2LKVbMGQCUnx/7sQoKaF5+WdehiIP2/smBpmVLmi1b4iuYTZt+WdnOOi7btydPnPCmkl/Id9+RrVqFT+fll9OsXx/fcb/8krzySttllTS09w8+p2d88UXyxx9jL5SCApoRI8gSJQo9B1u39u9B4u7dZPPmhae5eHFy2DDyzJnYj5+XRz7zzC+vdNQFkH/5i2vlqr2/68imTckvvoi7opl27aI+l6lalWbpUo9q/f+bNy+W5eTJVq3Ibdvi+z6uWUPTqJHtMgws7f2D699Def+9D0OspkyhycyM67ymVy9y3z53K/7+/TR33RVfXpQo4VwNFBTEft5Tp5yJUKEknpbvEXd7/yeftJ2eVJHYBJ5vviGzsxOOwWRmko89lvhW71u3kr//PVmqVOL50r593K8uzQcf0NSqZbtsA0N7/2Aiu3d3FlSNpxzcHyFHFilC07mzM0hsx44ogjA0W7bQjBhB066d2z0vTZky5Ouvx/cW5Ngxmi5d/C3RgCJffdWVyk9q7+8S59I7nsvcY8fIPn38ibFcOZprryVvu4186CFy4ECaBx8kf/tbslUrvzoCmt/8Jr7blDNn3LhCSmrOwIvTp92p/Nr7u4Fs0CC+K7IlS9J1lpwzEvKtt2LPs++/J2vUsB2/vYzT3j9wyOnTY8v3kyedHljnydPceGPMrzDNxIm247aUWbVqxTfuOlwmau/vBrJChZiW6zKffqqvt85Gli9Pjh8fUwOajt9d8rXXXKn8pPb+LnF6sGjoWnmRkNnZ0V8NdOhgO15/M0d7/0BylryKZMMGmssvtx1rMqCpUoWcMydynt53nx/xBGcAgjz9NODWZImXX9Z1/l1CMvKHhgyR0MaNtkNNBhI6dAhYuNB2HIGivX9wkT16RM70jRv10j86zsjBKF4Rms6dbcfqY6a8/rorlZ/Ue3+XkdWqRTXpJc6htOmG5sknI3+J8/LI8uVtx+pThmjvH3Tk/PmRM/+rr3S+e+GcNyrHjkXOy2nTbMfqY6a42PvzqadspycV0Vx1VXTDW//rv2zHGmTk8OGR87CggPzVr2zH6k+GuN77xz7DTEWHnDUrciEcOxbLdNp04oxwjWb25OTJtmP1MVPGjXOl8pPU3t9bNI0aRbfox9ChtmMNIvKvf42cd3l5ZP36tmP1J0NM7dqubQipvb8vohvNduoUTc2atmMNErJx46gaTzNypO1YfcwU7f2TjTNNO5rL2HHjbMcaJOTcuZHzLCeHpkoV27H6kyHa+yctmj/9KXKhnDlDXnKJ7ViDgKZly+geoD7zjO1Y/cuUWCZGRKS9v5+caa5HjkQul1mzbMcaBOSyZZHz6uuvydKlbcTn+3RNmtq1ITt2ABkZiR/syBGgfn0JnTjhdzrSGfn448CIEZE+BbZqJaG1a109t6lcGXLttUDNmkDiS3kBJ0+C+/ZBVq0SOX7c3XzKzo5u2O/vfy+SJrdN2vsnP2c46969EYvHLF/u2jlNixbOAiPxLMUdjR9/dO7VmzZ1J49CIWeIdCTbttEUK2avNH2k9/6pg7znnugK6oYbEj9X//7xLUcWZ0NgHn008Zjvvju673HPnrbL0jc0Eya4V1Da+9vk9HAbNkQup40bE1l8kxwyxJ+Kf67//M+4YzYZGdGtELxuXdqsmqS9f+qhuemm6Mqrb9+4js+OHeNbYdcN+fmRdgi6cNyPPRbdOTp1sl2GvtHePzWRK1dGLq89e+KZKBT/jrxuWbIk9pjLlaM5fDjysRcvtl12vnG19+eRI9r7BwfN1VdH10s/9lhsx73sMruVn3T2EYhtVCM5dGjk46bRhB8AoJk40b1CGTjQdnrU2Zw99SLVpcOHacqVi/qY5tFHLdb8X8R9553R50P16s6KyJG8/bbtMvMNTZ062vuntqjHuvOll6I+phkxwmrF/7c//jH6fIhmeHteHtmgge0y+4kPawIOHuzKoB8AwP/8jw76CR6RbdvAKVMifpADBpDVq0d30KA09GXLRvMpZyn03/0u8ifHjRPZtct2qnyhvX/6ILOyopso9Prr0R3PzQFjiRg2LLp4Z86MfKwTJ4I24cfbKwB59lnt/dODyIED4KuvRv7kAw+k2kQhmquuAm69NfInX37ZWRU4DWjvn36cHXCOHo1cnjNnRj5W8lwB0CxdGvk4336bVt/h6FZAiZY++U8W5MCBkcvTGJqWLc//26ws8uGHydGjaXbutFfpf2nTJnLUKJoHHgh3+U7TpUt0x4l/ZGHS0d4/fZElS5L790cu12XLfv6brCznHtqv8f7x+vFHctIkmsqVnbhDIZr16yP/3Y4daTPhBwBo3njDvUzX3j/Z0Nx/f3Rl27Ur2aaNsyV2Mvn2W7J5c7JPn+g+/9vf2i4THwtfe/90R1O0KLl5c8TiNTt3kjk59ipygt/NqHb4+eyztJnw4xS+9v4q2i3F0sF119kuC/8KXXt/9QvkJ5/Yrn52xT6ZKKmRb77pXuYNGmQ7PSoxNG3b2q6C9hhD/vrXtsvAv8JmgwbRjQePhvb+qYJcuNB2VbTjnXds573PBf3KK+5lnvb+qYKmWTPv1vELqvz8IE348a+wWbIk2aQJeccd5Nix5J49Meed7vCbcsjJk21XSX+NGWM7zwPDWc31zTej3wRUe/9U4zwcPn3adrX0Rxrt8BMLZ7GEiRMLvRzU3j9lOSv7pjpjyLvvtp3XgUZeeSXNli3hM1B7/1RGc9dd5O7dtqupN7ZuJW+5xXYeJwWyVClyypSzG0/t/dMFTeXKNGXKJP8bgkmTaMqWJS+6yHaeJh1ShHzxxZ8zU3v/dOM0BEGZ9RerDRv0VbULyBde0Pf+6YusUYNcu9Z2dY6J+fBD7fVdFG5uuEofzuShhx8md+ywXbcL9+WXzpZo8e90FDRxzVKiycyEdOoE1KsHZmVBMjKAo0eB7dvBVasktH+/7YSp5OQsF3bJJcCAAUDbtrbjAZYsASZMADZuTJvFPC/E2app4cLI7/Q/+YSmb1+ySBHbMavklExLgiWzqC5lyLp1yUWLgGXLgOxsINI2T61bQ6ZMAb74gubqq20nUikVXsQGgKZtW2DdOiCebZ6vuALy8cc0DzxgO6FKqfMVLew/nd1LFy9ObGnvjAzI+PFkkSIi48bZTrBS6mcXvAKgadgQmDnTnXX9RYBXX02r1VGUSgIXvgWQSZMAN991hkLAW2/RRLfVklLKe2EbALJHD6BNG/dPV6sW5JFHbCdaKeW4wBXA0097dkYOGEDj1nZhSqlEnNcA0NSsCbRo4dkZpVIlyLXX2k64UircFYB06+Y8tPMQs7NtJ1wpFfYW4OKLPT+rNGliO+FKqXANALOyvD9t1aq2E66UCjcQSEqX9vys9OEcKrnxT3+CTJhgOwzg4EHbEXgpzEjAY8c8P6scP2474SrYJLR3L7B3r+04Ul2YZwC7d3t/2u3bbSdcKRW2Afj0U+9Pu3at7YQrpcIgS5Qgjx3zbn51QQF9edColIrkvCsAkdxcYOpU7065aJHIgQO2E66UugCyWjUyJ8eT3l/X/1Mq+Gj+8Af3G4DRo22nSyn1s0KH/JLTpgG33+7OqVauBK+/XkJ5ebYTnQ7I+vWBunWRQivYqhhJQQG4a5eE9u2L6+9pihWjmTEj8Z5/1SqyQgXb+ZEOyAYNnPxW6idLlsT94J0sUoRm8GBnz/NYGUOOG0eWLGm7YqQDsmJF8l//sv11U0G0dSvDjMCNeHkoUlAgoZdeAlu0AObNA8jovo6ffAJcd53IQw+JnD5tu3Kkh0cfBWrWtB2FCqLGjcH77jv3tzFP+yXr1gW7dYPccANYpw4kKwsoVgw4fhzcsgWyejU4c6aENm60neR0Q65YAbRvbzsOFVRz54qcvYOxt/P+la/Izz8HrrzSdhwqoLh0qYSuv/6Xv9InxEqlMasNAFmqlO0MUCqdWWsAyB49wI8+sp0BSqUz3xsAmowMcvhwYNYsSIsWNJdfbjsTlEpXvjYAZIcOkM8+A556ytkoBIC4NdJQKRUrXxoAsn17cuFCYPly4Nwe/7bbSI9XIVZKhVU08UOcjyxSBGje3NlKvHdvoGnTC3+6bl2gdWtn4JBSyk8JNQA07dpBOnQACgqAzEygWjWgYUOgWTMglj0Ab79dGwA3GGM7AhVgUlBw7q8SuwKQnBzg+ecTj6x3b5oBAyR05oy1zEkF/OoryFVX2Q5DBdWePef+JqFnACIbNgCbNiUeWOXKkM6dreVLqpDJk22HoIKKBKZMOfe3iT8E5N/+5k6A+jYgUSKLFoEjR9qOQwUNCQweLHL+gr8JP30nGzQAduxIfD/BEyeAqlV15mDiyBtuAO6+G6hX79+vW1X64ZkzkF27gIkTRVas8O48Zs0aV6Ysm169bOeZUunEnd5B3n3XnePobYBSScdZRfjMmcQvAXJzyfLlbadHqXThyhWAyMGD4PLliR+peHHg7AULlFLece8BkVu3AdTbAKWSDk3ZsuTp04nfBhQUkDVq2E6PUunAtSsACeXkAIsXuxBSCNC3AUolHZpevdx5Hbhmje20KJUOXJ2GS5YoARw8CJQrl/jBGjWS0I4d1nImBZB33AHcfHNiR5k3T+Sdd/yPvV8/MADDw2X+fGvpx9kLeMbu7bdF5s/3OfDJk925Chg82NfAUxA5fHjiBTF8uJ3Yx4935XuUsGHDrKTfTJiQeOwDB0Y6jwfDRF16G4A77nA/NqXUL7nfAHDpUuDbbxM+jjRpQjZvbiFPlEobrjcAzpz+WbPcOZqOCVDKSx7NFHPrNuD226nbWyvlGY8q1+rV4VYfiV2tWmCbNv5miVLpw5MGQIQEpk9352B6G6CUV7y7vKZbcwN69aIpVsyvDFEqnXjWADjbg3/5ZeIHqlQJkuiACKVUOB4/YHPvYaD3WaFU+vG2AeA77zgLEiZ6nB49yNKl/coUpdKFpw2AhPbuBVyY2COlSwM33uhbriiVJnx4x663AUoFlfcNAKdPB9zY8adrV/Kii3zIE6XShucNgIQOHQKWLUv8SBkZoK4XqJSbfBpmq7cBSgWRJ9uDn4dz5kBeew0oWTKh40iHDmRWlsiBA77Erezh229DvvjC+UfFimDFipCqVcGGDSEXXwxUrGg7xFTgSwMgoZwc8n//F7j11sSOFAoBvXsDo0b5EbeyR0IrVwIrV17o/2lq1wZatoS0bQt06QI0bmw75mTk40w7vQ1Q7pHQvn0SmjVLpH9/kSZNgIYNgcGDgc2bbceWTHxsABYtAr7/PvHjXHUVTaNG/sWtkoHIrl0iQ4eKNG0KtmsHzpzpztun1OZbAyCSmwvMnRv/EYxxFhzduBHSrJlfcavkI6GVKyXUuzdw8cXAhAlAQYHtmILK38U2op4hmJsLrFoFDBsG3nQTULMmkJEhUr26yBVXiMyebSGvVJIR+eorkQcfBJo1A95+WxuC8/nbAMiHH154vcD8fOcKoXt3sHx5kbZtRZ5+WkILF4ocOCCihafiI7Jli0jfvmCTJsAbbwCnT9uOKSh8bQCcSjxjxlm/5O7dYP/+YFaWyC23iPz97xLKy7OdMSr1SGjnTpH773deK3brBkydCpw4YTsum/wZB3CWd98FHnkEPHIEMmIEMHq0Vnh1LrJUKSAvz4srP5HTp4EFC4AFC8gSJcDLLoNccQVw+eVg06aQ8uWBzEygRIlUv1qw0ACsWQMMGAC88YbIyZO2M0AF1ahRQL9+ZEEBkJPjvEHauBHYuBH8xz+ANWsktH9/omdxHk5//rnzk358bwCc9QLHjLGdcJUsihQBKlRwfurWBbp1+2lDO3LzZmDmTHDaNAlt32470mSkS26rJHbppcCQIZBt28hVq8hOnWxHlGy0AVApok0b4MMPyWXLyA4dbEeTLCw8A4gNTfHiQPPmkCuvBBo1AurWBUuXhlSo4Lw6PHECOHYM3LMH2LoVWL8e8uWXzq2GSj8dOwIdO5LLl4PPPSehVatsRxRkgWwAaDIzIT17Aj16AJ07nzeLMNym5mf97tAhculSZ+DRkiXOdmUqvXTsCFm5kmbNGsiYMeCcORLKz7cdVdAE6haArFePHDcOcuAA8OabwE03xTeFuEoVoE8fyIIFkP37yWefJcuXt50+ZYFccw3w7ruQb74hX3+d7NhR95n4WSAaALJiRXLcOGDbNuDBB513sG6pWhV44QVg717yj3+kyciwnV5lw0UXAQ89BCxbBjlyhJw7l3z8cZq2bWnKlrUdnS3WbwHIO+4AR4+GVKrk7ZnKlgWGDgX69qV54AG9N0xnZcsCN98M3Hzzz68Uv/0W2LkTOHwYOHrU+SGBjz4SWbzYdsResdYAOCO9Xn0VuOeesPf0XpEmTYDly8khQ4Bhw0SMsZUHKkiqVnV+wkndBsDKLQBZsSKwdClwzz12kl20qHM1MH2685ZBqfTkewNAU7s2uGoV0KqV7cQDPXtCFi+mKVPGdiRK2eBrA0BTrhxk4ULnMjwoOnYE5s/XKwGVjnxrAMgSJSALFjiLMwSMdOoEmTjRdhhK+c3HK4Dhw4G2bW0n+ML69qV58EHbUSjlJ18aAJouXYBHHrGd2Ihk9GiyaVPbYSjlF88bALJUKchf/wqIny/74lSiBPDaa2QyxKpU4ny4AnjsMWdRz2TRrh3Qp4/tKJTyg6cNAE2lSsBTT9lOZOyee44sUsR2FEp5zdsrAHngAWfYZbJp1Ajo2dN2FEp5zbMGwOlB+/WzncD4E/DQQ7ZDUMpr3s0FYOfOkLp13T1oTo4zLvujj4ADB5z14mrXdtYM6NzZeYjnEmnXjqZOHQnt3etZHillmXcNgGRnu3ewM2eAP//Zmbzz3Xfn//+YMWRWFvDii8C997pzzlAIcuutwMiRnuWRUpZ5+Ayga1d3jpOTA2ZniwwaFL7yO5zdg373O6cBcGsFIF1kUqU2TxoAsnp1Z7vmRBUUAH36SOj996P9C5FJk8DHH3cnJe3a6dsAlcq8uQLgZZe5c6Dx40UWLYr1ryQ0diy4dGni58/MBOrUcTt7lAoKbxoAcWM47ZkzwEsvxR/DkCHuJCZIMxeVcpdHVwA1aiR+jFWrRL75Jv4DfPopkPjWUXoFoFKZR1cALgz+kTVrEvpzIZ19CBOVjAOZlIqOR28BXKg0TKT3/4kbx3BzhWKlgsWjW4CiiY8vkFKlEg/EjWO4kBalAioQ+wKE58K9N+vVs50KpYIswA1A166JzMunKVMG0qaN7VQoFWQBbgDq1AGvvz7uP5d77wV0oU+lChPgBgAAhg+PZ7VemsqVgWeftR29SsSPP9qOwJHaG4oGuwGQ5s0hr78ey60ATfHikFmzgMqVbYevEnHihO0IAADMybEdgpeC3QAAAO69F5w+PZrNO8gaNSDLlzvLeqnktm+f7QgcqT0dPAkaAADSqxdk+3by4YedZcbORlO7Nvncc8DWrcHYcUgljJs22Q4BACCbN9sOwUtJ9I67enXgL3+BjBlDbt4M/OtfYLFikNq1gcaNbUenXCbr1gG5ua4u8hKzo0eBLVtsZ4WXkqgB+EmRIs7uQs2a+bqrsPKVSG4uuXQpcOON9qJYuDDVd49OjlsAlZ44ZYrdACZPtp0FXtMGQAWXzJkD7Nhh5dxcvx5YscJ2FnhNGwAVWCIFBcDzz9s5+9NPOzNKU5s2ACrgpk0Dly3z95wzZkjovfdsp9wP2gCoQBMhIX37AocP+3PGr74C0mdPCG0AVOCJfP01eOONwMmT3p7p++/B7t1Fjh+3nWa/aAOgkoKE1q0DunVzNofxwuHDYOfOEtq40XZa/aQNgEoaIsuXg23bAtu3u3pgrl8PtGoloc8/t51Gv2kDoJKKhDZuBFu0AMaOdfaNSEReHjB0KKR1a5Fdu2ynzQZtAFTSkdCJEyL9+zsjQqdOdSpyLE6dAsaPB5o0ERk8WCQ313aabEnCocBKOUS2bAHuuovs3x/o0QO47jrgqquAevXOXsvxxx/BXbsga9cCH3wA/v3vEgrIdGPLtAFQSc95av/mm84PQJORAZQt6yxP/913YE6OhNzaLzK1aAOgUo6E8vOBI0ecH1UYfQagVBrTBkCpNObRLcCECYAbu/MGAP/xD9shxB/77NlI9PUWN2ywnYz0NHUqkOC4BK5dazsVSimllFJKKaWUUkoppZRSSinfxbyyPlmypN3NGgKIp05JKNYZaT6EZcqVg4R0sFe6YkGBhApfQCViA0BTrBjkzjuB3r2Ba64Bype3na5gOnwY+OgjYNo0YN48WyvK0pQpAxk6FOjbF6hQwXauKNsOHwYmTgRfeCFcJ1VoA0Bz9dWQqVOBiy+2nYzksm4d0KeP34tMOFupr1gBueYa2zmggub994EbbnCWWv/ZBS8PyexsyIoVWvnj0bIlsHYt+atf+Xpa6ddPK78K7ze/ca7izxa2ASAvvRR49129109ExYrA/PnhdjP2Tna27VSrILvppnN/c4ErgFGjgMxM2+Emv1q1IEOG+Hc+PxsblXRYufK5vzqvAaBp1sy5XFDu6NePplw521EoFc75VwDSrZvtoFJLRgbkP/7DdhRKhRPmFuCSS2wHlXo0T1UwhWkA9D7SfVWq2I5AqXDObwBYpIjtoFKP5qkKJh0mqlQa0wZAqTQWpgGwM4Y9tfmUp9SyU4U5//sR5jXgoUO2w0w9Bw/6chotO1UYOf97GOYKYO5c23GmFhKYN8+fU2nZqcLMmXPub0LhPzRrlu1QU8fLL4v4tbb+pEngBx/YTrEKohkzgPnzz/3teQ2AM4/9ttvAJ58Etm0DdFPF2OXngxs2gHffLTJokF9ndTbAvPFG4LnnwF27AGNs54Sy6cwZpw4//rgzPf38ZwD/B4Q/hd28OJgUAAAAJXRFWHRkYXRlOmNyZWF0ZQAyMDIyLTA5LTI5VDA5OjI3OjA3KzAwOjAwDUo6aAAAACV0RVh0ZGF0ZTptb2RpZnkAMjAyMi0wOS0yOVQwOToyNzowNyswMDowMHwXgtQAAAAodEVYdGRhdGU6dGltZXN0YW1wADIwMjItMDktMjlUMDk6Mjc6MDcrMDA6MDArAqMLAAAAAElFTkSuQmCC;align=left;" vertex="1" parent="1">
          <mxGeometry x="-442.5" y="1590" width="120" height="42.5" as="geometry" />
        </mxCell>
        <mxCell id="nL-H-F1wq60gKDnkxpsh-4" value="YES" style="rounded=0;html=1;jettySize=auto;orthogonalLoop=1;fontSize=11;endArrow=block;endFill=0;endSize=8;strokeWidth=2;shadow=0;labelBackgroundColor=none;edgeStyle=orthogonalEdgeStyle;fillColor=#60a917;strokeColor=#2D7600;fontStyle=1;fontColor=#009900;" edge="1" parent="1" source="nL-H-F1wq60gKDnkxpsh-6" target="nL-H-F1wq60gKDnkxpsh-7">
          <mxGeometry x="0.3333" y="20" relative="1" as="geometry">
            <mxPoint as="offset" />
          </mxGeometry>
        </mxCell>
        <mxCell id="nL-H-F1wq60gKDnkxpsh-5" value="NO" style="edgeStyle=orthogonalEdgeStyle;rounded=0;orthogonalLoop=1;jettySize=auto;html=1;strokeWidth=2;entryX=0.5;entryY=0;entryDx=0;entryDy=0;fillColor=#f0a30a;strokeColor=#BD7000;fontStyle=1;fontColor=#FF8000;" edge="1" parent="1" source="nL-H-F1wq60gKDnkxpsh-6" target="nL-H-F1wq60gKDnkxpsh-13">
          <mxGeometry x="-0.4724" y="15" relative="1" as="geometry">
            <mxPoint x="-285" y="1464" as="targetPoint" />
            <mxPoint y="1" as="offset" />
          </mxGeometry>
        </mxCell>
        <mxCell id="nL-H-F1wq60gKDnkxpsh-6" value="&lt;font style=&quot;font-size: 13px;&quot;&gt;Predicts&lt;br&gt;&amp;nbsp;it would pass &lt;br&gt;&lt;b&gt;350N &lt;/b&gt;Test?&lt;/font&gt;" style="rhombus;whiteSpace=wrap;html=1;shadow=0;fontFamily=Helvetica;fontSize=12;align=center;strokeWidth=1;spacing=6;spacingTop=-4;fillColor=#1ba1e2;strokeColor=#006EAF;fontColor=#ffffff;" vertex="1" parent="1">
          <mxGeometry x="-400" y="1273.5" width="150" height="105" as="geometry" />
        </mxCell>
        <mxCell id="nL-H-F1wq60gKDnkxpsh-7" value="&lt;b&gt;Piece is strong&lt;/b&gt;" style="rounded=1;whiteSpace=wrap;html=1;fontSize=12;glass=0;strokeWidth=1;shadow=0;fillColor=#60a917;strokeColor=#2D7600;fontColor=#ffffff;" vertex="1" parent="1">
          <mxGeometry x="-25" y="1306" width="120" height="40" as="geometry" />
        </mxCell>
        <mxCell id="nL-H-F1wq60gKDnkxpsh-8" style="edgeStyle=orthogonalEdgeStyle;rounded=0;orthogonalLoop=1;jettySize=auto;html=1;entryX=0;entryY=0.5;entryDx=0;entryDy=0;strokeWidth=2;exitX=1;exitY=0.5;exitDx=0;exitDy=0;" edge="1" parent="1" source="nL-H-F1wq60gKDnkxpsh-22" target="nL-H-F1wq60gKDnkxpsh-6">
          <mxGeometry relative="1" as="geometry">
            <mxPoint x="-460" y="1326" as="sourcePoint" />
          </mxGeometry>
        </mxCell>
        <mxCell id="nL-H-F1wq60gKDnkxpsh-9" value="Single Model Approach: &lt;u&gt;350N&lt;/u&gt;" style="text;strokeColor=none;fillColor=none;html=1;fontSize=32;fontStyle=1;verticalAlign=middle;align=center;labelBackgroundColor=none;" vertex="1" parent="1">
          <mxGeometry x="-442.5" y="1200" width="100" height="40" as="geometry" />
        </mxCell>
        <mxCell id="nL-H-F1wq60gKDnkxpsh-10" style="edgeStyle=orthogonalEdgeStyle;rounded=0;orthogonalLoop=1;jettySize=auto;html=1;entryX=0;entryY=0.5;entryDx=0;entryDy=0;strokeWidth=2;fontSize=13;fontColor=#00994D;" edge="1" parent="1" source="nL-H-F1wq60gKDnkxpsh-11" target="nL-H-F1wq60gKDnkxpsh-22">
          <mxGeometry relative="1" as="geometry" />
        </mxCell>
        <mxCell id="nL-H-F1wq60gKDnkxpsh-11" value="&lt;i style=&quot;font-size: 13px;&quot;&gt;&lt;span&gt;&lt;u&gt;272 Pieces&lt;/u&gt;&lt;br style=&quot;font-size: 13px;&quot;&gt;&lt;ul style=&quot;font-size: 13px;&quot;&gt;&lt;li style=&quot;font-size: 13px;&quot;&gt;&lt;i style=&quot;font-size: 13px;&quot;&gt;&lt;font color=&quot;#cc6600&quot;&gt;139 weak&amp;nbsp; &amp;nbsp; (ts&amp;lt;350)&lt;/font&gt;&lt;/i&gt;&lt;/li&gt;&lt;ul&gt;&lt;li style=&quot;font-size: 13px;&quot;&gt;&lt;i style=&quot;font-size: 13px;&quot;&gt;&lt;font color=&quot;#cc0000&quot;&gt;34&amp;nbsp; &amp;nbsp; (ts &amp;lt; 90)&lt;/font&gt;&lt;/i&gt;&lt;/li&gt;&lt;li style=&quot;font-size: 13px;&quot;&gt;&lt;font color=&quot;#ccaa00&quot;&gt;105&amp;nbsp; (ts &amp;gt; 90)&lt;/font&gt;&lt;/li&gt;&lt;/ul&gt;&lt;li style=&quot;font-size: 13px;&quot;&gt;&lt;i style=&quot;font-size: 13px;&quot;&gt;&lt;font color=&quot;#4d9900&quot;&gt;133 strong (ts &amp;gt;350)&lt;/font&gt;&lt;/i&gt;&lt;/li&gt;&lt;/ul&gt;&lt;/span&gt;&lt;/i&gt;" style="text;html=1;strokeColor=#36393d;fillColor=#eeeeee;align=left;verticalAlign=middle;whiteSpace=wrap;rounded=0;fontSize=13;fontStyle=1;" vertex="1" parent="1">
          <mxGeometry x="-740" y="1370" width="180" height="110" as="geometry" />
        </mxCell>
        <mxCell id="nL-H-F1wq60gKDnkxpsh-31" style="edgeStyle=orthogonalEdgeStyle;rounded=0;orthogonalLoop=1;jettySize=auto;html=1;entryX=0;entryY=0.5;entryDx=0;entryDy=0;exitX=0;exitY=0.5;exitDx=0;exitDy=0;strokeWidth=2;" edge="1" parent="1" source="nL-H-F1wq60gKDnkxpsh-13" target="nL-H-F1wq60gKDnkxpsh-3">
          <mxGeometry relative="1" as="geometry">
            <Array as="points">
              <mxPoint x="-490" y="1530" />
              <mxPoint x="-490" y="1611" />
            </Array>
          </mxGeometry>
        </mxCell>
        <mxCell id="nL-H-F1wq60gKDnkxpsh-13" value="&lt;i style=&quot;font-size: 13px;&quot;&gt;&lt;u&gt;134 + 37 = 171&lt;br style=&quot;font-size: 13px;&quot;&gt;&lt;/u&gt;&lt;ul style=&quot;font-size: 13px;&quot;&gt;&lt;li style=&quot;font-size: 13px;&quot;&gt;&lt;i style=&quot;font-size: 13px;&quot;&gt;&lt;font color=&quot;#00994d&quot;&gt;134 correctly detected&lt;/font&gt;&lt;/i&gt;&lt;/li&gt;&lt;li style=&quot;font-size: 13px;&quot;&gt;&lt;i style=&quot;font-size: 13px;&quot;&gt;&lt;font color=&quot;#cc6600&quot;&gt;37 wrong detections&lt;/font&gt;&lt;/i&gt;&lt;/li&gt;&lt;/ul&gt;&lt;/i&gt;" style="text;html=1;strokeColor=#b46504;fillColor=#fad7ac;align=left;verticalAlign=middle;whiteSpace=wrap;rounded=0;fontSize=13;fontStyle=1;gradientColor=none;" vertex="1" parent="1">
          <mxGeometry x="-425" y="1490" width="200" height="80" as="geometry" />
        </mxCell>
        <mxCell id="nL-H-F1wq60gKDnkxpsh-14" value="&lt;div style=&quot;text-align: left; font-size: 13px;&quot;&gt;&lt;i style=&quot;background-color: initial; font-size: 13px;&quot;&gt;&lt;b&gt;&lt;u&gt;96 + 5 = 102&lt;/u&gt;&lt;/b&gt;&lt;/i&gt;&lt;/div&gt;&lt;i style=&quot;font-size: 13px;&quot;&gt;&lt;b&gt;&lt;ul style=&quot;font-size: 13px;&quot;&gt;&lt;li style=&quot;text-align: left; font-size: 13px;&quot;&gt;&lt;i style=&quot;font-size: 13px;&quot;&gt;&lt;font color=&quot;#00994d&quot;&gt;97 correctly classified&lt;/font&gt;&lt;/i&gt;&lt;/li&gt;&lt;li style=&quot;text-align: left; font-size: 13px;&quot;&gt;&lt;i style=&quot;font-size: 13px;&quot;&gt;&lt;font color=&quot;#ccb312&quot;&gt;5 wrong classifications&lt;span style=&quot;font-size: 13px;&quot;&gt;*&lt;/span&gt;&amp;nbsp;&lt;/font&gt;&lt;/i&gt;&lt;/li&gt;&lt;/ul&gt;&lt;/b&gt;&lt;/i&gt;&lt;blockquote style=&quot;margin: 0 0 0 40px; border: none; padding: 0px;&quot;&gt;&lt;font color=&quot;#ccb312&quot;&gt;&lt;i style=&quot;font-size: 13px;&quot;&gt;&lt;b style=&quot;&quot;&gt;&lt;div style=&quot;text-align: left; font-size: 13px;&quot;&gt;&lt;span style=&quot;font-size: 13px;&quot;&gt;* Tensile strength is &lt;u&gt;over 300&lt;/u&gt;&lt;/span&gt;&lt;/div&gt;&lt;/b&gt;&lt;/i&gt;&lt;i style=&quot;font-size: 13px;&quot;&gt;&lt;b style=&quot;&quot;&gt;&lt;div style=&quot;text-align: left; font-size: 13px;&quot;&gt;&lt;span style=&quot;font-size: 13px;&quot;&gt;So, no very weak pieces are passing&lt;/span&gt;&lt;/div&gt;&lt;/b&gt;&lt;/i&gt;&lt;/font&gt;&lt;/blockquote&gt;" style="text;html=1;strokeColor=#82b366;fillColor=#EBFFEA;align=center;verticalAlign=middle;whiteSpace=wrap;rounded=0;fontSize=13;" vertex="1" parent="1">
          <mxGeometry x="-155" y="1346" width="250" height="134" as="geometry" />
        </mxCell>
        <mxCell id="nL-H-F1wq60gKDnkxpsh-19" value="&lt;blockquote style=&quot;margin: 0 0 0 40px; border: none; padding: 0px;&quot;&gt;&lt;b&gt;350N&lt;/b&gt;&lt;br&gt;&lt;b&gt;REAL &lt;/b&gt;TEST&lt;/blockquote&gt;" style="whiteSpace=wrap;html=1;fillColor=#6a00ff;strokeColor=#3700CC;shadow=0;strokeWidth=1;spacing=6;spacingTop=-4;fontColor=#ffffff;rounded=1;image=data:image/png,iVBORw0KGgoAAAANSUhEUgAAAQAAAAEAEAQAAACm67yuAAAABGdBTUEAALGPC/xhBQAAACBjSFJNAAB6JgAAgIQAAPoAAACA6AAAdTAAAOpgAAA6mAAAF3CculE8AAAAAmJLR0QAAKqNIzIAAAAJcEhZcwAAAGAAAABgAPBrQs8AAAAHdElNRQfmCR0JGwebKdq6AAAgPUlEQVR42u3dZ5hV1bkH8P97gKEORTpDBwFFlEREAaliuDgKokAUxRIVzTUKXgsYUa6FPOAlNKNSolIUQ4cAF1QEFERAfSBEehMCilQdEGZGZv3vh32NAoc5be+99jnn/T3PfGA4s/e71jprrV1WAdIYTaVK5L330syeTf7znzSHD5O5ueTeveTq1TR//jPZujUZCtmONRWQ111HfvQReeoUU8oPP5DvvUe2amU7j1UUaKpUIV95hczPj6p8zc6d5M032447mdHceSdZUGC7qnorP5/Mzrad16oQ5K23kt9/H18Bv/ceWbGi7TQkG5qyZcnjx21XT38cOECTkWE7z1UY5DPPkMYkVsCbNtHUrGk7LcmE7N7ddrX0lbn2Wtt5Hq2itgPwC/nQQ8BLLyV+pEsvhXz8MdmihcixY4We05QpA5k9Gyn/DKFHDwmdPHnhjKhSBWI7Rj9Vq2Y7gmilRQNA07YtMHase0esVw+YNIns3l2EvNCnJHTyJI0IpHNn23ngrWLFCv1vkbSq/kDypDfFeybAeYI/dmzEL2nMbroJvPPOiB+Td96xnQdKXUjKNwDA7bdDmjf35NDyzDNkkSKFf+iDD2zngFIXkgYNwH33eXfsxo2BLl0K+4TI118DO3bYzgWlwknpBsB5Zde2rbdn6do18mc2b7adF0qFk9INANCmDVDU4wednTpF/Ai3b7edE0qFk+INQFaW9+eoVSviRyK8LlTKlhRvAKpW9f4cmZlkyZKFfyYnx3ZOKBVOijcAubnen6OgAMjPL/wzOjRUBVOKNwAHD3p/jiNHRAoKCv9M2bK2c0KpcFK7AaAPT9+5aVPkD/nxLEKp2KV2AyCffQbs3+/tOd57L/KHGje2nRVKhZPSDYAzTn/ePO/OUFAAzp1b2CeckYJXXGE7L5QKJ6UbAAAAR4yI/JAuXjNnSijCKD9eeSVQvrztbFAqnJRvACS0dy/w1lvuH/n0aeD55yMHoCvEqOBK+QYAAMAnnnB/OO6AASJbtxZ6WopENWNQKUvSYj0ACZ08SfbqBaxYAVSunPgRx48XmTAh8udKlQIGDQIjfzK5/fBD4f/v1S1YQEmapTdZ0DRqRO7endh6T6NHk8mz4EMQ0Fx9te1VunxlGja0nefqAsiKFWneeCP2tQEPHqTp2dN2/MmIFCFXr7ZdL/2xYIHt/FZRoGnZkpwyJfIa9Zs20TzxBFm6tO2YkxlNrVrkP/9pu3p6ynz6KU2lSrbzOhZpfylLk5kJadEC+PWvf34+kJvrjPBbv15CO3fajjFV0BQrBunZE7j6aiDSBKokwh9+gKxaBcyfH3lYuPKMs+FHhQq241BKWUAzciTNmjU0ZcrYjkUp5SOyWjVnjzaSXLFCrwSUSiM0I0ee//Du4ottx6WU8pjT+4d7mn/iBM399+t7e6VSGDlqVOHvZ1avJq+5xnacSimXkdWrR73fvFm+nLzlFprixW3HrZRyQeTeP5ycHPJvf6P5wx/Ia67RLb9Vukrqe2OyenVg1y53BpXs2wc2aiShvDzb6UpHNO+/DzRoYDuOiGT9epHUGRKe5LMBBw50b0TZ2LFa+S2S8uWB+vVthxFZam3zlrTrAZDVqgH9+rlzsCNHwPHjbacprfHIEdshRCe1NnlJ2gYAGDTItd5fhg2T0MmTtlOU3rZssR1BdLZtsx2Bm5LyFsC593ex94f2/taJx6s3u+abb2xHkPbIMWPcm8P5+OO205POaIoWJQcOJPPy3CtTL+Xnk//9385qz8p3Mb33j8QcPqwTh+wh69cnP/7YdpWOz+rVOtTcAld7f/PEE7bTk46cFYL69aM5edJ2NU7MDz+Q/fvrUHOfaO+f/JwyXLTIdtV113vvkbr9m+fIsWNdKzPt/X1H06sXefSo7erqjePHafr2tZ3HKUt7/+RFU7kyzezZtquoL8yMGTq03APa+ycnsmtX8uuvbddLfx08SHbrZjvvU4b2/smHplw5ctKk+Arp1CmaXbtsV2PH9u1kbm4cXzRDjh+v3zUXkK+84lp5au/vOZprr6XZuTO+Alq3jmzShKZOHfLQIW8qdbS+/pqsUYNs2pTms8/iO8aePWT79rbLJGlp7588yJIlnde0sW66QjoDbJ59lqZo0Z+P1769a2Ufs5wcmhYt/h2LKVbMGQCUnx/7sQoKaF5+WdehiIP2/smBpmVLmi1b4iuYTZt+WdnOOi7btydPnPCmkl/Id9+RrVqFT+fll9OsXx/fcb/8krzySttllTS09w8+p2d88UXyxx9jL5SCApoRI8gSJQo9B1u39u9B4u7dZPPmhae5eHFy2DDyzJnYj5+XRz7zzC+vdNQFkH/5i2vlqr2/68imTckvvoi7opl27aI+l6lalWbpUo9q/f+bNy+W5eTJVq3Ibdvi+z6uWUPTqJHtMgws7f2D699Def+9D0OspkyhycyM67ymVy9y3z53K/7+/TR33RVfXpQo4VwNFBTEft5Tp5yJUKEknpbvEXd7/yeftJ2eVJHYBJ5vviGzsxOOwWRmko89lvhW71u3kr//PVmqVOL50r593K8uzQcf0NSqZbtsA0N7/2Aiu3d3FlSNpxzcHyFHFilC07mzM0hsx44ogjA0W7bQjBhB066d2z0vTZky5Ouvx/cW5Ngxmi5d/C3RgCJffdWVyk9q7+8S59I7nsvcY8fIPn38ibFcOZprryVvu4186CFy4ECaBx8kf/tbslUrvzoCmt/8Jr7blDNn3LhCSmrOwIvTp92p/Nr7u4Fs0CC+K7IlS9J1lpwzEvKtt2LPs++/J2vUsB2/vYzT3j9wyOnTY8v3kyedHljnydPceGPMrzDNxIm247aUWbVqxTfuOlwmau/vBrJChZiW6zKffqqvt85Gli9Pjh8fUwOajt9d8rXXXKn8pPb+LnF6sGjoWnmRkNnZ0V8NdOhgO15/M0d7/0BylryKZMMGmssvtx1rMqCpUoWcMydynt53nx/xBGcAgjz9NODWZImXX9Z1/l1CMvKHhgyR0MaNtkNNBhI6dAhYuNB2HIGivX9wkT16RM70jRv10j86zsjBKF4Rms6dbcfqY6a8/rorlZ/Ue3+XkdWqRTXpJc6htOmG5sknI3+J8/LI8uVtx+pThmjvH3Tk/PmRM/+rr3S+e+GcNyrHjkXOy2nTbMfqY6a42PvzqadspycV0Vx1VXTDW//rv2zHGmTk8OGR87CggPzVr2zH6k+GuN77xz7DTEWHnDUrciEcOxbLdNp04oxwjWb25OTJtmP1MVPGjXOl8pPU3t9bNI0aRbfox9ChtmMNIvKvf42cd3l5ZP36tmP1J0NM7dqubQipvb8vohvNduoUTc2atmMNErJx46gaTzNypO1YfcwU7f2TjTNNO5rL2HHjbMcaJOTcuZHzLCeHpkoV27H6kyHa+yctmj/9KXKhnDlDXnKJ7ViDgKZly+geoD7zjO1Y/cuUWCZGRKS9v5+caa5HjkQul1mzbMcaBOSyZZHz6uuvydKlbcTn+3RNmtq1ITt2ABkZiR/syBGgfn0JnTjhdzrSGfn448CIEZE+BbZqJaG1a109t6lcGXLttUDNmkDiS3kBJ0+C+/ZBVq0SOX7c3XzKzo5u2O/vfy+SJrdN2vsnP2c46969EYvHLF/u2jlNixbOAiPxLMUdjR9/dO7VmzZ1J49CIWeIdCTbttEUK2avNH2k9/6pg7znnugK6oYbEj9X//7xLUcWZ0NgHn008Zjvvju673HPnrbL0jc0Eya4V1Da+9vk9HAbNkQup40bE1l8kxwyxJ+Kf67//M+4YzYZGdGtELxuXdqsmqS9f+qhuemm6Mqrb9+4js+OHeNbYdcN+fmRdgi6cNyPPRbdOTp1sl2GvtHePzWRK1dGLq89e+KZKBT/jrxuWbIk9pjLlaM5fDjysRcvtl12vnG19+eRI9r7BwfN1VdH10s/9lhsx73sMruVn3T2EYhtVCM5dGjk46bRhB8AoJk40b1CGTjQdnrU2Zw99SLVpcOHacqVi/qY5tFHLdb8X8R9553R50P16s6KyJG8/bbtMvMNTZ062vuntqjHuvOll6I+phkxwmrF/7c//jH6fIhmeHteHtmgge0y+4kPawIOHuzKoB8AwP/8jw76CR6RbdvAKVMifpADBpDVq0d30KA09GXLRvMpZyn03/0u8ifHjRPZtct2qnyhvX/6ILOyopso9Prr0R3PzQFjiRg2LLp4Z86MfKwTJ4I24cfbKwB59lnt/dODyIED4KuvRv7kAw+k2kQhmquuAm69NfInX37ZWRU4DWjvn36cHXCOHo1cnjNnRj5W8lwB0CxdGvk4336bVt/h6FZAiZY++U8W5MCBkcvTGJqWLc//26ws8uGHydGjaXbutFfpf2nTJnLUKJoHHgh3+U7TpUt0x4l/ZGHS0d4/fZElS5L790cu12XLfv6brCznHtqv8f7x+vFHctIkmsqVnbhDIZr16yP/3Y4daTPhBwBo3njDvUzX3j/Z0Nx/f3Rl27Ur2aaNsyV2Mvn2W7J5c7JPn+g+/9vf2i4THwtfe/90R1O0KLl5c8TiNTt3kjk59ipygt/NqHb4+eyztJnw4xS+9v4q2i3F0sF119kuC/8KXXt/9QvkJ5/Yrn52xT6ZKKmRb77pXuYNGmQ7PSoxNG3b2q6C9hhD/vrXtsvAv8JmgwbRjQePhvb+qYJcuNB2VbTjnXds573PBf3KK+5lnvb+qYKmWTPv1vELqvz8IE348a+wWbIk2aQJeccd5Nix5J49Meed7vCbcsjJk21XSX+NGWM7zwPDWc31zTej3wRUe/9U4zwcPn3adrX0Rxrt8BMLZ7GEiRMLvRzU3j9lOSv7pjpjyLvvtp3XgUZeeSXNli3hM1B7/1RGc9dd5O7dtqupN7ZuJW+5xXYeJwWyVClyypSzG0/t/dMFTeXKNGXKJP8bgkmTaMqWJS+6yHaeJh1ShHzxxZ8zU3v/dOM0BEGZ9RerDRv0VbULyBde0Pf+6YusUYNcu9Z2dY6J+fBD7fVdFG5uuEofzuShhx8md+ywXbcL9+WXzpZo8e90FDRxzVKiycyEdOoE1KsHZmVBMjKAo0eB7dvBVasktH+/7YSp5OQsF3bJJcCAAUDbtrbjAZYsASZMADZuTJvFPC/E2app4cLI7/Q/+YSmb1+ySBHbMavklExLgiWzqC5lyLp1yUWLgGXLgOxsINI2T61bQ6ZMAb74gubqq20nUikVXsQGgKZtW2DdOiCebZ6vuALy8cc0DzxgO6FKqfMVLew/nd1LFy9ObGnvjAzI+PFkkSIi48bZTrBS6mcXvAKgadgQmDnTnXX9RYBXX02r1VGUSgIXvgWQSZMAN991hkLAW2/RRLfVklLKe2EbALJHD6BNG/dPV6sW5JFHbCdaKeW4wBXA0097dkYOGEDj1nZhSqlEnNcA0NSsCbRo4dkZpVIlyLXX2k64UircFYB06+Y8tPMQs7NtJ1wpFfYW4OKLPT+rNGliO+FKqXANALOyvD9t1aq2E66UCjcQSEqX9vys9OEcKrnxT3+CTJhgOwzg4EHbEXgpzEjAY8c8P6scP2474SrYJLR3L7B3r+04Ul2YZwC7d3t/2u3bbSdcKRW2Afj0U+9Pu3at7YQrpcIgS5Qgjx3zbn51QQF9edColIrkvCsAkdxcYOpU7065aJHIgQO2E66UugCyWjUyJ8eT3l/X/1Mq+Gj+8Af3G4DRo22nSyn1s0KH/JLTpgG33+7OqVauBK+/XkJ5ebYTnQ7I+vWBunWRQivYqhhJQQG4a5eE9u2L6+9pihWjmTEj8Z5/1SqyQgXb+ZEOyAYNnPxW6idLlsT94J0sUoRm8GBnz/NYGUOOG0eWLGm7YqQDsmJF8l//sv11U0G0dSvDjMCNeHkoUlAgoZdeAlu0AObNA8jovo6ffAJcd53IQw+JnD5tu3Kkh0cfBWrWtB2FCqLGjcH77jv3tzFP+yXr1gW7dYPccANYpw4kKwsoVgw4fhzcsgWyejU4c6aENm60neR0Q65YAbRvbzsOFVRz54qcvYOxt/P+la/Izz8HrrzSdhwqoLh0qYSuv/6Xv9InxEqlMasNAFmqlO0MUCqdWWsAyB49wI8+sp0BSqUz3xsAmowMcvhwYNYsSIsWNJdfbjsTlEpXvjYAZIcOkM8+A556ytkoBIC4NdJQKRUrXxoAsn17cuFCYPly4Nwe/7bbSI9XIVZKhVU08UOcjyxSBGje3NlKvHdvoGnTC3+6bl2gdWtn4JBSyk8JNQA07dpBOnQACgqAzEygWjWgYUOgWTMglj0Ab79dGwA3GGM7AhVgUlBw7q8SuwKQnBzg+ecTj6x3b5oBAyR05oy1zEkF/OoryFVX2Q5DBdWePef+JqFnACIbNgCbNiUeWOXKkM6dreVLqpDJk22HoIKKBKZMOfe3iT8E5N/+5k6A+jYgUSKLFoEjR9qOQwUNCQweLHL+gr8JP30nGzQAduxIfD/BEyeAqlV15mDiyBtuAO6+G6hX79+vW1X64ZkzkF27gIkTRVas8O48Zs0aV6Ysm169bOeZUunEnd5B3n3XnePobYBSScdZRfjMmcQvAXJzyfLlbadHqXThyhWAyMGD4PLliR+peHHg7AULlFLece8BkVu3AdTbAKWSDk3ZsuTp04nfBhQUkDVq2E6PUunAtSsACeXkAIsXuxBSCNC3AUolHZpevdx5Hbhmje20KJUOXJ2GS5YoARw8CJQrl/jBGjWS0I4d1nImBZB33AHcfHNiR5k3T+Sdd/yPvV8/MADDw2X+fGvpx9kLeMbu7bdF5s/3OfDJk925Chg82NfAUxA5fHjiBTF8uJ3Yx4935XuUsGHDrKTfTJiQeOwDB0Y6jwfDRF16G4A77nA/NqXUL7nfAHDpUuDbbxM+jjRpQjZvbiFPlEobrjcAzpz+WbPcOZqOCVDKSx7NFHPrNuD226nbWyvlGY8q1+rV4VYfiV2tWmCbNv5miVLpw5MGQIQEpk9352B6G6CUV7y7vKZbcwN69aIpVsyvDFEqnXjWADjbg3/5ZeIHqlQJkuiACKVUOB4/YHPvYaD3WaFU+vG2AeA77zgLEiZ6nB49yNKl/coUpdKFpw2AhPbuBVyY2COlSwM33uhbriiVJnx4x663AUoFlfcNAKdPB9zY8adrV/Kii3zIE6XShucNgIQOHQKWLUv8SBkZoK4XqJSbfBpmq7cBSgWRJ9uDn4dz5kBeew0oWTKh40iHDmRWlsiBA77Erezh229DvvjC+UfFimDFipCqVcGGDSEXXwxUrGg7xFTgSwMgoZwc8n//F7j11sSOFAoBvXsDo0b5EbeyR0IrVwIrV17o/2lq1wZatoS0bQt06QI0bmw75mTk40w7vQ1Q7pHQvn0SmjVLpH9/kSZNgIYNgcGDgc2bbceWTHxsABYtAr7/PvHjXHUVTaNG/sWtkoHIrl0iQ4eKNG0KtmsHzpzpztun1OZbAyCSmwvMnRv/EYxxFhzduBHSrJlfcavkI6GVKyXUuzdw8cXAhAlAQYHtmILK38U2op4hmJsLrFoFDBsG3nQTULMmkJEhUr26yBVXiMyebSGvVJIR+eorkQcfBJo1A95+WxuC8/nbAMiHH154vcD8fOcKoXt3sHx5kbZtRZ5+WkILF4ocOCCihafiI7Jli0jfvmCTJsAbbwCnT9uOKSh8bQCcSjxjxlm/5O7dYP/+YFaWyC23iPz97xLKy7OdMSr1SGjnTpH773deK3brBkydCpw4YTsum/wZB3CWd98FHnkEPHIEMmIEMHq0Vnh1LrJUKSAvz4srP5HTp4EFC4AFC8gSJcDLLoNccQVw+eVg06aQ8uWBzEygRIlUv1qw0ACsWQMMGAC88YbIyZO2M0AF1ahRQL9+ZEEBkJPjvEHauBHYuBH8xz+ANWsktH9/omdxHk5//rnzk358bwCc9QLHjLGdcJUsihQBKlRwfurWBbp1+2lDO3LzZmDmTHDaNAlt32470mSkS26rJHbppcCQIZBt28hVq8hOnWxHlGy0AVApok0b4MMPyWXLyA4dbEeTLCw8A4gNTfHiQPPmkCuvBBo1AurWBUuXhlSo4Lw6PHECOHYM3LMH2LoVWL8e8uWXzq2GSj8dOwIdO5LLl4PPPSehVatsRxRkgWwAaDIzIT17Aj16AJ07nzeLMNym5mf97tAhculSZ+DRkiXOdmUqvXTsCFm5kmbNGsiYMeCcORLKz7cdVdAE6haArFePHDcOcuAA8OabwE03xTeFuEoVoE8fyIIFkP37yWefJcuXt50+ZYFccw3w7ruQb74hX3+d7NhR95n4WSAaALJiRXLcOGDbNuDBB513sG6pWhV44QVg717yj3+kyciwnV5lw0UXAQ89BCxbBjlyhJw7l3z8cZq2bWnKlrUdnS3WbwHIO+4AR4+GVKrk7ZnKlgWGDgX69qV54AG9N0xnZcsCN98M3Hzzz68Uv/0W2LkTOHwYOHrU+SGBjz4SWbzYdsResdYAOCO9Xn0VuOeesPf0XpEmTYDly8khQ4Bhw0SMsZUHKkiqVnV+wkndBsDKLQBZsSKwdClwzz12kl20qHM1MH2685ZBqfTkewNAU7s2uGoV0KqV7cQDPXtCFi+mKVPGdiRK2eBrA0BTrhxk4ULnMjwoOnYE5s/XKwGVjnxrAMgSJSALFjiLMwSMdOoEmTjRdhhK+c3HK4Dhw4G2bW0n+ML69qV58EHbUSjlJ18aAJouXYBHHrGd2Ihk9GiyaVPbYSjlF88bALJUKchf/wqIny/74lSiBPDaa2QyxKpU4ny4AnjsMWdRz2TRrh3Qp4/tKJTyg6cNAE2lSsBTT9lOZOyee44sUsR2FEp5zdsrAHngAWfYZbJp1Ajo2dN2FEp5zbMGwOlB+/WzncD4E/DQQ7ZDUMpr3s0FYOfOkLp13T1oTo4zLvujj4ADB5z14mrXdtYM6NzZeYjnEmnXjqZOHQnt3etZHillmXcNgGRnu3ewM2eAP//Zmbzz3Xfn//+YMWRWFvDii8C997pzzlAIcuutwMiRnuWRUpZ5+Ayga1d3jpOTA2ZniwwaFL7yO5zdg373O6cBcGsFIF1kUqU2TxoAsnp1Z7vmRBUUAH36SOj996P9C5FJk8DHH3cnJe3a6dsAlcq8uQLgZZe5c6Dx40UWLYr1ryQ0diy4dGni58/MBOrUcTt7lAoKbxoAcWM47ZkzwEsvxR/DkCHuJCZIMxeVcpdHVwA1aiR+jFWrRL75Jv4DfPopkPjWUXoFoFKZR1cALgz+kTVrEvpzIZ19CBOVjAOZlIqOR28BXKg0TKT3/4kbx3BzhWKlgsWjW4CiiY8vkFKlEg/EjWO4kBalAioQ+wKE58K9N+vVs50KpYIswA1A166JzMunKVMG0qaN7VQoFWQBbgDq1AGvvz7uP5d77wV0oU+lChPgBgAAhg+PZ7VemsqVgWeftR29SsSPP9qOwJHaG4oGuwGQ5s0hr78ey60ATfHikFmzgMqVbYevEnHihO0IAADMybEdgpeC3QAAAO69F5w+PZrNO8gaNSDLlzvLeqnktm+f7QgcqT0dPAkaAADSqxdk+3by4YedZcbORlO7Nvncc8DWrcHYcUgljJs22Q4BACCbN9sOwUtJ9I67enXgL3+BjBlDbt4M/OtfYLFikNq1gcaNbUenXCbr1gG5ua4u8hKzo0eBLVtsZ4WXkqgB+EmRIs7uQs2a+bqrsPKVSG4uuXQpcOON9qJYuDDVd49OjlsAlZ44ZYrdACZPtp0FXtMGQAWXzJkD7Nhh5dxcvx5YscJ2FnhNGwAVWCIFBcDzz9s5+9NPOzNKU5s2ACrgpk0Dly3z95wzZkjovfdsp9wP2gCoQBMhIX37AocP+3PGr74C0mdPCG0AVOCJfP01eOONwMmT3p7p++/B7t1Fjh+3nWa/aAOgkoKE1q0DunVzNofxwuHDYOfOEtq40XZa/aQNgEoaIsuXg23bAtu3u3pgrl8PtGoloc8/t51Gv2kDoJKKhDZuBFu0AMaOdfaNSEReHjB0KKR1a5Fdu2ynzQZtAFTSkdCJEyL9+zsjQqdOdSpyLE6dAsaPB5o0ERk8WCQ313aabEnCocBKOUS2bAHuuovs3x/o0QO47jrgqquAevXOXsvxxx/BXbsga9cCH3wA/v3vEgrIdGPLtAFQSc95av/mm84PQJORAZQt6yxP/913YE6OhNzaLzK1aAOgUo6E8vOBI0ecH1UYfQagVBrTBkCpNObRLcCECYAbu/MGAP/xD9shxB/77NlI9PUWN2ywnYz0NHUqkOC4BK5dazsVSimllFJKKaWUUkoppZRSSinfxbyyPlmypN3NGgKIp05JKNYZaT6EZcqVg4R0sFe6YkGBhApfQCViA0BTrBjkzjuB3r2Ba64Bype3na5gOnwY+OgjYNo0YN48WyvK0pQpAxk6FOjbF6hQwXauKNsOHwYmTgRfeCFcJ1VoA0Bz9dWQqVOBiy+2nYzksm4d0KeP34tMOFupr1gBueYa2zmggub994EbbnCWWv/ZBS8PyexsyIoVWvnj0bIlsHYt+atf+Xpa6ddPK78K7ze/ca7izxa2ASAvvRR49129109ExYrA/PnhdjP2Tna27VSrILvppnN/c4ErgFGjgMxM2+Emv1q1IEOG+Hc+PxsblXRYufK5vzqvAaBp1sy5XFDu6NePplw521EoFc75VwDSrZvtoFJLRgbkP/7DdhRKhRPmFuCSS2wHlXo0T1UwhWkA9D7SfVWq2I5AqXDObwBYpIjtoFKP5qkKJh0mqlQa0wZAqTQWpgGwM4Y9tfmUp9SyU4U5//sR5jXgoUO2w0w9Bw/6chotO1UYOf97GOYKYO5c23GmFhKYN8+fU2nZqcLMmXPub0LhPzRrlu1QU8fLL4v4tbb+pEngBx/YTrEKohkzgPnzz/3teQ2AM4/9ttvAJ58Etm0DdFPF2OXngxs2gHffLTJokF9ndTbAvPFG4LnnwF27AGNs54Sy6cwZpw4//rgzPf38ZwD/B4Q/hd28OJgUAAAAJXRFWHRkYXRlOmNyZWF0ZQAyMDIyLTA5LTI5VDA5OjI3OjA3KzAwOjAwDUo6aAAAACV0RVh0ZGF0ZTptb2RpZnkAMjAyMi0wOS0yOVQwOToyNzowNyswMDowMHwXgtQAAAAodEVYdGRhdGU6dGltZXN0YW1wADIwMjItMDktMjlUMDk6Mjc6MDcrMDA6MDArAqMLAAAAAElFTkSuQmCC;align=left;" vertex="1" parent="1">
          <mxGeometry x="-270" y="1590" width="123" height="42.5" as="geometry" />
        </mxCell>
        <mxCell id="nL-H-F1wq60gKDnkxpsh-22" value="&lt;blockquote style=&quot;margin: 0px 0px 0px 40px; border: none; padding: 0px; font-size: 13px;&quot;&gt;MODEL:&lt;br style=&quot;font-size: 13px;&quot;&gt;&lt;b style=&quot;font-size: 13px;&quot;&gt;350N&lt;/b&gt; Test&lt;/blockquote&gt;" style="rounded=1;whiteSpace=wrap;html=1;fontSize=13;glass=0;strokeWidth=1;shadow=0;fillColor=#1ba1e2;strokeColor=#006EAF;image=data:image/png,iVBORw0KGgoAAAANSUhEUgAAAgAAAAIAEAQAAAAO4cAyAAAABGdBTUEAALGPC/xhBQAAACBjSFJNAAB6JgAAgIQAAPoAAACA6AAAdTAAAOpgAAA6mAAAF3CculE8AAAAAmJLR0QAAKqNIzIAAAAJcEhZcwAAAGAAAABgAPBrQs8AAFb4SURBVHja7d13mBbl1Qbw+8zS29K7dBaQJkgHEQFpGooixiho/LAA9hpbRDS22BMRUSxgBTtBkaYIKCCICtLL0ntZYCnL7pzvj7HRd/ctZ+ad+3ddXEmusDP3M7O8c95nngIQEREREREREREREREREREREREREREREREREREREREREREREREREREREREREREREREREREREREREREREREREREREREREREREREREREREREREREREREREREREREREREREREREREREREREREREREREREREREREREREREREREREREREREREREREREREREREREREREREREREREREREREREREREREREREREREREREZExsQ5AFGvqJidDKlcGqlQBihcHkpO9PyVKHP03jxwB9u8H9u+H7t0LbNsGbNoE2b5dZMsW63ZQ9qlbujRQoQKkShVoiRKQ3+55sWLH/+3du6EHD0L27QO2boVu2ABs3SrO1q3W7SCKJRYAlDBUy5cHWrQAGjQA6tcH6tYFatcGihaN/OgHDkCXLwdWrIAsXQosWACdP1+cdeus2x1m6p5xBuS3e37mmd49T0kBChSI/ODp6cDy5ZDly4Ff7zm+/15k0ybrdhNFAwsACizVGjWg558P6dABaN0aqFo1/im2bQO++w46bRpk6lRg8WIRVetrk6hU69aFdukC6dABaNkSqFgx/ik2bQK+/RaYNg2YNk1k2TLr60JElNBUk5JUzz1X9YUX1F25Un1p82bVl19W7d5d3fz5ra9Z0KmbN6+6Xbp413TdOuu7e2Lr1qn+97+qnTqpmyeP9TUjIkoY6rZoofrii6pbtlh/1OfM3r2qb76pet55qo5jfR2DQlXEK/Ree011507ru5gzO3eqjhih2qaN9XUkIgok1ZIl1b3jDtVffrH+SI+ONWtU//lPdcuVs762fqVuuXKq99yjumKF9d2KjmXLVO+6S7VkSetrS0Tke+qmpKgOH67u/v3WH9+xceiQ1yvQtKn1tfYLdRs0UH31Ve/aJKL0dO8VxplnWl9rIiLfUT3zTNXRo1UzM60/ruPGnTxZ3ZYtra+93T1v2lT1f/9TdV3rWxEfWVmqH3ygbuPG1teeiMicuikp6o4d6304htWECWF6KHjf+D/6KDwP/mO5rtf+OnWs7wURUdypliih+vjjidvtm1NZWV4PSIUK1vcmdve8ZEnV559XPXLE+mr7w5Ejqi+/rG7Zstb3hogo5lRF1B04UHXHDuuPX3/at0/1tttUk5Ks71X07nlSkurNN6vu3m19df1p1y51r7tOVbguCxElJnVr1VJ3yhTrj9tg+PFHdZs1s75nEd9zrV9f3e++s76awTBrlmr9+tb3jIgoalQdR90772R3f04dOaL60ENBXFxGNSlJ3fvvVz182PoqBsvhw97UQa4bQUQBp1q+vOoXX1h/rAbbnDnq1qplfS+zfc/dKlVUp0+3vmrBNmuWao0a1veSiChXVLt3D95Kbn6VlqZu377W9/T09/yii/iuP1p27VLt0cP6nhIRZZu3lOvdd4d7al8suK43c8J/AwR5z2Plt3vOVwJE5HOqhQurfvyx9cdmYps4Ud3kZOt7/fs9d4sVUx0/3vqqJLZPP1UtXNj6XlNi4bQTihrVUqWAzz4DuBFK7P3yC7RHD3HWrbNMoVqhAnTCBEiTJtZXJPH9/DPQo4fIxo3WSSgxsACgqFA3JQX44gsIBy7Fz/r1XhGwaJHF2VXr1QO++AKoWtX6SoRHairQrZvIsmXWSSj4WABQxFTr1gWmTgUqVrTOEj579kC7dhVn7tx4ntXbzGjyZIA73cXf5s3QDh3EWb7cOgkFGweWUES8Hc6++ooPfyvFi0MmTYrnpkKqTZoAkybx4W+lQgXIN994PTBEucceAMo11bPOAqZMAUqVss5CaWnQ888X5/vvY3kWdZs1g0yeDBQvbt1i2rABet554qxcaZ2EgokFAOWKas2awMyZQPny1lnoV7pjB6R9e5ElS2JyeLdWLcjMmUC5ctZNpd9s2AB06CCyapV1EgoeFgCUY+qWKeM9CFJSrLPQsTZsgLZtG+3ZAaqVKgGzZnHAnx+tXQtt2VKcrVutk1CwcAwA5Yi6RYt673/58PenypUh48erW6RItI7o3XOO9vevqlUhH32kbv781kkoWFgAULapikBeew1y1lnWWehUGjWCvPVWNFaP87aoHTUKaNjQulV0Km3aQF55xToFBQsLAMqBhx8G/L8ePQFAr17A0KGRH2fYMMgll1i3hrKjf3/Vu+6yTkHBwTEAlC3q9u0LGTsWEP7OBIaqSGS9AKquy3seJK4L7d1bnPHjrZOQ//EfNp2WavXqwI8/AsWKWWehnBGJ7OGtqmrdBsqpvXuBxo1FUlOtk5C/8RUAnZK6efIAb7/Nhz9RUBQrBrz1lh93jSR/YQFApyZDhwKtW1vHIKKcaNsWettt1inI3/gKgE5KtVUrb7EffpMIKr4CCLPDh6EtWojz88/WScifWADQCambLx9k/nygQQPrLJR7LADC7pdfgGbNRA4dsk5C/sNXAHRics89fPgTBV39+sC991qnIH9iDwAdx9ve98cfAa4sFnTsASDg0CGgXj3OCqBjsQeATuDpp/nwJ0oUBQoAjz9unYL8hz0AdBTVjh2BqVOtc1B0sAeAfqft24szY4Z1DPIPFgD0O2/t+O+/B5o2tc5C0cECgH6nCxZAmjUTcV3rKOQPfAVAf9DLL+fDnyhBSZMm0CuusI5B/sEeAAIAeKuG/fILUKeOdRaKHvYA0FF09WpISopIVpZ1FLLHHgD61SWX8OFPlOCkRg1onz7WMcgf2ANAv+75/vPPnPefeNgDQMf7/nuRFi2sU5A99gAQoF268OFPFBbNm6t26GCdguyxACBAhgyxjkBE8XTnndYJyB5fAYSculWrQlat4oY/iYmvAOjEVIEGDUQWL7ZOQnbYAxB6/fvz4U8UNiLAlVdapyBbLADCThYutI5ARBauuMKb/kthxQIg7HTiRCAtzToGEcVbxYrAuedapyA7LABCTpzDh4H//c86BxEZ0Msvt45AdjgIkKDaqxfwySfWOSj6OAgwEvv2AampwMGD0L17IYULA4UKAWecAZQsaZ0uOtLSgAoVRA4etE5C8ccCgKBuvnyQdeuAcuWss1B0sQDIiZ9+8nrDvvsO+v334mzbdvLrUrw40KQJtG1bSLduQOvWgBPQHtW+fUU+/NA6BcUfCwACAKg+9hjwj39Y56DoYgFwOtu3A6NGQUeNEmflytweRbVCBW9U/fXXA1WrWrcqZ+FfeUWca6+1jkHxxwKAAADqVqkCWb2aUwITCwuAk9m1C3jySeCFF6LZ/a3qONCLLwYefxxSo4Z1K7MXevVqcWrWtI5B8ccCgH6nOmEC0KOHdQ6KHhYAJ2rUuHHA4MHi7NgRs1NogQJej9o99wD58lk3+fRq1BBZs8Y6BcVXQN9ZUUzo889bRyCKnT17oD17itOvXywf/gAgcuiQyNCh0HPOAdats275aWmnTtYRKP5YANDvxJk0CZg71zoHUfQtXw40aybO+PHxPKs4c+cCTZsCM2ZYX4FTB2UBEEYsAOho+vDD1hGIomv+fGi7diKrVlmcXWTnTqBrV2DCBOsrcXIdO1onoPjjGAA6jrrffw9p1sw6B0WOYwBWrIC2a3eqKX3x4k23HT8e6NLFOsuJA55xhjgbNljHoPhhDwCdwLBh1gmIIrd9O7RzZz88/AFAnIwM6CWXAEuWWGc5ccAGDawjUHyxAKDjeO9Jv/zSOgdR7mVlQS+/XBx/DcATZ+9eoG9fYP9+6yzHURYAYcMCgE7i1luBI0esUxDlzn/+I87kydYpTkRk8WLoPfdY5zg+2JlnWkeg+GIBQCcksmQJ8PLL1jmIcm79eugDD1inOCUZPhw6e7Z1jKNow4bWESi+OAiQTkq1ZElg8WLuERBc4RwEePXVIq+/bp3idNRt1w7ip+mBBw4ARYuKuK51EooPFgAJSt28ecWJvAtf9aKLAG4UElThKwBWrADq1RPJyrJOkh2qEyd6UwT9Yv16YOVK6KpVkJUroT/+CPn5Z5HNm62TUfSxAEgQqhUrejuTtWsHtG0LlCwJrVtXnIyMyI/97rvAX/9q3UbKufAVALfeKvLcc9Ypsku1Rw9/rw/wm61bgdmzvQWNZs2CzpsnTmamdSqKDAuAgPLWGu/aFbjoIqBDB6BKleP/0rXXivPKKxGfyy1dGrJoEV8FBE+4CoDDh7297Xfvtk6SXaqOA6xZc8J/v762Zw908mTIxInQ8ePF2b7dOhFRQlMtUEC1Vy/Vt95STUvT00pNVTc6G5Go9uihmpV1+nOSn0R+34MkCN+kT3SNn3vO+spFJjNT3SlT1L3uOm/cEBFFjWrTpqqvvZa9h/6xhgyJXo6HH7b+qKGcifyeB8n119v+S83tNe7Y0frKRc+hQ6rvvqtu586qkfU+UezxBvmUt6/4BRcAN90E6dw590fatQtISfHWI49CJnz+ub8GLdGphOoVgDZsKM6iRdYxchxbCxUC0tKAPHmss0TXypXAf/8LHTFCnMOHrdPQ8VgA+Iy6RYtCBg0CBg8GqlaNzkGffVac226LTr4yZSDz5wNnnGF6oShbQlMAaHo6JDk5KKP/j4vv/vADpEkT6xyxsW4d8MwzwKuviqSnW6ehP3AhIJ9QN18+dW+4AbJyJfDEE1F7+AOADBmiWqdOVA7lbN8OvfBCYO9es4tFdCxZtSqoD38v/4oV1hFip0oV4LnngLVrVR98UN2iRa0TkYcFgDFVEXUvuQTyyy+Q//wHKFs2+mfJlw94+eVovZMT5+efgV69vFHXRH6wZo11gojo2rXWEWKvVClg6FDI0qXq9u/PMQL2WAAYUrddO+jcuZCxY4FatWJ7tnPPBa6+OlpHE/n6a+i11wIB6SKmBBecqX8nJHv2WEeIn4oVIaNHQ+fOVW3d2jpNmLEAMKBauLDqCy9Apk+HNGsWvzP/+9+q5ctH62jijB4N3HFH/PITncyhQ9YJInPwoHWCuJNmzYCZM9UdNUrdWPR80umwAIgzdc85B1iwALjxRsCJ8/UvUQL62mvR7HoTeeYZb+dAIkvx/rcUZZpoMwCyy3EgV18NWbRI3b/8xTpN2AT7H02AqFusmLojR0KmTwdq1zYLIt27A9GdL+0tvXrrrXwdQHYCPrBMAp4/YmXKQD77THX0aNXCha3ThAULgDhQt0EDyLx5kGuuAfww8OWpp1Tr1YvmEb0iYPBgIPINiIhyLnqvtmxwmW1P//7AnDnqNm5snSQMWADEmOqll3qbaBh+6z9OoULA++9Hu9IWGTECaN/e21GMKJ789O8rFzTWg4CDpH59yJw5qoMHWydJdCwAYkTdPHnUffpp4L33IH7s0mrYEIh8o6BjicyeDW3aFPj0U+sWUphUqhTUdehVRSANGljn8Jf8+YEXX1R94QXVpCTrNImKBUAMeB9EkydDorP6XuxcdpnqLbdE+6ji7Ngh0rs39MorgTBNbyI7ItA2baxT5E5KSmzW/0gEN94ITJigbrFi1kkSEQuAKFOtUAGYPh3SoYN1lux58kl1u3SJxZG9aYINGgAffGDdSgqBiPbMsNSpk3UCf+vaFfLNN+pWrmydJNGwAIgi1erVoTNmeA+9oMibFzJunLqNGsXi6CIbN4pccgm0a1dg2TLr1lIiu+iiQK4upxdfbB3B/xo3hsyZo27DhtZJEgkLgCjxRtV/8w2kZk3rLDlXrBjkiy/Ujd0GP+JMmgRt2BC47jpg0ybrFlMiOuMMICg9bx51zzgD0r69dY5gqFgRMmWK6plnWidJFCwAokD17LOBGTOAIHdRVazoFQGlS8fqDOIcOSIyciRQuzb0rruAzZutW02JZsgQ6wQ5IoMHJ942wLFUtizw1VcsAqIjeN1lPqNu7dqQWbOAMmWss0SnQQsWQDp2lDisTa5u/vxA//7eYMnorktAntBsB/y7rCygYUORJUusk5yOaokSwKpVQIkS1lmCZ9Mm6LnnirNypXWSIGMPQAS8dfUnTkyYhz8ASJMm0C++iMeWneIcPizOq6+KnHkm9NxzgbffDv6a7mQrKQn6yCPWKbLnrrv48M+tihUh06ap1qhhnSTI2AOQS94Dcvp0SJMm1lliY/58aLdu4uzYEc+zqpucDPTqBbnkEqBLF28rY8qt8PUA/KZ7d5GJE61TnIw3ZmjBAm++O+XeihVAy5YiAd8N0ggLgFxQN18+4PPPIYk+fWfRIqBLFxGbd/XqJidDOneGdu0KOf98oFo16ysSNOEtANauhTZuLE5amnWSY6mbJw/km28AboUbFTp5MtCjhziZmdZRgoYFQC6o+8orkIEDrXPEp7GrVkEuuEDEfgqfasWKQKtW0FatII0aAWee6Y38joadO4Fly6AbN0Ly5AHq1PH+BHsVsvAWAAAwfjzQq5eIv9qg7lNPQW6/3TpHYnnuORHuSppTLABySPXKK4E33rDOEV979gB/+5vIF19YJzmW98qgalWgShVIlSpA6dLQ5GSgePHjd4hLS4McPAjs3Qts3Qps3Ahs3gxdseJErzq8aZGDBnmDFIPZVRvuAgAAhg0TefBB6xS/Ubd/f8ibb/pjU7BEc/XVIq+/bp2CEpS6DRqopqdrKGVmqt5zTyAXWon0vmu9eqqrV1vfgdyIvO2J4MYbrX+HvGvZs6dqRob11Uhchw6p8rVKToTuwzy3vEF/c+dC6ta1zmLryy+hAwaIs22bdZJ4UrdyZcjcuUCFCtZZcoI9AF4rvJ6AoUPtEvztb17PYd681lcjsW3Y4E0D5R4k2cFpgNklI0fy4Q9463L/+GOs9g/wK3E2bAD+7/+sc1BuiAAPPqjuqFGqBQvG88yqSUmqQ4cCY8b49+G/Zw+we7f3J+gqVwaeeso6RVCwByAbVPv1A95/3zqH7+i4cZDrrgvTFBx1v/sO0qqVdY7sYg/AsX76CbjqKpEff4z1mVSrVYOOGgXp2NG61Z60NOjUqd7CZT/8AF25ErJx47GDJFUrVoTWquVNcW7TBujcGQjaVssXXCDy+efWKSjgVIsXV920yfrtln+tXavas6f1fYrb74N7ww3WVzwnIm5vQjpyRN1//9tbiS8GvyNasKC6d96p7v791i312vrhh6oXXOCtvJmb3/m8edXt0kX1vfeCM4Zh40ZvW3aiCKi+/LL1r3IwjB8fhlW51G3e3PpK50TE7U1ou3erDh3qbeEdjd+N5GTVm2/2Hj7WMjJUX3452ht8qVasqPrCC6qHD1u38PTefjuabaeQUfecc1Rd1/rXODgOH/Y+dBJoaeTjfidq1bK+yjkRcXtDISND9ZZbIrtOPXv64xu/qur06aqxHa+kWqOGupMmWbf0tEI2VimnOAjwJLzuspEjOV83J/LlA669FrJsmerdd6tbpIh1ougrUMA6AUVb3rxAhNt4a5UqkMKFbduRkQHccgvQoYPI0qWxPJPI6tXidOnibe/t4/075N//Vg32Yl6xxALgZOT66znqP7dKlAAefxySmqr6wAOqxYtbJ4oaadjQOgLR8bZt8x78zz8fz5UPve2927b1pt/5UaNGwFVXWafwKxYAJ6BauDBwzz3WOYKvVClg2DBg82Z1x45Vt3Nn60SRu/hi6wRER0tNhbZrJ/LddxZnF/nhB2i7dsDy5dZX4sSGDfM+0+lYLABO6OabgXLlrFMkjgIFIJdcApk8WXXePHWvuSaIrwdU69QBwjPjgYJg0ybgvPPEWbHCMoU4a9cC550HrFljfUWOV7EicMcd1in8iAXAMbzuav6yxM7ZZ3uLKm3cqO7IkaoXXBDvxVlyw9sB8tVX/buYC4XP/v3Qbt1EUlOtkwCAyKZN0G7d/Lmg0B13qMsvdcdiAXCcO+/03mFTbBUrBrnmGuB//wN27FD99FN1r7kmWlOyokm1QAHg3XeBdu2ssxD9TgcNEmfhQusYfybO8uVA//6A61pnOVqRIpDBg61T+A0LgD9Rt1gxwB8bh4RLoUJAz56QkSOBjRtV583z5hpfeaVq/fqWo3hVO3QA5s2DXHSR9VUi+sMbb4jz1lvWKU5EZMIEYPhw6xzHGzQoCL2N8ZTHOoC/DBhw/BayFF8iwNlne39+s3+/6oIFwPz5wMKF3nvGNWugGzaIk5kZ6RnVzZcPUqYMUL6896dsWW/0cMeO3n8S+cn27b5/Tan33gvp1QuI7kJEkSlTBnrFFcArr1gn8QsWAL/ytrllF5E/FSkCnHOO9+dPRFV1+3Zgxw5g+3bogQPA/v2Qgwf/mJucPz+0UCHv7ycnQx0HKFoUkiePd9zSpb3ZCkQBocOGibNzp3WMUxFn3z7VBx7wdkD0Ebn9dtVRo0T89orCBguA33XsCNSrZ52CckLE+7Zetqz3P0/2107y34kCZ+1ab4GyIHjrLeDuu/31uVqnDtClCzBxonUSP+AYgN8ov/0Tkd8NHy5ORoZ1iuwQycoCXnjBOsfxbrjBOoFfsADAr9tfCud3E5GfZWRAX3vNOkWO6FtvAfv2Wcc4WpcuqnztB7AA+NUllwB5+DqEiHxsyhRxduywTpET4uzfD3zxhXWOo+XNC+3TxzqFH7AAAADwl4GIfE4/+8w6Qu58+ql1guP162edwA9CXwCoW7q0t5kFEZGPyfTp1hFy5+uvrRMcRzp2VPfXwcMhFvoCwPv2z+5/IvKztDT/brZzaiKbNvlvt8CkJPb8sgAAfwmIyP+WLw/03HVdutQ6wvH69rVOYC3UBYBq4cKQjh2tcxARndrq1dYJIuOPDYuOIu3ahX1p4FAXAECLFkD+/NYpiIhObft26wQRET/OXihQABru8V8hLwDatLFOQER0Wvrb0tZBdfCgdYITC3cPcMgLgNatrRMQkQ9ohKvrSb58MQ6ocbwaIRLuZ0BoCwBVEWjLltY5iMgHZO/eyA5QrFhs8wV8l1L1a/7mzdUN7yyw0BYAQN26kNKlrVMQkR/s2hXRj2uMCwCUKRPHixF9fv2slcKF/bVZUXyFtwDQZs2sIxCRX6xYEdGPS6wLgFq14ngxwpVfGja0jmAlvAWA1K5tHYGI/GLZssh+vnz52OarXVvdvHnjdz2ix3vdWreudY6Tq1/fOoGV8BYAqFnTOgER+cGWLZHPU09JiW3GQoWAJk3idkmiqk4d374CAACceaZ1AivhLQCUBQARAcBXX4nkfpS9uvnyAdWrxzymdOgQx4sSReedZ53g1Hz8eiLGwlsASI0a1hGIyA/Gj4/ox6VmzbjsJ6IXXRSvKxKu3FWrWiewEsoCQN2iRQM/qpaIomDfvoi3q9Wzz45LVGnRQgPWc6laoQJ833NRtKhqyZLWKSyEsgAAqlWzTkBEfvDOOyIHDkR0iLjtJyICHTw4PueKluuuC8Ruq1qxonUECyEtAIoXt05ARNYyM4Enn4z8OHFcTlb+7/+C8m1V3SJFgEGDrHNki5QqZR3BQjgLAClSxDoCEVl7802RyHbZU7dWrfi+Q05OBu6+O37ni8QttwBly1qnyJ5gFFXRFs4CQAsXto5ARJZ274bee2/EhxGLAW433aRap078z5t96latCrnrLusc2VeihHUCC+EsANgDQBRyd94pzrZtkR9nwID4Zy9QAHj1VVXHl5/fqiKQl18G/Lr+/4kUKGCdwIIvf4FiTlkAEIXX2LEio0ZFehTVpk3tVpFr1w4YOtTm3Kdz111A167WKXIm1rs5+lM4CwApVMg6AhEZ0AULoAMHRudgV11l25j77lPt08c2w9HU7doVeOQR6xw5lz+/dQIL4SwAcPCgdQIiijNdtQrSo4c4+/ZFfCi3TBno1VfbNshxgHfeUfXHPHvVVq2ADz8MxLS/4xw6ZJ3AQkgLgB07rBMQUTwtWQKcd57Ili3ROd6tt3pbyVorUACYMEG1Rw/LFKrnngtMnOiPa5KbBuzebR3BQjgLAGUBQBQaOm0a0K6dOOvXR+VwWrw4ZMgQ62b9oVAh4JNPVK+/3uLs6g4YAEyc6E1RDCjZs8c6goVwFgDCAoAo8WVlAcOGQbp0Edm1K2qH1fvvB4oVs27d0fLmBV56SfXtt1XjM6VN3WLF1B01CvLmm4EfRa8sAMJDI38HSEQ+pnPmAC1aiDz4oEhWVtQO6zZoALnpJuvmndzf/gYsXqx62WWqIrE6i+pFF0F++QViPQ4iWvgKIEQKFrROQESx8NNP0H79IG3aiPzwQzSP7M1vf/FF79u2n5UvD7zzDnT+fNXevVWTkqLTfsdR7d5d3dmzvcF+lStbtzRqJDPTOoIFFgBEFHBpacDrr3tr8jdpIs64cSKuG/3zXHMN0L69dWuzTZo0AT7+GFi9WrVXr0gOpW7nztDly4HPP4e0bGndtKjTIC1aFD0BnK4RBVwHgCiA9u4F9u2Dbt4MWbYMWLQImD4d+v334sT2G5y6DRsCzz1nfQVyp0oVoFWriLY9lmbNgGBtRZyz9rEACBEWAETZIRK798hBoVq4MPD+++w5TGThXB02pAVAPHfvosgdOQJ89BHwxRfQxYshmZnQsmUhrVtD+/eH1KhhnZASkzeQbtQooF496ywUS+HcDjikBUBKinUCyq5Jk6DXXCPOunXH/39ffqn68MPQQYOAxx8P7CIk5F/61FOQSy+1jkGx5u/dFWMlnIMAfb6VJv1mxAigW7cTP/w9IllZ4vz3v5DOncM6lYdiQ/XuuyG33Wadg+IhnD084SwAQlrtBYpOngwMGSKimp2/LjJ7NvD3v1vHpsSgeuONwGOPWeegOFGrXR1tha4AUC1VClKtmnUOOpXMTGDw4JxO5RL59NOIRjpT6KmKqD7yCPDCCwAHQIaGVKvmDfYMl9AVANCOHb1dtMi/Jk4UZ+XKXP2oPv20dXoKJnXz5IGOHAncd591Foo3xwH8satiXFttHSD+unSxTkCnM3Fibn9SnBkzoEuXWreAgkXdypUhX30FGTjQOgtZ6drVOkG8ha8AkM6drSPQaeiyZRH9vLz1lnUTKDjU7dwZMm8e0K6ddRay1K2bdYJ4C1UBoFq/PsD3/74X6TKuOmYMEIulYCmRqJYsqTpiBGTSJKBcOes8ZK12bXVr17ZOEU+hKgCg//d/1hEoG7RSpUh+3Js2OH68dTPIn1RFvD3slywBrruOg/3od9K/v3WEeApNAaBaoABkwADrHJQNEoWuWA4GpGN4I/x79oTOnevtYV+2rHUm8puBA9X1+26P0ROaAgDat29Yl3sMnt691c0T0SqV3mDAOXOsW0L21M2TR7VfP2DBAuDTT72NbYhOpEIFyF/+Yp0iXsJTAMigQdYRKLvKlvW2do2QPPywdUvIjmrTpqrPPgvZsMHbzKdxY+tMFAAanmdFKAoA1QsuANq0sc5BOSB/+1vEh5AJE4CvvrJuCsWHusnJqj17qj7/vLpLlgDz5wO33MIBfpQj0rmzuu3bW8eIh4TfDEjVcYBHH7XOQTl10UXq3nSTOHv3Rnace+8Fvv2WA72CT91ixSBFigBFi0KLF4dUr+4t6123LrRuXUjDhkBSEgCAd5si8sQTqm3aZHcp8qBK+AIAesUVkEaNrGNQThUtCrnySuA//4nkKCKzZ6u+8Qb3CcgdVZ9+AMpp/jdRJKRVK+jFFwMffGAdJZYS+hWAukWLQoYNs85BuXXDDd5+7JG64w5g61br1hBRgMijj6oWLGgdI5YSugAAnnkGqFrVOgXlVkpKNFbnEtm1C3rDDdatIaIgqV0bePxx6xSxlLAFgGrPnlzXOxE88EA0jiLOBx8AI0dat4bIRmZmRD+ukU3LDa4bb1Q3cfePScgCQN2yZflhnyhat1Y3Wpt03HILsHChdYuI4k4jHUxbrJh1E2yIQF5/XTUx15BJuAJA3Xz5IO+9x6k/ieShh6JxFJGDB4FevTgegMJnz56IflyKFrVugZ2KFaHvvpuIKwQmVAGgKgJ57TXgvPOss1AUScuWqhdfHJVDyZo10F69gIMHrZtFFDeyenVkBwhrD8Cv5PzzIW++GZ1Byf6RUAUA9F//Ai6/3DoGxcLTT6sWKhSNI4kzZw5w8cXA4cPWrSKKi0i32NYyZaybYO+yy4DEWl00YQoAda+7DnLPPdY5KFaqVgXuvjtaRxP54gugTx8WAZT4Nm+GbNwY0SEkJcW6Ff5w333qXneddYpoSYgCQN2//AXy4ovWOSjW7rxT3eh9EHlFQPfuwO7d1i0jip1p0yJZ0c6bC3/GGdat8A158UXVPn2sY0RD4AsAdVu29Ab9/boEKCWwggUhb7yhGr17LfLVV0DbtsCaNdatI4oJnTgxsp9PSQGcwD8roicpCXjrLXVbtrROEqlA31TVChUgH30EROfdMAVB69bAnXdG84giS5ZAmzSBjhtn3TqiqNL0dOCTTyI7CHdRPF6hQpCPP1atVMk6SSQCWwCoFijg/WJXrGidheJt6FDVJk2ieURx0tIgl14Kvflm4MAB6xYSRYWMGyfO/v2RHYOzqk6sQgXohx96z6JgCmwBAAwfDrRoYZ2CLOTPD/3gA9USJaJ5VBFVcV54AWjYEDplinUriSLjusCTT0Z+nI4drVviW9KyJTSyDcssBbIAUO3Xj7u7hZzUqAGMGeNt9xzlQ8vq1eKcfz60Z09g5UrrphLlztixIkuWRHIEdWvVAqpUsW6Jr8nAgap//at1jNwIXAGgWrMm8Mor1jnIDy64APjnP2N1dHHGj4fWrw8MGsRBghQomp4OjcK0WenVy7opwTBihGqNGtYpcipQBYBqUhL0rbdCvyoV/ck//6l69dWxOro4GRkiI0Z4I6Evvxz46iuva5XIz4YOFWfdusiP07+/dUuCITkZGD06Fj2SsRSoZQ3VvfNOSDTeaVFiycoCLrpI5LPP4nE2dStXhlx+OfB//+dtGepfIpEtXaqa+/njZESnTYN06SKSlRXRYdwGDSDcPCtnbr1V5LnnrFNkV2AKAHVr14b89BNQsKB1FvKj/fuhPXqIM2NGvM7orQvesiXQpYs3UKpVKyB/ftvroApdvRr44QfIDz+IRLafOQuAoFmzBtqypTjbt0d6JHWfegpy++3WLQqWAweARo1EVq2yTpIdASoApkyBdOpknYP8bP9+6AUXiPPNNxZnVy1UCNq2LeTcc4H69b0/NWrEbJEq3bEDWLUKsmwZ8OOPwIIF0AULxElLi16bWAAEhu7YAWnXTiTCdf8BqJucDElNBYoXt25W8EyaJBKtLcxjKxAFgLp9+0K4SAtlg6anA23bivPTT9ZRAEDd/PmBOnWAlBRIhQpA6dJAmTJA+fLQokWB4sVxXDe960LT0iAHDkAPH4Zs2wZs2wbdtAnYsgWyaRN01apoPuhPmp8FQEBs3gzt1k2cn3+OxtFUH3gAGDbMulXB1bu3yKefWqc4Hd8XAN461IsXA9WqWWchn9LVqyFTpkBnzQKmTxdn7VrrSImCBUAQLFkC9OghkpoajaOpW6SI9+2/VCnrlgXXmjXQevXE8fdmY3msA5zerbfy4U9HUwW+/RZ45x3ouHHReN9JFExjxkAHD454tb8/k9tv58M/UtWrQwYPBp591jrJqfi6B8Bb6W31ar6HIgCALl0KGTMGeOedaH3boVNjD4BfrV8P3HKLyEcfRfOo3lz2RYs42DoKdMcOoGZNcfbutY5yMv6es6h33smHPwHffQft2RNy5pkijz7Khz+Flu7YAdx3H1CvXrQf/p4XXuDDP0qkdGm/z6LwbQ+AasmSQGoqULSodRayMmsW9IknxBk/3jpJWLEHwA9+feWlY8ZA3npLJD09JmfhYOsY2L0bWq2aX3sB/DsGQAcPhvDhH04//wwdMkScmTOtkxDF3/79wPLlXlf8V19Bp04VZ/36WJ5RtVo1YORI65YnnhIlINdfH51NmaLPlz0A3sj/1FSgbFnrLBRPe/cC//wn9MUXxcnMtE5DgOrZZ1tnCIdDh6D79kH27RPZvTueZ1Y3Xz7IjBncXTVWtmyBVq0qTkaGdZJj+bQH4LLL+PAPm3ffBW6/XWTzZusk9AeR+fOtM1CMyVNP8eEfS+XLQ/r2Bd55xzrJsfw5CFAHDbKOQPFy8CD02mtF/vY3PvyJ4kvdG24AbrzROkfiGzLEOsGJ+O4VgNflOG+edQ6Kh4ULgX79RJYutU5CFDbqXnEFZPRoILINoyib9Kyz/LJC6W982APw979bJ6A40FdfBVq25MOfKP5Ue/eGvPYaH/7xNGCAdYJj+ermq5snD2TjRr7/T2SqwLBhIkOHWichCiPVK68EXn0VyOPTMWCJautWaOXKfhrg7K8eAOnalQ//RJaV5b3v58OfyIK6998PvP46H/4WypXztg33D5/9EvTta52AYuXwYeCyy8T5+GPrJH+mbtGiQLVqkEqVvH+glSoB5csDFStCk5MhJUoA+fJBCxeGFC4M5MsHZGQAe/YACxYAs2dDv/sOWLBAnCNHrNvzR7vy5gXq1hVn4ULrLGTP2+BnxAjg8suts4SaXHQRMGmSdYzf41gH+I1qUhKwebO3VSollsOHoX/5iziTJ1slUBUBUlKgzZtDmjWD1q8PqVMHOOOM6Jzh4EFv8OqiRcCSJdClS4Fly8RZty627SpZ0tssq3p1ICUFaNgQaNAAqFsXyJtXhO94w071zDOBsWOB+vWts9DWrUDFiiKua50E8FMB4LZr5y1GQYnFdYHLLxd57714nlXVcYBGjYDzzvO63c45B0hOjn/79+8HUlOhW7ZAtmyBbtsG2bQJum0bcOgQJDMTum+f93fT0iBJSdAiRbzBWb/ugyElSgBlykBLlYKUKgWULg2tWBFSvfrp2sQCILy8XqBbboEMGwYUKGCdh37Tpo3Id99ZpwD89ApAunSxjkCxcOed8Xr4qyYlQVu3hlxyifc6qWJF69YDRYoADRpAGjQA8EfJ/efH8rGP6JM9siUbf4cIgLrnnAMZPtzrDSJ/Of98wB8FgH8GAWqbNtYRKMr02WdFnnkm5qdxU1LUfeopYPNmrxfpppv88fAnii/V+vVV330XMn06H/5+1amTdYLf+OJ7hDf9b/du79sSJYYJE4CePWP5rkvdCy8Ebr4Z0qkT5zOfGF8BhINqkybQ+++H9O4NOP75YkcnkJEBlCwZq10dc8InrwDOOosP/0SybRswcGCsHv7qdu4M+de/uH45hZlq8eLQnj2B/v2BTp3AYi8g8uUDmjUDpk+3TuKPAkDatrWOQNHiutArrhBny5ZoH9kbzfzSS0D79tatJLKgWqeON6i1a1egWzdI/vzWmSg3WrZkAfAbbdvWHy8jKGL69NPRnu6nbt68kNtuAx56COAHHiU+dYsWhdSs6U1dTUmB1K/vzWSpVMk6G0WBtmxpHQHwyxgAXbPGm8tMwbZoEfTss6O577W6KSmQDz/kgKbciXQMgCo35oqPAgW816DFinnTP9mdn9B01SpxatWyjmH+S6Zu/vyQ9HQgKck6C0VIBwwQZ8yYqB3O7dIF8t57QIkS1k0LqsgLAFXrNhAlHtcFihYVOXDAMoX9aFGpVo0P/0SwZw/w/vvROprqjTdCPv+cD38iSjyOA9SpY57COgBQs6Z1AoqGJUui1fWvOmgQ8MILLAyJKHGlpFgnYAFAUZKaGo2jqF5+OfDf/1q3hogoprRKFesIPigAatSwTkDRULJkpEdQ7djR26qUC5kQUYITFgBgAZAoqleP5KdVixcH3ngDyJvXuiVERLEXrZ1Ic88HBQAHeSWGlBTVJk1y//P/+Y8f/kEQEcVHqVLWCXxQABQubJ2AomXIkNz8lLp9+wJXXGGdnogofiJ/bRopHxQA3AMgcVx9tWrv3jn5CXWrVIG8/LJ1ciKi+LLv/fZBAVCokHUCihYRYNQoddu1y87fVrdqVcj48X6ohImI4qtgQesEPigA+AogsZQsCZk2TfUf/1C3aNET/Q3VpCTVSy8F5s0DGjWyTkxEFH/58lknsF8KWDMyOPI7Ue3dCx07FrJoEbB+PbRMGSAlBdK3L2A/BSYMuBQwkV9lZYnkMd2QzwcFwJEjgO1FIEpULACI/Mq+APDBK4D0dOsERERE8XX4sHUCHxQA+/dbJyAiIoqv6G2bnls+KADYA0BERGFz6JB1Ah8UAOwBICKisNm50zoBCwAiIqK427XLOoEPCoC0NOsERERE8bV7t3UCHxQAa9ZYJyAiIoqv9eutE9gXALpqlXUEIiKi+Fq3zjqBfQEgLACIiChsWAAAWLnSOgEREVF8LV9uncB+KWA3f35IejqQlGSdhSjRcClgIj9yXaBYMRHbdXDM1+AX5/Bh1fXrgWrVrLMQ0bHmz7dOEA4FCng7oyYnA8WK8QtRgtPUVHHsF8EzLwA88+ezACDyH5FmzawzhJFqgQLQ2rUhKSlAnTpAvXpA+/bcRTNR/PijdQLANwXArFnAxRdbpyAi8gORQ4eAhQu9P39QrVkT2rEjpGtX4IILvJ4DChyZM8c6AuCDMQAAoG7z5pC5c61zECWaSMcAkH+pm5wM9OoF9O8P6dQJ4L0ODD33XHG++cY6hi9+YdTNkweyezdQpIh1FqJEwgIgHNRt3Bhy771A376A44PZXXRyGRlAyZLWAwABX0wDBMTJzIT6o0uEiChoxPnpJ5FLLwXOPBN46y2Aszf8a84cPzz8AZ8UAAAAmTXLOgIRUZCJLFsm0r8/tEUL6Lx51nnoRKZMsU7wG/8UAJg0yToBEVEiEGfePKB1a+C224CDB63z0J/5pwDwzftBVREgNZXTXIiih2MASLVePWDsWKBBA+sstHUrULGiiOtaJwF81AMgogp89JF1DiKiRCKyZAnQogX0lVess9Ann/jl4Q/4qADwjBtnnYCIKNGIHDwozrXXAvfcwwGClj75xDrBn/mqe5CvAYiii68A6FjqDhgAefVVIG9e6yzhsm0btFIlcTIzrZP8xlc9ACKq0A8/tM5BRJSoxBk92lsv4MgR6yzh8u67fnr4Az4rAAAA8vbb1hGIiBKZyGefAVdd5e1KR/Hx5pvWCY7luwJAZP584PvvrXMQESUykXfeAW680TpHOEyfLrJggXWKY/muAPC89JJ1AiKiRCcyfDj02WetcyQ+f15jXw4QUi1Y0BsMWLasdRaiIIt0EKDq2WdbtyEcDh0C0tOBtDRgzx5vWnR8qJs3L2T6dG/hIIq+FSuAunX9NP3vN74sAABA3fvvhzz8sHUOoiCLvADglLH4O3AAunw5ZNEi4OuvgalTRVJTY3lGdatUgSxYAJQsad36xDNkiMjw4dYpTsTHBUByMmTtWiA52ToLUVCxAEgU330HjBkDHTNGnP37Y3EG1T59uBhbtO3cCVSpInLggHWSE/HpGABAnLQ0qD+rJiKi+GrdGhg+HJKaqvrPf6pbtGi0zyDy8cfA+PHWLU0sL77o14c/4OMeAABQLV4cWLWK3VJEucMegES1cSP01lvFie7qqarVqwO//AIULGjdwuDbuRNas6Y4aWnWSU7Gtz0AACCyZw/w739b5yAi8pdKlSBjx6q+/XY0ewNE1qyBPvqodesSw2OP+fnhD/i8BwAAVAsVAhYvBqpWtc5CFDTsAQiDZcuAHj1EVq+OxtFUCxeGpqZCSpe2bllwpaYC9eqJHDpkneRUfN0DAAAiBw5A77jDOgcRkT/VqQPMnKlu48bROJpIejrkueesWxVst97q94c/EIAegN+oTpwIdO1qnYMoSNgDECK6YwfknHNEli6N+FBusWLeLKzixa2bFTg6ebI4XbpYx8gO3/cA/GHQIGh6unUKIiJfktKlgS++ULdcuYgP5ezdCx01yrpJwXPgADB4sHWK7ApMASCyZg3kwQetcxAR+Ve1apB331VNSor4UPL669atCZ777hNn5UrrFNkVmFcAAKCalASdORPSqpV1FqIg4CuAsLr7bpEnn4z0KOouWAA56yzr1gTDrFlA+/Z+XPL3ZALTAwAAIllZkMsvB/butc5CRORfDz6obhRmTsno0dYtCYa0NGDAgCA9/IGAFQAA4E11ueYa6xxERP5VqFB01lD57DPrlgTD9ddHaxpmPAXqFcCfqb72GvD3v1vnIPIzvgIIM9cFGjYUWbw4kqOopqZyHZZT0FdfFSeYX0oD1wPwh8GDgblzrVMQEfmT4wB33hn5caZNs26Jf82dC7nxRusUuRXYAsBbZKF3b2DTJussRES+pJdcom6RIpEd46uvrJvhT1u2ABddFIQFf04msAUAAIhs3gxcfLE395KIiI4ihQsDffpEdpCffrJuhv8cOADt3Vtk40brJJEIdAEAACKzZwP9+gGZmdZZiIh8R7p1i+znV6zwxhOQJysLuOIKcebMsU4SqcAXAAAgMmECcNNN1jmIiPynY0fV3A8GFTl4EFi/3roV/nHjjSIff2ydIhoSogAAAJGXXgKeeMI6BxGRv5QvD61cOaJD6PLl1q3wh0cf9Z41iSFhCgDPPfcAY8ZYpyAi8hVJSYns57dvt26CvXfeAe6/3zpFNCVUASCiCh04EDp1qnUWIiL/qFkzsp8P++qrX34JveoqkcRaFyOhCgAAECcjA7jsMm+KBhERQZOTI/v5ffusm2Bn0ybg8svFOXLEOkm0JVwBAADibN8OveoqILGqNSKiXJFixSI7QFh7AFShV18tsnOndZJYSMgCAADE+fJL6KuvWucgIrKXJ09EPy5hnWb9wgvifPmldYpYSdgCwHPbbcCaNdYpiIgoYHTVKm9geeJK6AJAnP37gfvus85BREQBI/fe662BkLgi6xYKhPfeA+64A2ja1DoJUdBEuptgNKlbtCikSBFo4cJAyZLeDnV16kDq1gXq1gUaN464q5sIgLfR3Lhx1iliLeH/sYioqt53H/DFF9ZZiCj3xNm3D/jzaPSjdwP1CoT27aEdO0K6dAEaNLDOTEF1112JNuXvRBL6FcBvRCZOBGbMsM5BRLEjzr59IhMmiHP77SING0IbN4Y+8wynBFPOfPWVyPTp1iniIRQFgGf4cOsERBQ/4vz8szi33w5Urgy95BLoggXWmSgIRoywThAv4SkA9KOPAC5nSRQ2IllZ4nzwAeTss4ELLgC++846E/nVli3QxNjoJztCUwCIk5EBHT3aOgcR2RBRFfn8c5E2baD9+gFbt1pnIr8ZNSoRV/w7mdAUAAAAGTXKOgIR2RNn3Dhv5sDw4dzrnv7w1lvWCeIpVAWAyJIl3uIORBR2Inv2iAwZApx/PgcKErBmjcjSpdYp4ilUBQAAQKZMsY5ARP4hMm2aN2Ng8mTrLGQpfFPFw1cAgP/Iieho4mzbBunePUwjwOkYOnGidYR4C2EBMG0akJVlnYKI/EUkK0tk0CBg2DDrLBRvqsDXX1uniLfQFQAiu3cDq1db5yAifxJ58EFgyBBuJx4ma9d6K02GS+gKAM/y5dYJiMi/RIYPh950k3UOipfFi60TWAhnAaDLlllHICJ/E+e//4U+9ZR1DooD/eUX6wgWwlkAsAeAiLJD7roLeOcd6xgUa+F8JoSzAJC1a60jEJH/eTvCXXttWLuIQ0N27bKOYCHhtwM+IT1wAL7Z5ZzIv1T9NBBu3z4gPR3YtMn7xrZwITB9OnTu3Fgu3yqSnq7ar5+3/XChQtZXgWJAwzcAEAhrDwAOHrROQEQ5VbQoUL480LQp8Ne/Av/6FzBzJmTnTtU33lDt2FFVYlLai/zyCxDUQYFr10a8AZLOmwesXGndkpgRFgAhwgKAKHEULQpceSUwdSrw00+ql12m6sTgs+2116BBmis+fz60Z0+gRg2Rzz6L5EjiTJkCpKRAu3VLzN0UWQCEyKFD1gmIKBYaNvQG7c2erW6zZtE8sogqZMgQwO+7xW3aBFx6KdC8uTjjx4tEZ7MjEVVxvvxSpE0boHdvYN0665ZGT9681gkshLMAkGLFrCMQUSw1bw6ZPVv14YdVk5KidVSRxYuBZ5+1bt3JjR4NPfNMkbFjvQGMsSHy6afQ+vWBkSOtWxwdxYtbJ7AQzgJAS5e2jkBEsZaUBNx/PzB1qmqpUtE77mOPAWlp1q07WkYG9NprRa68Upz4ZBNn/36R664Drrgi+K9VWQCEh7AAIAqPc88FZsxQt0qVaBxNZM8e4L//tW7V7zQ9HejdW5xXXrE4vcjbbwMdOwI7d1pfitxjARAe7AEgCpl69YCvvlItXz4qh9PnnvMevNYOHgS6dxex3cpWZPZsaPfuwR1MxwIgPKRgQesIRBRnUqMGMHGiupGPARJnxw7IqFG2DXJd6KWXijNjhm2O367J998Dffr4f5DkiRQoYJ3AQjgLABw4YJ2AiCw0bgyJVlf5G2/YtuWhh8QZP942w9FEpk4F/vEP6xw5l5FhncACCwAiCpl+/dS95ppIjyKyYIG3GqGF6dOBRx6xOffpPPss8Pnn1ily5vBh6wQWQloA+OHdHRGZkSefVLdcuYiPo2PGxD/8wYPeiP/ozO+PNhFV6PXXA3v3WmfJvnCuDRPSAoA9AEThVrw45LHHIj6MfPRR/LM//7w4/t69Tpz164EnnrDOkX179lgnsBDSAoA9AETUv79qzZqRHEFk1Spvrf142b0bePLJ+J0vEs8/D2zZYp0ie4I8hTH3wlkAqN8W8SCi+MuTB7jrrsiPM21a3CLrqFEiu3fH7XwREElPB156yTpHtmg4twMOZwEQ14qdiPzrsstUI9ziV+NVAKhCAvJA/d3IkYGYFigbN1pHsBDKAkCc7duDu2AFEUVP0aLe3PUIyPz58ck6e7bI6tXxOVd0iGzZAnz1lXWOU9u/X4SvAEImNdU6ARH5wYUXRvTjumoVkJkZ85hqMeAwDLnD2yMc4gIgWJU0EcVKhw6qIrn9aXEyMoA1a2Kf8+uv43hRokf8nnvVKusEVkJcAMTjHywR+V/58kD16pEdY9my2GY8cAD48ce4XZKoWr4cumOHdYqTW7zYOoGVEBcAK1ZYJyAiv0hJieznt26NaTxdvlycOLxmiAERVciSJdY5TkpZAISPzp1rHYGI/KJ27Yh+XGO86p2sXBnPqxF9Pu5mF6vlnO2FtwDATz9xRUAi8pQsGdGPS6yXvfVzF3o2+PYVwIED0EWLrFNYCW0BIM6RI8APP1jnICIf0Ei3CI5xAaABn7Ysfs0/b15QX61EQ2gLAACAzp5tHYGIfEDy5Yvo5zXW28nmfpYCnUq4nwHhLgAwZ451AiKi05KCBa0jRCbC1RZjRadOtY5gKdwFgMycCfhzS00ioj+ULm2dIPHyZ2RAZs2yTmEp1AWAt0wlewGIyO9q1LBOEBGtWtU6wvFmzfI2LAqvUBcAnk8/tU5ARHRqKSmqTnA/r6VuXesIx/H9EsWxF9xfqGjhLwER+V5yMuDDh2g2qHvGGUDlytY5jua6EH72h74AEGfFCsDHq1QREQEA2re3TpAr4sfc06eLbNpkncJa6AsAAIB+8ol1BCKiU+vVyzpB7vTubZ3gOPr++9YR/IAFAADgnXesExARnVrHjuqWKWOdIifULVoU6NbNOsfRMjOBjz+2TuEHLAAAiLNoETBzpnUOIqKTy5cPcvXV1ilyRPr3B4oUsY5xtGnTxNm2zTqFH7AA+N2IEdYJiIhObfBgdfPnt06RHapJScBNN1nnON6LL1on8AsWAL/RceMAVoVE5GdVqkCuvdY6Rfb07w/UqWOd4mgrVgD/+591Cr9gAfArcTIyoG++aZ2DiOjUHnhAXT+urPcHdYsVAx5+2DrH8Z57ToSrv/6GBcCfyYgR3gARIiK/KlMG8swz1ilOSR57zH9z/3ftAvgl789YAPyJyOrVwNtvW+cgIjq1/v3VHTDAOsWJqPuXvwCDBlnnON6IEWFf+vdYLACOM3QoEOutPYmIIjV8uLqNG1un+DPVOnUgo0f7b/vigwc5+O94LACOIZKayrEAROR7UrgwZNIkdVNSrKMAgGqlSsDEiUDx4tZZjvfss1z573gsAE7okUeAw4etUxARnVrZspBJk1RtR9urVqsGfPUVUK2a9RU53vbt0CeesE7hRywATkCcdeuAV16xzkFEdHpVqwIzZqjbrp3F2dVt1sxbSK12besrcWIPPSTO3r3WKfyIBcBJPfgg1wUgomAoUwYybZrq7bfHa9tgVRHVwYMhM2cClSpZX4ETW7YMOnKkdQq/ymMdwK9Edu1Svesu4I03rLOE26FDwJYtwKZNwNat3p+0NCA9HThwANi376i/rgcOQI4cAZKToQUKQAoWhCYnA/nzQ0qXBkqXBsqUAcqV8/57oULWLSRrR44Aq1ZFdAhZtw6ang4pXNiuHXnzAk89BfTpo3rttSKLF8fqTOrWqgV9+WVIx4527c2Ou+8W58gR6xR+5bORmv6iKgJMnQqcd551lsS3YQMwf763NfOKFdAVK4Dly8XZujWWZ1UtVQqoUsXrRq1a1XuH2bIl0Lw5kCfwBbJIZKOxVVWt2xA7u3cDzz4LvPKKyJYtkR7NW/xmwADI3Xfbz4HPzPTmvD/yiEhqarSOqm7lypB77wUGDvQKDj/77DORoO6gSL6gWqeO6qFDSlF0+LDq9OmqDz2k7oUXqpYvb32fj7vvbuXKqi++qJqVZX21IhH5738iyshQffxx1diMVlctUED1tttU9+61bqlqZqbqxx+r+5e/qBYokLt/C/nyqXbrpu7YsapHjli3KFvc7dv9+LniN+wByAbVoUO9MQGUe8uXA598Ap06FTJzpsiBA9aJskO1e3fouHG2Xbu5xx6AY/3wA/Sqq8RZuDDWZ1L3jDMgr74KdOli3WrPvn3AtGnQmTMh8+dDV62CbNjw56VxVUWglSpBatYEmjYF2rYFOnXy59S+U7n0UpGxY61T+B0LgGxQN29e4JtvIK1aWWcJloULgQ8+gH70kbflcjCp9ugBjB8PxGdwVTSxAPizkSOBm28WOXQoXmf0BuTdd5+3wJhff3/27gWysrx8ycnWaSL3/vsif/2rdYogYAGQTV41v2ABUKqUdRZ/27sXeO896Jgx4sycaZ0mWtQdORJyzTXWOXKKBYDXCmDYMJGhQ+0S9OkDvPMOkLtueMquzZuBhg1Fdu60ThIELAByQLVXL+Djj/23zKUfLF4MPP008N57Qenezwl1q1SBrFnj329xJ8YCAAAGDxZ56SXrFF5P0ief+H/wXFBlZUG7dxdn8mTrJJSgVJ991np8i7/MnKnas6c3YyKxqX77rfXVzqnI2xx0Dzxg/Xtz9PW87DJV17W+Konpttus7y8lOHXz5VP3u++sf9XtzZun7vnnW9+PuN57HTHC+qrnVORtDrJPPvFjYar62GPWVybxjB5tfV+DKFDdmX4gTkYG0LMnsHKldRYbK1cCf/0r0Lx5+Lra9uyxTkDZtWYNtH9/ET++wrj/fmDWLOsUCUNnzwauvdY6RhCxAMgFcbZvB7p1C9dSwYcPAw89BG3QQOT99/35wRpriTBCOiT0+uvFOWaVSJ8QycqCXn21t0UtRWbzZkjfvvGc2ZFIWADkksiqVdALLgD277fOEnszZgBNm4oMHSpOmHdJbNHCOgFlxwcfiDNpknWKUxFn+XJvFULKvV27oN27i2zcaJ0kqHz3fixo1L3wQsjHHyfCsrHHO3QI+Mc/gBdeCOc3/j+oW6sWZNkyzgLwu8xMoEEDkWXLrJOcjrrJyZDVq4GSJa2zBM+ePUCnTiI//GCdJMgC9WHmR+L873/Qv/3N21AkkfzyC7RlS5Hnnw/7wx8AvPXPg/XwD6ePPgrCwx8AxElLA+ynJwbP3r3Qrl358Cff8Na0P3jQeixsdLz+umrBgtbX1C9U+/QJ6tStyNseMG779ta/Lzm6vm7lyoFZX98X9u5Vbd3a+r4RHUe1Uyd19++3/ieSe5mZqrfean0d/US1d+8gF3aRtz9I1q7147S/015jd/Jk6ysXDHv2qHvOOdb3K5Ek4HtrOyJTp6p27QpMmBC8EeN79kAvvdSPg6fUzZcPqFYNUrEiUK4ctEwZSJkyQP78QIkSQFIStFix339ADh3yRlgfPgwcOADs3g1NTwe2bgW2boXs2AFs2SKya9fJz1m7NuS++4ABA7jyY0Dohx+KE8DXVfLhh0DnztYx/C01FbjwQnF++cU6SSJhARBlIrNmeVXqxx97O2oFwbZtQNeu4vz4o2UKdfPkgTRsCDRuDJx1FrRhQ0itWt7e6n96/36ix/HpHtEn+P9V9+0D1q71PlxSU4H0dGipUpCmTYEmTfjgDxiZMsU6Qq7otGkcjn0KOmcO0KuXOFu3WkdJNPy1ixHVkiWh770H8ftqeRs3AuefL7JkSbzPrJqUBLRqBXTqBD3nHKB166Buu+tX4ZkFoAqULn2qXh0/U92yBShXzjqH/3zwATBggAjXTIgFFgAxpJqUBH3iCcjtt1tnObE1a7ypNGvWxO2auHnzAt26Qfr0AS68EChTxvoqJLLwFADr14tUqWKdIrfUnTIF0qmTdQ7/UIU+/jjkvvs4Cyl2+AoghkSysoA77lBdsAD68su++narq1dD2reP1yIaqmedBfz978Bll/GhT9EX8KW5ZeVKgAWAZ/Nm6FVX+XE8UqLhvOY4EHn7bUjDhtCvv7bOAgDQHTsgPXrE+uGvKqJu586q48cDP/wA3HQTH/4UG1u2WCeITJiWFT+ViROBpk358I8PFgBxIrJmjdfFd/vtpmuAa3o6cMEFsVwsRVVEtU8f4OefIZMne139HFBHseTPdf+zTQOeP2IHDwK33AL06CES9GIuOFgAxJGI64o88wzQpIm3g1W8ZWZC+vUTZ+7cWJ3BmwExZw7w0UdAgwbxbyOFk+taJ4iIZGZaRzCjU6cCTZpw1dH4YwFgQGTZMki7dtDrr/fmpsfLjTeKfP55LI6sbtmyqm+8AZk+HWjePH5tIgKAAgWsE0QmjCtvbtgAvfJKcTp3DsryzYmGBYARkawscV5+GVq7NvCvf3kL1sTSW2+JjBgRiyOr27cvZPFi4Mor2dVPNgK+oY4WL24dIX4OHAAefBBISRFn9GjrNGHGAsCYOPv2idx/P7ROHWD06Nh0ZS5eDFx/fbSPqm7Rot63/nHjgFKl4nG9iE6sWjXrBBGRqlWtI8ReZiYwZgy0Xj2RYcM4t98ev635jLft7I03AgMHAoUKRX7A9HRIixYiixdHNafWrAl8+ilQv77ZxaLTCs06AJqeDklO9qbeBo+6P/wAadLEOkdsHDgAvPYa8PTTIqmp1mmIfE/dMmVUH3xQdevWiPbPcAcMiH62889X3bXLemsQOr2I73WQuI0a2fxrjfQaFy6cmDsCpqWpPv+8aoUK1teYKJBUCxRQd+BA1Rkzcr4l7YQJ0c9z6aWqGRnWHy2UPZHf7yAZNMjmX2mk17hTJ+srFz2u631WXXutukWKWF9booShbpUq6t55p7oLFpz+H+K+fepG972iV4hkZlp/xFD2RXzPg8SNzQyXWPO+JQecu2SJ6tCh6taqZX09Kfs4BiCgVOvVA/r29bYRbdnS2xr3z265ReT556N3vquu8t7jcZR/kIRmDAAAb/vnChVEdu+2TpJdqo7j7ckRxH0MFi6ETpwIjB0rzrx51mko5/hhngBUCxYE2rQBOnQAzjvP2xmtQ4doDYhSvfhi4P33gaQk67ZSzoSrAACA224TefZZ6xTZpe6FF0LGj7fOkT3LlwPffgt88w108mRxNmywTkSRYQFAp6Ru+/becr758llnoZwLXwGwciW0Xj1xgrGynrqTJvlvy/A9e4BVq4Bly4CffoL++CPw44/icL+CRMMCgE5KtXp1b1lfbuATVOErAABg4ECRUaOsU5yOuuecA/nmG+scf1iyBNq+vTg7dlgnofjgQkB0QuoWLQpMmMCHPwXP0KHe769/ee/+//1v6xxHh1q0iA//cGEBQCcmL74I1KtnHYMo5ypXhjzyiHWKU9IbboC0bGkd4yiyZIl1BIovFgB0HNWrrwb697fOQZR7N9ygbteu1ilORN0GDYBHH7XOcbylS60TUHxxDAAdRbVaNWDhQoCLeCSCcI4B+C38jh2Q5s39tPysusnJkDlzgDp1rLMcr0kTkR9/tE5B8cMeAPqdqgh05Eg+/CkhSOnSwOTJ6pYrZx0F+HW6rnz2mT8f/q7rTfOjMGEBQH/QgQP9NyWJKBK1agFffKFu2bKWKVQLFYJ++CHQvr31FTmxlStFYr0lOfkNCwACAKiWKOHP95JEEZImTSAzZ1otU6tu6dLApEmQ7t2tL8XJQ06fbh2B4o8FAP3qwQe9LlOiRFS7NmTePNU+feJ5VtU2bSALFgBt21pfgVOSr7+2jkDxx0GABNUaNbwRwHnzWmeh6Ar1IMCTNmrcOGDIEHG2b4/ZKbRgQeDBB4E77gjGEtqVK4ts3GidguKLPQAE4IEH+PCn0JBLLoEsW6b6j3+oFioUzUOrmyePutdc4w2ou/vuYDz8ly/nwz+c2AMQcurWquUtAJInj3UWij72AJzOrl3QUaOAV18VJ/ej4FUrVQKuvBIYNAioXNm6VTkzcqTIdddZp6D4YwEQcqovvQRcf711DooNFgA5sXAh8Pnn0FmzIPPmiWzefPLrUrIktGlTSNu2QNeuQKtWgd0qWy+5RJwPPrCOQfEXzF9YigrV4sWhGzZAChe2zkKxwQIgksanp0NSU4EDB6BpaUCRIpBChYAqVYDixa3jRce+fUD58pwCGE7s9g0zveIKPvyJTkIKFwbq1/f+u3WYWPn0Uz78w4uDAMNMVq2yjkBElt591zoB2UnYupZOTzUpCVi7FqhUyToLxQZfAdDJ7d4NLV9enIwM6yRkgz0AISaSlQXlNwCicBo3jg//cGMBEHpvvmmdgIgsvPGGdQKyxQIg5MRZtAj45hvrHEQUT99+K/Ldd9YpyBYLAALw7LPWCYgonp55xjoB2eMgQIKq40CXL4fUrGmdhaKLgwDpeKmpQK1aIllZ1knIFnsACCKuC3n+eescRBQH+uyzfPgTwB4A+pVqgQLAihXBW8ecToU9AHS0PXugVaqIs2+fdRKyxx4AAgCIHDoEPP64dQ4iiiF99FE+/Ok37AGg36mbNy9k2TKgenXrLBQd7AGgP6SmAvXqecU+EXsA6E/EOXIEGDbMOgcRxcI//sGHP/0ZewDoKN6MgFmzIK1aWWehyLEHgAAAOmcOpHVrEd5P+gN7AOgo3oyAG24AOEqYKHHccQcf/nQsFgB0HJH584FRo6xzEFE0jBkjzsyZ1inIf/gKgE5ItVQpYNEioHx56yyUe3wFEHabNgENGojs3m2dhPyHPQB0QiI7d0KvvdY6BxHlliowcCAf/nQyLADopMQZPx54/XXrHESUGyNHinzxhXUK8i++AqBTUrdYMcjPPwNVq1pnoZzjK4CwSk2FNmrERX/oVNgDQKckzt690H79gMOHrbMQUXYcOQLt358PfzodFgB0WuLMnQvcdpt1DsqpaHx7Zw9A4OiNN3LUP2UHCwDKFpHhw4E33rDOQTnxr39FfoyHH7ZuBeXE8OHivPyydQoKBo4BoGxTLVQI+PproHlz6yx0Oh9/DPTtK+K6kRxFVQR47z2gXz/rFtHpzJwJ7dRJnIwM6yQUDCwAKEfULV0a8u23QO3a1lnoZBYvhrZuLc7evdE4mrpFikBmzQIaNbJuGZ3M2rXQ5s3F2b7dOgkFB18BUI6Is2MH0L07sG2bdRY6kfXrod27R+vhDwDi7N8P9Ojh7SZH/rN9O9CjBx/+lFMsACjHRFatAnr3Bvbvt85Cf7ZtG7RzZ3HWrYv2kUU2boSefz6wdat1K+nP9uwBuncXWbzYOgkFDwsAyhWR776D9ujBIsAv0tKAbt3EWb48VmcQZ+VK6IUXeg8dsrdnD9C5s7d3B1HOsQCgXBNnxgygWzeA841t7dkDdOsmsmBBrM8kzrx5QMeOwM6d1q0ONU1Ph/bsyYc/RYIFAEVEZNYs71th9N45U05s2wbt0EFk9ux4ndErNLp0YRFgZe9eoHt3rwAnyj3OAqCoUG3SBPj8c+4eGE8bNgBduogsWWJxdtUzz/TuOZeJjp8tW4ALLhD54QfrJBR87AGgqPC+FbZpA8TuHTT9iS5YALRqZfXwBwBv4FmbNsBPP1lfjlDQpUuB1q358KdoYQFAUSOyZg20eXPgf/+zzpLYJk0COnQQ2bjROonIpk3Q9u2h3HUutiZOhLRuLcKpmETkY6pJSeo+/bRSlLmu6uOPqyYlWd/j4++546j+619eRooq96mn/HjPiYhOSrV3b9Vdu6w/PxNDWprqxRdb39PT3/OLLlLds8f6aiWGXbtUL7rI+p4SEeWKavXq6s6ebf1RGmzffqtavbr1vcz+Pa9WTXXmTOurFmzffqsuB1cSUcCpmyeP6t13qx46ZP2xGiwZGapDhwax+1c1KUn1n//02kDZd+iQ6j33qJsnj/U9JCKKGnUbNFCdO9f6IzYY5s1Tt2FD63sW+T1v1Eh1zhzrqxkMc+ao1q9vfc+IiGJC1XHUHTBA3e3brT9u/Wn3btWbbw7it/6T3/OkJK9NaWnWV9efduxQ97rrVB3OyiKixKdumTKqL73ELuLfZGaqO3KkumXKWN+b2N3zcuVUX35ZNTPT+mr7Q0aG6osvqpYqZX1viIjiTt2UFNVx48I7fcx11f3wQ9V69azvRfzueaNGquPHW19503uu77+vbu3a1veCiMicuo0bq773nmpWlvXHc/weAuPHq9uihfW1t7vnjRqpO3ZseIq/rCyv8Dn7bOtrT0TkO16PwEsvqe7bZ/1xHRuHDqm++mqYvvGfjlf8vfaa6sGD1ncnNvbtUx0+XN2UFOtrTUTke+omJ6vecovqL79Yf3xHx9Kl6t55p7ply1pfW79St2xZde+/X91Vq6zvVnQsWqR6883qJidbX1siokBSPfts1eefV9282fojPUfc7dvVfeUVdc85R1W482Y2qYqoe8456o4a5c2KCJJNm1Sfe47d/EREUeStN9+2rbc2+rJl1h/1J7Zmjerw4aqdOiXSVD4r6ubNq26XLt5roY0bre/uiS1dqu6//63apg2n8lGQ8FsJBZa6Z5wB6dQJ6NgRaNkSsHjHun49dPZsyLRp0ClTxFm50vq6JDJv7ETHjsB553lbEVeoEO8E3pbXc+YA06ZBp04VZ8MG6+tClBssAChhqJYsCbRoAW3YEKhbF9KgAVC9OhCNufV79ngf/CtWQJcuhSxYAJ03T5ytW63bHWaqlSoBZ58NNG0K1K0L1K7t/SlaNPKjb98OXb0a+OUXYMkSYOFCyPffi+zaZd1uomhgAUAJT7VgQaBqVe/bYsmS0BIlICVLAiLegyJPHqjrQtLSfv9PpKUBW7YA27cDW7bwQz9YvAWVypUDKlYEypWDFCwIlCjh/b/FigFJSUBGBpCeDnVdYPduyK5dwO7dwObNwNq1IgcPWreDiIiIiIiIiIiIiIiIiIiIiIiIiIiIiIiIiIiIiIiIiIiIiIiIiIiIiIiIiIiIiIiIiIiIiIiIiIiIiIiIiIiIiIiIiIiIiIiIiIiIiIiIiIiIiIiIiIiIiIiIiIiIiIiIiIiIiIiIiIiIiIiIiIiIiIiIiIiIiIiIiIiIiIiIiIiIiIiIiIiIiIiIiIiIiIiIiIiIiIiIiIiIiIiIiIiIiIiIiIiIiIiIiIiIEtr/A9KAP0OkrVCPAAAAJXRFWHRkYXRlOmNyZWF0ZQAyMDIyLTA5LTI5VDA5OjIyOjE2KzAwOjAwgb76BgAAACV0RVh0ZGF0ZTptb2RpZnkAMjAyMi0wOS0yOVQwOToyMjoxNiswMDowMPDjQroAAAAodEVYdGRhdGU6dGltZXN0YW1wADIwMjItMDktMjlUMDk6MjI6MTYrMDA6MDCn9mNlAAAAAElFTkSuQmCC;align=left;fontColor=#ffffff;" vertex="1" parent="1">
          <mxGeometry x="-575" y="1301" width="120" height="50" as="geometry" />
        </mxCell>
        <mxCell id="nL-H-F1wq60gKDnkxpsh-24" value="" style="shape=image;verticalLabelPosition=bottom;labelBackgroundColor=default;verticalAlign=top;aspect=fixed;imageAspect=0;image=data:image/png,iVBORw0KGgoAAAANSUhEUgAAAgAAAAIACAYAAAD0eNT6AAAABHNCSVQICAgIfAhkiAAAAAlwSFlzAAAOxAAADsQBlSsOGwAAABl0RVh0U29mdHdhcmUAd3d3Lmlua3NjYXBlLm9yZ5vuPBoAACAASURBVHic7d13vCRVnffxzwSGOMOQo2SGLIqIooKKLhjXrI8B13Ux66oouroGRFdd14SuCTNmEEUxsJJkBckSJA1xAIEhzgxxGCY8f5w7y3jn3rndXafqd6rr8369fq9xn4db/a1T3dWnT1WdA5IkSZIkSZIkSZIkSZIkSZIkSZIkSZIkSZIkSZIkSZIkSZIkSZIkSZIkSZIkSZIkSZIkSZIkSZIkSZIkSZIkSZIkSZIkSZIkSZIkSZIkSZIkSZIkSZIkSZIkSZIkSZIkSZIkSZIkSZIkSZIkSZIkSZIkSZIkSZIkSZIkSZIkSZKkYJOiA0gNWBfYEtgKmDnyf68LrDfqv3sYuG+k7gFuB24B7gDmNhVWWWwIbEY65uvxyDGfMcZ/Ow94ELgXuA3428i/tzWSVApiB0DDZFNgH2B3YDdgZ2BHYHqGbT8AXAVcDVwJXAhcANyYYdsa3KN45JjvSjrms4A1Mmz7ftIxv4pHjvl5pE6h1Hp2ANRm2wH/ADwN2BfYOiDD7cBZwKnAKcDlwLKAHF2xM3Ag6Zg/Adg8IMMtwJ9Jx/xUYHZABknqlCnAU4EvAdeQvmhLq1uBbwDPBlavpxk6ZTXSF/43SKMt0cd3rLoR+G/gGcDUeppBkrppH+ArpOvw0Sf7fuoe4PvA04HJ2VtleE0idfS+A9xF/HHsp+4Cvg48KXurSFJHrA+8F7iM+JN6jroe+AiwSc5GGjKbAB8g3WcRfbxy1GzgfaT3siRpArOAr5LuxI8+gddRC0mjAnvlarAhsDvwLVLbRB+fOup+0iWMXXM1mCQNk12Bo4HFxJ+wm6qTSDeyddVewG+ApcQfiyZqCfBzYM8cjSdJbTcLOIZ0cow+QUfVb+nWl8LuwC/ozhf/6Fo6sv87VW1ISWqj9YBPM7zDvv3WEtIIyGZVGrVw6wNHkiZcim7vEuph0qWBjas0qiS1xSTgEOBO4k/AJda9wKGkRx6HxRTgnaQZ96Lbt8S6G3gTzssiaYjtAJxM/Am3DXURsPdgzVyU3UgTJUW3ZxvqzJH2kqShMRk4DIf7+62HgY/RzsllpgAfAh4ivh3bVA+RHh103ghJrbcp8HviT6xtrnNIoydtsRVwOvHt1uY6kzTVtSS10rNp30xupdYC4KX9NX+IF+O1/lx1N/Cc/ppfkmJNAt5Ptx/tq6OWkp6cKPEGQY95vcfcSwKSirc28EviT5zDXCeS1rYvxQzgBOLbZZjrV6TPliQVaQPStcvok2UX6lLStfZomwF/Ib49ulAXA1v0dlgkqTmzgGuJP0l2qW4kzaoXZRdgDvHt0KW6HmcQlFSQnYGbiT85drHmkZZLbtpeeINnVN1C6nBLUqhdgVuJPyl2uebT7KJCj8WZHKNrLmkERpJCPAa/CEqp+cDjV324stgbH/MrpW6iXfNDSBoS2+Mv/9LqDur9VbgD6Zdn9H5aj9RNpM+iJDViI2A28Sc/a+wvhDqeDtgCb/grteYAm4x34CQpl+nAhcSf9Kzx62JgnfEO4ACmA5cUsF/W+HUmsPp4B1CSqpoEHEv8yc6auI4nz+xxk4BjCtgfa+I6epxjKI2pxClFVa5PAG+ODqGe7EzqAJxWcTsfB95SPY4asCfwIGk0QJrQpOgAao2Xkn4J+p5pj2VUHwVYise8TZYCLyRNzSytkh9s9WJb4CLSnO9ql6qf8WVZUqhJ95BGA+YE51DhXGFKE5kK/Ai//KW2mAH8EC/xagJ2ADSRw4F9o0NI6suTgUOjQ6hsXgLQqjwROAN/SbSZlwC66yHSOhGXRAdRmewAaDzTgAuIXW1O1dkB6LbLSNM3L4wOovJ4CUDj+QB++UtttxvwwegQKpMjABrLzqS7/p1ZrP0cAdBC0hoRc4JzqDCOAGgsn8Mvf2lYrAF8OjqEyuMIgEY7ADglOoSycQRAy+0P/Ck6hMphB0ArmgycB+wVHUTZ2AHQcheSbghcGh1EZfASgFb0avzyl4bVY4HXRIdQORwB0HJTSI8M7RQdRFk5AqAVXQfMApZEB1E8RwC03Mvwy18adtsBL4oOoTI4AiBI74NL8Ln/YeQIgEY7jzRDoDrOEQABHIhf/lJXPB54WnQIxbMDIIC3RQeQ1KjDogMonpcAtDVwLS74M6y8BKCxLCON+l0eHURxHAHQwfjlL3XNJOCfokMolh0A/TU6gKQQr8HOf6fZAdCJwILoEJIatznw1OgQimMHQA8Bv4kOISnEq6MDKI43AQrgBcDx0SFUC28CHNy9pCV0HwTuAdYG1gIeBawfFyurBcBmpH1Ux9gBEMA04EZgk+ggys4OQO8uJo2GnUWaLOf2Vfy3M0lz6z8ZeBawL+0dUX0pcFx0CElxPkU62VvDVVVF56+7bie993eo2E6bAf9GGjGI3qd+66iK+y6p5bYCFhN/MrLyVlXR+euqu4D3A2tmaKMVTSatq3FtAfvYa12buQ0ktdBviT8ZWXmrquj8ddQxwIYZ2mZV1gAOJ91kG72/vdS2tbSCpNY4kPgTkZW3qorOn7PmAc/P0Cb92Ae4IUP2uuuQuhpAUnucQ/zJyMpXVUXnz1Wzge0ztMcgNgD+t4eMkfWT2vZeUms8j/iTkZWvqorOn6POBzbK0BZVrEl6wiC6Lcar2+rbdUltch7xJyQrT1UVnb9qXQVsnKEdcpgG/A/xbTJebVnfrqtEbX1uVfU6IjqAlMEdwDNZ9fP8TVpEekLgiugg49g9OoCaZQdAYzmB9EtFaqslpGlub4wOMso9pIl37osOMgY7AB1jB0DjeTfwcHQIaUBfBk6KDjGOy4EPRIcYw67RASSV48vEX5e0qlVV0fkHqRuBdTLse50mk6Ycjm6rFeu8WvdYUqusD8wl/sRkDV5VRecfpP45w3434SnEt9WKdT+OCneKiwENr9XIM4T/YlwopM26thjQ1cAupHsA2uBE4KDoECu4CbiGND3wNcBFwCXArZGhJK3a5qQ7jI8kPfd8Hemxoxx+QvyvE2uwqio6f7/1rgz73KTnEN9mvdRc0pLh7wGeCEytozEk9WYN4AXA9xl/qtE3ZHqtDfFSQFurquj8/dRCYL0M+9ykybRjquDRNY+0psLriZ9kSeqE5V/6PwQWMPGHdA75RgGeQxpWjT7xWP1VVdH5+6nfZtjfCF8kvu2q1GLgZOBNpPuGJGW0F/AdevvSH11vy5jj4wO8vhVbVUXn76fenGF/IxxAfNvlqoWkS4bPxHvMpIFNJq1cdhLVPpB3kRYjyZXpxIp5rGarquj8/VRbJ7JZi3TDbnT75a6rgXcCq+drKmm4TQfeRxq+z/VB/HzGfBuRnrOOPrlYvVVV0fl7rfuAKRn2N8pfiG/DuuoGUkdg7WytJQ2ZacDbSaty5f4APgTslDHroxnscoTVfFUVnb/XujjDvkb6GfFtWHfdCXyU9CNHEuk62ctIw2V1fvj+SN5rck8jXe+LPqlYq66qovP3Wsdn2NdInyG+DZuqm4GD8R6BcM76FOspwLmkx2l2qPm1nkp6ZCeXPwJvJM+XjFTVvOgAFc2PDtCgzYGjSee+fYOzdJodgBhrA18CTgf2bvB1/wvYNOP2jgbem3F70qAWRgeo6MHoAAH2Bs4Avg1sHJylk+wANG8/4ELgHTTf/uuRHifMOfT2edLKgVKktp/Lujqz3mTSyOSlpKee1KC2f2jaZAZwFOlX/46BOZ5N/uelv0jqBHg5QFHafmNZ2/NXtRHwa9Kook8LaKjsDlxF/M03y+t+0oIpub0ZWFTA/lmPVFXR+XutUzPsa6RvEN+GpdSlwJ7VmlMqwytIzyhHf6hG1yXU09N+Is4TUFJVFZ2/17opw75GOoX4NiypFgJvrdSiUqCpwOeI/yCtqn5c075vSHosK3r/rOqi8/daS2nvPPSTqGf+j2GoL9HuCZ7UQesDpxH/4eml6lw+9bWkx7Oi97HLVVV0/n7qeRn2N8JOxLddyXUi6R4qqXibAX8l/kPTay0CDqylJZItgGML2M+uVlXR+fupL2bY3whvJb7tSq+LgC0HbWCpCdsC1xD/Yem3FpCm963TgcCVBexr16qq6Pz91I20c3Y5r//3VjcDewzYxlKtdiHdiBT9Iany4XpU9lb5e6uRZg+8OXhfu1RVRefvt56eYZ+b9CiGcyXAuuo2YNeBWlqqyeNIC11Efziq1qWkG/jqthZwGHBLw/vXxaoqOn+/9fMM+9ykTxHfZm0rOwEqxo7A7cR/KHLVX4CZWVtofKsDhwCX17xPXa6qovP3W4upZ46LOqwH3E18m7Wxbqb+9VOkVdoUuJb4D0PuOovmZybbH/ghaU706P0fpqoqOv8gdVyG/W6Cv/6r1Y3Adn23upTBdNKv5egPQV11Ps1cDhhtXdLjgycAD/WR1xq7qorOP2g9K8O+12kXXE47R11FGkmRGjMNOJn4N3/d9VfSY41R1gVeQlpD4Xri26ONVVV0/kFrDun9U6KpwJ+Jb6NhqT/Q3cWUFOCbxL/pm6prSBOVlGBz4MXAZ0iTg+SccvhO4EzgGOAXwGWk68nR7V+1qorOX6V+TZmPBX6W+LYZtvpCX0dAQJkfjtL9E/C96BANmw+8Cvh9dJAxrAtsDWw1UhuO/L/NZOX7GBaQ7jG4h3Qn8c3ArcDVpA7AaI8C3gIcSrphsY2qfsaXZUkR5wjgo9EhVnAw8H0899bh9cB3o0NoeO1OWkkvurcbUYuBD9DNE9cuwHXEH4NBqqro/DnqHRnaIYd/xNUy66yFwL49Hw2pD9OBK4h/k0fXicDGFduyjbaknfMWVBWdP0ctBQ7P0BZVvAq//Juom2juMWZ1yE+If3OXUrdQ7/oBpXo28W3fb1UVnT9nfRtYM0Ob9GMKqfOxpELuumseaT6CYZmT4Fu9HBipVy8n/k1dYh1D9x7BOYv4du+nqorOn7suAh6ToV16sQ1lzfM/nzRHwqHA00ijWmNd0tucNC/HO4GfAXcVkL3fes6YR0Tq00zaOfTbVN1AurbZFW8nvs37qaqi89dRDwP/RX2d1zVJU13fV8i+Hgc8l8FvZF2NNOL3U9pzGeNm0rLsUiXfIP7N3IY6gW7MyvV44tu6n6oqOn+dNY80PJ9rrot1Sb+aS1jsahHp3JV7ga/NgS/Rjkm6fpR539Ux+5FuIIp+I7elHiKddDYapLFbYgfi27mfqio6fxO1CHhXxXb6R8r4xb8MOB3YueL+TGQ70gQ80fs6UXXxXiVlsDre9T9o3Q28H1in71Yv3+7Et28/VVV0/qbqyxXbqYRLQw+RRiCafFT3jZS9fsfFpBsxNYbJ0QEK9mbq70UPq/WAT5OmY/0ww/VYzh7RAaQx3E66se9I0hdfU44Cngz8rcHX7MejgddFh1C7rA3MJb73Oiz1IOmJgWf2cxAK9XPi27Ofqio6f1PV5hGA60nLkkfaGphN/HEcq24mndM1iiMAY3snsEl0iCGyBvAy4CTSKoNvoJ2XB3aiW088qHy3AE8nTWcd6YaRHNcH5xjL5sB7o0OoHWYyPBNilFwLSMOHz6X5yVkGMQ34E/Ht1m9VFZ2/qWrjCMC9lHdJahZlnj/vxR91K3EEYGWH0b3JbSLMII0E/Ia0EM+vRv7vyOWHx7MGaSbIp0QHkVbwFtKS3SW5irTg0dLoIKOsA7w1OoTKNoO0Ulx0b7XLtZR0meBLpJUXdyP2Lt6nAZcS3y6DVlXR+Zuqto0AfLdi3rp9mfhjOrpupx2jjY2ZGh2gMK9l5SVk1axJwONGarn7gAuBC0i/eK4fqb+RVimsahpp7oJNR2pj0t3DB4z8K5XkDsq/pv1B4AXkn4ioio2A1wDfjA5SCjsAj5iEQ0SlWoc0KdN+o/7fl5FOhneO/PsAqbPwIGlpUEjzOaw18r/XJV32mk56768DbAhsUGN2KbcjSPPzl+xe0iPA3wvOMdp7SItClXaJIoQdgEccQFr3Xe0xifRrvYvLE6ubbiDdPNsGPyRNCFbSeXUn0uyAJ0YHKYE3AT7CX/+SSvdV0tTFbbCEdC9Pad4eHaAUdgCSzfH5bkllWwR8JzpEn35IuhxQkgPxsh9gB2C5l+HlEEllO5l0v0ub3Af8PjrEKKsBL4oOUQI7AIlvBkml+3V0gAH9KjrAGF4eHaAEdgDSXeBPjg4hSRM4PTrAgP4YHWAMB+DNw3YASL/+Hf6XVLIFpFn22ugWylstcAqO/NoBwDeBpPJdRbufXb8yOsAYXhodIFrXOwBrk4aCJKlk10UHqGhOdIAxPIWOTw3c9Q7APqSZ4iSpZHdEB6ioxKcX1qDj9391vQPwpOgAktSDhRP/J0V7MDrAODo9Atz1DsC+0QEkFaHq7HrTsqQYX46VHbWyTn8HdLkDMAl4QnQISUW4p+Lfz8iSYnxtX6W01PyPp8NPgXW5A7AzaQ4ASbq74t/X3QHYqObt163Uc+3alLVYUaO63AHYOzqApGJcXfHv6+4A7FDz9utWcv49ogNE6XIHYMfoAJKKMbvi32+aJcX4diTNYd9Gk0gjrqXaLTpAlC53ALaPDiCpCHOp/pz6rAw5VmUt4LE1v0ZddqLcSwAAu0YHiGIHQFLXnUa1u+ynAdtmyrIqT2vgNerw9OgAEyj58kStutwB2C46gKQinFDx77enmTvJX9zAa9Sh9NxbRweI0tUOwHTaf1etpOrupfpytY/LEaQH+9C+kcvNKH/kYjqwfnSICF3tAGwTHUBSEX4MPFBxG03NJjcJeGtDr5XLm2jHc/abRweI0NUOwMzoAJLCLQY+k2E7TU4n+y+059fqOsBbokP0aIPoABG62gFYJzqApHDfp/oqezvQ7DXkdYH3N/h6VbwL2Dg6RI/a0qnKqqsdgLWjA0gKNQ/4YIbtRNzg9q+kR+tKtjXwvugQfVgvOkCErnYAHAGQuu0w4PYM23lthm30aw3gW5R7/p4EfINy5/8fyxrRASKU+gaqmx0AqbuOAb6dYTt7ETeL3FOAw4NeeyLvAw6KDtGnuldzLFJXOwBrRQeQFOJC4JBM23pdpu0M6t+BFwVnGO0g4BPRIQawenSACF3tADwYHUBS464FnkN69r+qjYDXZ9hOFZNJjzE+LTjHck8EjqMdj/2NtjA6QISudgDujA4gqVFXkKaknZtpe++mjJuJ1wB+S+rYRHoqcCJltMkg5kUHiGAHQNKwO5V0zfymTNubCbwt07ZyWAs4Hnhz0Ou/lvTlv27Q6+cwPzpABDsAkobVEuAI4EDg7ozb/RAwI+P2clgN+BrwI5p7pG0G6WbK79P+u+g72QHoqh1Iq39Z1rBXVdH5B62zSXfp57Y7sKiA/VtV3Qq8kvQ4Xl1eTBpRid7XXLVH3uZph66OAKwZHUBSLS4GXg48CfhL5m1PAr5C+rVdsk1JNwdeALwQmJJpu5OBZ5M6V8cBW2babgkWRwdQc/YhvsdpWU1UVdH5e6n5wHdIN/nV+av3jQXs6yB1A/CCivv+TOCaAvalrtqnYvu0Uhsf18jBeQCk9rmH9AjfrcBs4FLgdOA86v8FtwfwxZpfoy5bkR7Rq7Ls8d60bynifrRp1sJs7ABIWpU6f1G3xdrAz/DS4TDr5OywXe0AbB0dQH15GPgF8HvgctKvvY2BfYGDge3iomnITSLd6b5LdBDVqpPLAXe1AzArOoB69gfgDcCNY/z//Q/wcdKa45+mvZOQqFyfBV4RHUK1K311xVp09SmATh7sFvo68CzG/vJfbgnw36SblDo5m5dq837g0OgQakQnR3jsAKhUJ5FmW1vW439/NvDP9cVRx7wD+FR0CDUmalXHUF3sAGwAbBMdQqu0GHgrsLTPv/sV1e50liaRVrP7Et4A2SXb0MFLiF3sABxAN/e7TU4kPXM8iM/lDKJOmQocRVpmV90ymXJWVWxMF78ID4wOoAmdWOFv/wRcmSuIOmNL4DTgkOggCnNQdICmdbED8MzoAJrQ7Ip//8MsKdQVzwTOJ60YqO56VnSApnWtA7AbXv9vg36v/Y/2gwzb0PBbn/SkyR+ATYKzKN6OI9UZXesA/Et0APVki4p/fyNwQo4gGkqTSGvYXwG8CW/20yMOjg7QpC51ANYgfehVvhxDsd4MqNEmAf8InEtaw37j2Dgq0CGUv9pjNl3qALyUjk732EIvpPoslX8CzsmQRe03lbRE8IWkx0T3jo2jgm0GPD86RFO61AF4S3QA9Wxj0uOaVX08wzbUXnsBXwD+RlrMZ8/YOGqJznxXdKUD8FzgSdEh1JdXZdjGb0mPdqkb1iUN8R9Jur5/AfAuvMFP/XkmsH90iCZ0YTGgycAno0Ooby8G/pW0BnwVHwT+jDd6DYMZpGVbpwMzgW1J03rvPFJ7AFPC0mmY/CfpR2OvU5G3Uhc6AK8BHh0dQn2bDvwT8OWK2zkb+B6uEzCooT4BSuN4IvAS4OfRQeo07JcApgNHRIfQwN5Onl/u7wVuy7AdSd3xSWDN6BB1GvYOwOeBraNDaGCzyDM7192kzoQk9WpH4NPRIeo0zB2Af8R5vYfBhzNt5+ekhV6kLlpc8e+7cLl4LO9giNePGdYOwMZ4sh8W+5JvkY53AX/NtC2pTareTDsjS4r2mQR8lyGdQ2YYOwDTgJ/ioz/D5GOZtvMg8AK8H0DdM7/i30/PkqKdNgd+whDOEDhsHYBJwHeAp0cHUVZPIN2Rm8P1pE7Ag5m2J7XBdRX/vqsjAMv9A2n66KF6nHjYOgD/Abw6OoRq8TlgrUzbOofUoXgo0/ak0lVdYnujLCna7ZU4u2ix3kR6Ztka3sp1KWC5ZwMLC9ivOquq6PxW9bqF6r9c5xSwH6XUm6o1pXJ7Puku1+g3hlVvPUB6NDCnp5MeE4zet7qqquj8VvX64UpHtT9rAksK2I9SajHwokotWohhuATwBNJNf04BOvzWJM3ql/NYnwY8mXRvgDSMTqz497MYju+KXKaQOlVPiA5SVdsP6mbAL8h3bVjl2xc4LPM2rwAeCxybebtStPuB4ytuw1UUV7YW8Etgi+ggVbS5A7AG6Y29eXQQNe5w0hd2TguAVwDvJF1qkIbBscB9FbfhU1Vj2ww4jvRdpIZ9h/hrQVZcXQusRz22A04qYB9zVFXR+a3Bawmwy8qHtG83FLAvJdc3B29aDeLlxB90K75+Q72jWM8Hri5gP6tUVdH5rcHrJ2Mcz37tUMB+tKH+36ANrP5sTxqujT7gVhl1OPWaBryZNJFK9L4OUlVF57cGq/uArcY4nv16TwH70oaaTxo5VI2mAGcRf7Ctcmop8HrqNxV4FXAq7Xokqqro/NZg9d6xDuYALipgX9pSZ9Du++qKdxjxB9kqrxaTVn9sypbA+4GrMu9HHVVVdH6r/zqFPI/K7l7AvrSt3jVQSwdp07zGOwIXk54Fl0a7D3gO8KcGX3MS6VngA4EDgCcCqzf4+mNZRrpc8ZeRqrqe+bLKidSk60nvyTsybOuzpEsA6t0DwKNJNykXr00dgJOBZ0SHUNHuA54L/G/Q669FmlToqcBuI7Ud9U1SdSfpRDObNFR74UgtyPgadgDa407gKVSf9x9gXdL0vzMzbKtr/kC+Jcxr1ZYOwEtxkhb15n7Sl/DF0UFGrA7sRJpNbTNgQ9LCKpuSllidycqfw6WkL/EHSAsW3T5StwBzR/69lrxf9OOxA9AOtwLPAi7JtL0PA0dk2lYXvRD4VXSIibShA7AmcDmwTXAOles60gjRmcDppOeWlYcdgPJdQbr8NSfT9tYZ2dYGmbbXRdeT5mBwxdGKPkj8jR1WWbWUdMftW3GZ0rpFH2tr1XU06Qs7p48WsF/DUO/ut+GbVvoIwHqkX3dehxLAlcAPgB+T79eOVm1ZdACN6SbSHee/yLzd7YBL8WbrHO4kzVtzT3SQtvok8b04K77+TJqVr/QO6zCKPvbW39cdpFHRtVd10Cr4TQH7OEz1sf6aX8utT+o5RR9AK67OIH3xK070e8B65JLXm6jvix/SzdbR+zpsdTcwo5+D0KSp0QFW4a2ku6TVPZcAbyOd9KSuuY80ydSlwGmkiX1uqvk1twGOqvk1umg90lTin4kOMpZSh1TXJF3j3Tg4h5p1D/AR4Cuk2f0U73HRATpiIXDvSM1r+LWnkSbQ2qfh1+2KucDWwKLoIG3xeuKHbqxm68ek5+QlNetLxH/+h71e1fPREOcRf8CsZuoB4A1IivB24s8BXagzez0gXfc44g+W1UxdAuyMpAivId1gGH0e6Ert2dthaU6JSxf+c3QANeJbpEVLrowOInXQC4HvUO59YMPotdEBSjcVuI34nppVXy0FDkdSlH8CHib+XNC1mkvZT96Fey7xB8mqrxYDhyApyodw2D+yDpz4EDWntN7IS6MDqDYPAa8EfhkdZJTppGegtwA2Gfl3U2Bz0pKo65Eek1p7pKaRHueZT1p692zgrJH//XCz0VdpNdL9FX+NDqIirAN8HXh1dJCOezFpueAilHT9ZwppSUsXdxk+D5Fm9DspMMMk0pK8jwf2BnYjLdP7qEzbfxA4nzR5yxWkextmAzdm2v541id1YLYl7d8ewO6kL//VKOszrhi7AseQ3vOKdRvpx8XS6CBQ1snhKaTJKDRclpJ+dfy04dedDDwaeDpwALAf6Rd90+4jTWo1d6RuB24Z+Xch6bLIvSP/7QJSR3gd0mdz+SJY65E6xhuM1Iakk8i2TLxPJX3G1azVSAsGHQGsEZxFj3gSadRQKziC+OszVv46lOZMIXUkjwRuzrwfbS11036kyz/R7z9r5frIKo5bZ51M/IGx8tbnacYs4LOkX9XR+1xaqVt2A36CN/qVXKePe/Q6aippGDT6wFj56jfUP8/E80j3FXiyG7/UDY8FjgOWEP+es1ZdD1Hvqo6tszfxB8XKV7eR7qSvyzOBcwrYzzaUhtdM0uQydoLbV08d43g2rpTHAJ8cHUDZLCVNMTq3g347SgAAHudJREFUhm3vCnwN2L+GbUttsBPpptaDgGcBq8fG0YCeQAGXAuwAKLfPkf9xv9VINxN+DE946obpwPak+1tmka7t70eap0Lt94ToAFDOI0LXk55lVrv9lXQ5J+e617NI1zZ3z7jNLqn6GT8/SwpNZA3S458zSEP7pZybVY9rgR2iQ5TwJptGWhJ2SnQQVfZS0pd1LgeS5g9YL+M2u6bqZ9z7CKT8lpJGeR6IDFHCaoDb4pf/MLgH+FXG7b0D+B1++UsaPpNJ93OEh4i2fXQAZXEOaVa7HN4CfAk7hpKG16zoAHYAlMudmbbzauC/M21Lkkq1VXSAEjoA20UHUBY55ho/APguZbwvJalOdgCwAzAsdqn49zOB75Ee+ZOkYZdrJdKBldAB8Cav4bAzaaKeQX2ZAj4QktSQDaIDlNABcE7k4fGuAf/uJaTZAyWpK9aPDmAHQDn9C/C0Pv9mM+Dr+aNIUtHCR7/tACinycAvSbMB9mIT4A/AhrUlkqQyrRkdwA6AcpsJnAEcxvhv8EmkWQMvxCl+JXXTtOgAJUwFvAjv/B5WdwLHA2eTZgpci7SoyYtx/oemOBWwVKYlBC/IV0IH4GHKWZVQGjZ2AKQyhXcASrgEcH90AEmSGvZQdIASOgD3RQeQJKlhOZdNH0gJHQBHACRJXbMwOkAJHQBHACRJXXNXdAA7AJIkNe/u6AAldAAWRAeQJKlh86IDlNABuD46gCRJDbspOkAJHYBrowNIktSwG6MD2AGQJKl5dgCAa6IDSJLUsKuiA5QwFfDqpLkApkQHkYaQUwFL5VkKzCB4HpwS5uB/iHQzxDbBOSSt7ILoAB2xBmll1HVJXwz+IBpucyhgErwSOgCQTjLbRIeQtJK9owN01BrAjsAsYCdgF2B/YKvIUMrmougAUE4H4EzgJdEhJKkQC4G/jtSKtgcOAA4CnkvqKKh9zokOAGXcAwDweODc6BDSECrlM6781gVeABwMPAOPdZs8Ffjf6BClvGGmkmZFWic6iDRkSvmMq157Ah8EXkoZT3dpfIuA9SngHoBS3iiLKWRIRJJa6GLgFcCuwA/x6Y2SnUMBX/5QTgcA0n0AkqTBzSZdEtgHOD84i8Z2cnSA5UrqAPwhOoAkDYnzgX2BQ4EHg7Po7xXTASjp+uAk0rORPuYi5VPSZ1wxdgGOAXaPDiJuAzYnTQQUrqQRgGXAL6JDSNKQuYJ0SeCb0UHE8RTy5Q9ldQAAjo0OIElD6EHgjcAH8AbBSMdHB1hRacODXgaQ8irtM654rwW+BawWHaRjbge2ID31VoTSRgCWAcdFh5CkIXY0ab6Ah6ODdMxPKOjLH8rrAAD8KDqAJA25XwOvo6Dr0R3w/egAo5XYAbgAOC86hCQNuR8D74gO0RGnAxdGhxitxA4AwNeiA0hSB3wV+EJ0iA4oso1LvUFoTdLNgBsH55Darupn/HFZUmgiC0nTwy4A5tPsnfqrkX6h7tvga3bJ1cDOFHi5pdQOAMCHgI9Hh5Barupn3EfGmvcAcBVwKfBH4BTSD6I6bUUaol6/5tfporeRRlqKU3IHYF3ghpF/JQ3GDsBwOAv4wUjdV9NrvAgnY8vtLlLn6oHoIGMp9R4ASENhRfaaJKlh+5LOh3OAjwDTa3iNXwIn1LDdLvsKhX75Q9kjAAAzgWtxWEoalCMAw+lm4N3knz11W+Ay0n1YquYuYHvSj9kilTwCAOlmmP+KDiFJhdmCtMDPj8g7GnA98MmM2+uyT1Hwlz+UPwIAsBZwObB1dBCphRwBGH6zgecA12Xa3tqkSw0bZtpeF80hrcK4MDjHKpU+AgDp+sl7o0NIUqF2As4A9sy0vfuBL2baVle9m8K//KEdIwDLnQgcFB1CahlHALrjTmA/4MoM25pBegprZoZtdc1JwIHRIXrRhhGA5d5C6plKkla2IfB7YJMM27oH+HaG7XTNA8Bbo0P0qk0dgOuBj0aHkKSCbUNadW5Khm19N8M2uubfgWuiQ/SqTZcAIL2pzwCeGB1EagkvAXTT+4HPZNjOhcBjMmynC84E9qfAKX/H06YRAIAlwKtJw1OSpLF9lDxPTh2dYRtdsAB4LS368of2dQAgPeryhugQklSwtcgzh8qvM2yjC95MvscwG9O2SwAr+g7wz9EhpMJ5CaC7lgJ7kOZRqWIOzsOyKt+ipT9K2zgCsNxbgXOjQ0hSoSYDh2XYzqkZtjGszgXeER1iUG3uACwEXgjcEh1Ekgr1MmCdits4LUeQITQXeDEtmPBnPG3uAADcCryEgldbkqRAa5OW+a3i4hxBhswDpB+gN0cHqaLtHQCAs4GXA4ujg0hSgZ5V8e+vpmV3t9dsCfAa4JzoIFUNQwcA4LfAv0aHkKQCHUC1m0EfBG7KlGUYvAP4ZXSIHIalAwDwNeA/o0NIUmE2BbasuI2rcgQZAp8kfdcMhWHqAAB8APhBdAhJKsysin9/R5YU7fZj4EPRIXIatg7AMuAQ4JToIJJUkO0r/n3XZ1/9H+B1DNm8GMPWAQBYBLyS9IiGJAnWrfj392ZJ0U63kKagfzg6SG7D2AGANFz1OoastyZJA5pR8e+7OgKwDHg9cFd0kDoMawcA0pDNt6JDSFIBplb8+64+Zv0l0nfJUBrmDgDAocD10SEkSa1zLenG8qE17B2A+4B/jw4hSWqdD5LmQBhaVYeF2uCnwHuBvaKDSC1U0oqh00nz2q8NrE9aoW4nYOeR2pNunNNUv3OBY6ND1K0LH5ZlpFGA30cHkVTJvfz93eijVwOdDuxPmvnuQGD3hnJp+LyPDtxEPuyXAJY7EfhTdAhJtbqXNC34e4A9SCMCn8dHgtWf04DTo0M0oSsdAICvRgeQ1KhLSJ2BLUnL4l4YG0ct8fXoAE3pUgfgFzidpdRFS4CfA48DngucFRtHBZvLkCz004sudQAWAUdHh5AUZhnwO+BJpCXEb4uNowJ9myGc8W88XeoAQDq4knQs6cmBr+Ja93rED6MDNKlrHYArSJM7SNJ84G3AP+CNgkqTxl0ZHaJJXesAAJwcHUBSUU4lPTFwUnQQherco+Jd7AD4IZc02u3As+nQHeBayYnRAZrWxQ7AqaS7giVpRUuAtwBHRAdR45YBf4wO0bQudgDmAddFh5BUrI+S7g0Y+png9H9u4O9nmeyELnYAAK6KDiCpaF8F/jU6hBpzeXSACF3tAMyODiCpeP8NfDY6hBpxWXSACF3tADgCIKkX7wN+HB1Ctevkd0JXOwA3RAeQ1ArLgDfS0SHiDrk7OkCELiwHPJYHogNILVHSjXD3AvcDt5B+sf2VtGrbudQ7fev9pKmDzwXWqvF1FKdzNwBCd0cAHowOIKlv04FNgb2A/wf8B3AGcBfwPeAAYFJNr30Z7b0p8AaqL4B0PnBNhiyl6mQHoKt2J/2ysaxhr6qi8/dblwCvpJ4fN5NIa8VH72OvdT7w/IxtMQk4CPhzAfuWu3bL1EZqgR2If8NZVhNVVXT+QetcYO8M+z/arqSVRaP3b1V1M+mSRV2jIQAvII0sRO9rrnpM3uZph65eApgRHUBSrR4PnA18HJiScbuXA1/IuL3cjiZ1Uo4hfbHV5VekX81H1fgaTZoZHUDNOZD4HqdlNVFVRefPUX8ENsjQFsvNJK0kGL1fK9ZDwBsy7mM/Xk26sTq6DarUC7O3Sgt0dQRgw+gAkhrzVOBPwFaZtjefNElQKe4nfYF9M+j1f0S6AfOuoNfPoZMjAHYAJHXBLqQb+DbNtL0vkr54oz1IWsUweinbs0dytPVuejsAHbJmdABJjduOtORrjnuA7gS+nWE7VSwFXkEa3SjBecCLqHdOhrqsER0gQlc7AE4EJHXTnuQbKv9epu0M6mPACcEZRjsF+LfoEANYFB0ggh0ASV3zcvLcMHchaTbCCKcDnwh67Yl8AfhddIg+PRQdIEJXOwAlXLuTFOczwCYZtvODDNvo14Ok9QmWBrx2L5YBbwbuiQ7Sh4XRASJ0tQPgCIDUbTOBT2XYzi8ybKNfR1L+6nU3Af8ZHaIP86MDROhqB8ARAEkHA9tX3Ma1NLu66DzS6EUbHAnMjQ7RozY/wjiwrnYAFkQHkBRuKvC+DNs5NcM2evVtUiegDe4HvhYdokedXA64qx2AJnvsksr1Sqov8dtUB2AZ7flCXe4o2vFY4M3RASJ0tQNwB+2dsEJSPtNJz65XcUGOID04G7iuodfKZS5pAqaS3YeXADpnTnQASUV4XsW/vxZYnCPIBCJuOMyh9NydHRHucgegbT1pSfV4GtWWzl0EXJ8nyir9sYHXqMMfowNM4NroAFG63AFo4gMrqXybAttW3MbsHEFW4QHgoppfoy5XkaZOLtXl0QGidLkDcHV0AEnFmFXx72/LkmJ8V9HMZYY6LAOuiA6xCnYAOujc6ACSirFjxb+ve9a7a2reft1KHmaPms45XJc7ABfjjICSkvUr/n3dHYCSh9B7UWr+B4BLo0NE6XIH4GHgL9EhJBWh6hLBdXcA2v7Ycqn5z6e9l1Yq63IHANJztZI0reLf172cbJWnFDS+Tn8HdL0DcE50AEnqwZrRASqqOttiXU6JDhCp6x2AMyh3SU1JWm7D6AAVlZh/EXBmdIhIXe8AzMVRAEnl2y46QEVbRwcYw5l0fGXYrncAAH4VHUCSJjCLdp+vd44OMIbSpyiuXZvfULl0/k0gqXjrUuaXaC8eBWwZHWKUpXjutwNAmhGw5FmqJAlg/+gAAyox9+nALdEhotkBSI6PDiBJE3hBdIABvTA6wBh+Fh2gBHYAkh9HB5CkCRwAbBQdok/TgWdFhxhlMfDL6BAlsAOQXEp6JFCSSjUNeH10iD4dDKwTHWKUU4Hbo0OUwA7AI74eHUCSJvBWYPXoED2aAvxrdIgxfCU6QCnsADziWOwVSirbVsAbo0P06GBgp+gQo1wN/CY6RCnsADxiEfD96BCSNIEPU+bMeiuaAXw8OsQYvoizv/4fOwB/7+t0eGUoSa2wEfD56BAT+BTlPft/N/7I+zt2AP7edcCPokNI0gQOBl4bHWIczwfeEh1iDF+n41P/jmYHYGWHU//SnpJU1VeBPaNDjLITcDTlLV/8IN78txI7ACubg8NEksq3NvAH0joBJdgCOBGYGR1kDF/Amf9WYgdgbJ8AHooOIUkT2JjUCYi+234b4LSRf0tzB/Cf0SFKZAdgbDcC34wOIUk92Br4E/CUoNffmzSR2o5Brz+RjwH3RIcokR2A8X0U5wWQ1A4bkWa4ew/NndcnkSYmOoM0/F+i2cBR0SFKNTU6QMHuBt4HfC84R9ctBOaSrt/dNlILSHfzPgDcO+q/fwB4mLR86hrAmiP/e3XSs9Mbkk6Wm4z877Vq3wOV7mHg2orbuJH0nly7epyBrQZ8FngRabKgy2t8rR2Ab5DWJyjZ+0nHV2Mo7U7N0kwCTgGeHh2kA/4GXEBamvnqkbqK9IVfpw1Is6ttPVLbAE8AHs9wdJCrfsaXZUlRpnmkm8O+SepkVjWD9Gje+4l/Bn4x6WbmT5BubM5lS+CDwCGkDkfJfk17V1BUIXYi/QpdZmWrh0jrcX8MeB6wac9Hozlbkh4bWkJ8e1WpqqLz11GLgE9T393qawCHkq47R+/r8pXvnj+SaxDTSCv6HUP6NR29T73UHZR5XlELHU78G7rtNZt0J+6BtGvY/dnAfcS336BVVXT+3HUBsEeGdunFo4D/aWCfeq17gOOB95JGNbdi5fsFJpE6v08F3g38nDRSEp2933r5+IdF6s9qwFnEv6nbVpcAHwF277/Ji/Ic2jsSUFV0/pz1DQb/FTyoyaS5+0t+/ywg3fM0v4AsOeqnPR0ZqQ+PAu4k/s1dei0gnWijHkmqy1HEt+0gVVV0/hy1lDSKF+lFpNnootti2OsW0n09UnYvIJ1Mot/kJdZlwOtp1/B+P7ai7F9x41VV0flzVCnz0j+HdP9BdHsMay0G/qHnoyEN4AvEv9FLqjOAf6QbT5T8mfj27reqis5ftT6coQ1yeiX+iKirDu3jOEgDmYb3AywDzqd7ve2vE9/u/VZV0fmr1PGU2TH9FPFtM2x1dF9HQKpgI9Jz6tFv+oi6GngFZZ5Y6/Zp4tu/36oqOv+gdR0wPcP+12EKaeQsuo2Gpc6i+Zs71XHbkyapiX7zN1ULSTdSrZ6h7drqa8Qfh36rquj8g9aBGfa9TrNIs1ZGt1Pb6xbKnYZYQ25v0lS00R+Cuut/gV0ztVmbXUD8sei3qorOP0gdm2G/m/AfxLdVm+suYM++W13K6Hm0Z3asfutB4J10c7h/tB3wKYA21MPEL43bq3VJX2LRbdbGmgfs1X+TS/m9jOF7vOdS4NE5G6nlvkP8MRmkqorO32/9LMM+N+kTxLdZ22oBsM8gjS3V5XkMz0Qf3yWtoqfkRbT30a2qovP3W/tn2OcmbcnwjiDWUfcA+w7U0lLNnkG7541fTJr/W494Ie3u2FUVnb+fuoF2Xq46ifi2a0PNB/YbsI01hmFY7rQkpwAHAb8lXd9rk/mkx/v+EB1kDNNIy/RuDmxCegxzI9ITCeuRHquascJ/v5D0pf0Q6U7reaS12m8bqTtJy7/evYrX3BH4d9Lyrm38Uumi48jT6WnaccAzo0MUbg5plPWy4BxDxQ5AfmeSeqm/JD0q2Aa3kzouFwXnmEpaqW1P4DEj/3sH0jDp6FXLcriX9KtxzkjdT5pHfC/gsfjF3zYnRwcY0KnRAQp3Dmka9tuig0i9Wp/0azp62Gyi+huwS01tMJEpwJNJKwaeRLsvn5RaVUXn77WWkj5zbTWX+DYssY7F+5HUUlOAzxL/IRqvrgO2rW3vx7Ya8HzSXfW3V8hu9VZVRefvtW7MsK+RTia+DUuqpcAncRROQ+DVlPfr9lqanUHrMcCR+KXfdFUVnb/XavswehvXmairbqH8mRylvmwLnEb8h2sZcAfNTJYyiXRz0wm09zG6tldV0fl7rR9n2NdIRxDfhiXU74FNK7alelTHjVUa2/WkxwTfQ7pDPcr9wHOB2TW+xiTSs/OXkK7tPw+H8lSve6MDVNT2/FU9CLwLeA7pfgg1wA5As5YCnyfdYX52wOsvBl4OnFvja+xHumv3F8DuNb6OtKKl0QEqWhwdINAppHPikeQZtVKP7ADEmA08BXgzzT7a8g7gdzVte2Pge8DpwONreg1pPG1fDraLd7r/Dfgn0mXCOkckpWJNJ80Hfj/1Xlv7QY378FLS5DrR1w+tlauq6Py91q8y7GukzxDfhk3V/aRHf7vY6ZHGtCXwfepZce4yYO0aMk8n/eqPPqFY41dV0fl7rYsz7GuknxHfhnXXw8DRwFaZ2kwaOjuQroXlGhG4D9i1hpzbk1YMjD6pWKuuqqLz91r3kebdaKu/EN+GddX9wJdJ03lL6sFGwEdJ9whU+fC9toZs/0CaRz/6xGJNXFVF5++n2rp89doM54qAC0g/ZjbL11RSt6wBHAL8if6fpf9tDXleASzqM4cVV1VF5++n3pJhfyM8g/i2y1VLSeeqNwLr5Gwkqeu2Ag4DLmTiD+K9wNaZX/8Q0uNK0ScZq/eqKjp/P1XXEy51W/74W5vrCuBw0iVMSTXbBfgw6bG7haz8gXxn5td7Hc7m18aqKjp/P7WQtDx0m0wmrUgZ3XaD1CWkpxf2zt4qknq2JmkY8ePAGaQhuJw3RL0Ef/m3taqKzt9vvTvDPjfpecS3Wa81G/gu8M+kp5bUck7PqonsT5rOd1p0EA2k6mc8RyeiSdeQRsfaMrPeH0g31ZZkPmmxsNmkxysvGqnbI0NJata2uHpf26uq6PyD1L9k2O8m7Ed8W61YlwMb1rrHklphOumEEH1SsqpVVdH5B6mbSO/fkk0mrQcS3VYr1jG17rGK41oAGs9XSEOpUttsSZpeu2RvB54QHWKUK6IDSIr3euJ/jVh5qqro/IPWEuCgDPtfh91JMxdGt9HoemWdOy2pfNuQ5hCIPhlZeaqq6PxV6g7Km352XeBK4ttmrHpMjfutAnkJQCuaBByFM3hpOGxIeoJlk+ggI9YEfg3sFB1kDEuBq6JDSIrzBuJ/hVh5q6ro/DnqL8DGGdqiirVIMxVGt8V4Nbu+XZdUuvVIQ6bRJyIrb1UVnT9XXUXcNLUbkiboim6DVdVRte29iuUlAC33UXwGWMNrR+B84EUNv+6TSGt3PLnh1+3XH6MDSIqxHa7wN6xVVXT+OuoY0nLbdVoT+DTtmUJ7i3qaQVLpvkv8Cciqp6qKzl9X3Q38G+nafE5TSffS3FTAPvZaXv+XOmoH4GHiT0JWPVVVdP666y7SinazKrbTFsAHadcX//L6RsV9V0u5GJC+Brw5OoRq07XFgKr4K+lO/TNJ9wvcuor/dn1gL9K1/YOAJ9Le8+nLgJ9Hh1Dz2vqGVR4zgb8Ba0cHUW3sAAzufmAO8ACwgDQ/xlrAVqTPzjC4F9iUtI/qmKnRARTqNfjlL41nbWC36BA1+xV++XeWjwF227XRASSF+kl0AMXxEkC3TQFuwEeAhpmXADSeeaTh/0XRQRTDEYBuW4K/AKSuOha//DvNDoC+Hx1AUojvRQdQLDsAuhT43+gQkhr1Z+Cs6BCKZQdAAF+IDiCpUZ+PDqB43gQoSB3Bq4Dto4MoO28C1GhzSDOALgnOoWCOAAhgKXBkdAhJjfgCfvkLRwD0iDWAq4Eto4MoK0cAtKL5pJkM740OoniOAGi5haTlSyUNr0/il79GOAKgFa1GWhp02+ggysYRAC03B9iF1NmXHAHQ33kYOCI6hKRa/Bt++WsFjgBotMmk5VCfGB1EWTgCIIBzgH3xeGoFjgBotKXA2/EuYWmYvBe//DWKHQCN5QLg29EhJGXxA+CM6BAqj5cANJ4NSNMEbxodRJV4CaDbbgF2J638J/0dRwA0nruAN0aHkDSwZcAh+OWvcdgB0KqcAHw3OoSkgRwF/D46hMrlJQBNZAZwCbB1dBANxEsA3TQHeDRO+qNVcARAE7kHeDnwUHQQST15GDgYv/w1ATsA6sW5wKHRIdS3HL/eHQFon3fgXf/qwZToAGqN84BtgMcE51Dv/gM4reI2JgNPzZBFzfgqzuYpqQZrkUYDllnF1y/IM8I3CfhZAftjTVx/AqaNfRglqboNgauIP9lZ49dlpJs3c1kHuLiA/bLGrznARuMcP0nKZnvgNuJPetbKdSNpvffctgCuL2D/rJXrdmDX8Q+dJOW1L+ku4+iTn/VI3QbMWtVBq2gHYG4B+2k9UvOAx63qoElSHfbDTkApNR947KoPVxZ7k750ovfX8stfUrAnk+YKiD4Zdrnm0ezyzY8F7qxhP6ze6z5SB1ySQu0PLCD+pNjFug3Yc+JDlN1e2AmIqgX45S+pII8FbiX+5NilugnYpZeDU5NdSXefR7dDl+pWUudLkoqyLTCb+JNkF+ovpDvzo20OXER8e3ShriBNxiVJRZpBWkUw+mQ5zPU/5H3Ov6oZwO+Ib5dhrt8DM3s9IJIUZQrwOeJPmsNWS4FPU+YU3pNJUw8vJb6dhq0+S5nHXJLG9ULgbuJPoMNQC4CX9Nf8IV5MeiQxur2Goe4eaU9JaqVtgbOJP5m2uf480o5tsQ1pNbrodmtz/RnYus92l6TiTAXeDywk/sTaploEHE47h3+nAB8h7UN0O7apFgIfIH1mJGlo7I6rCfZa5wN7DNbMRXk0cA7x7dmGOgfYbbBmlqTyTQZeC9xB/Am3xJoHvJN2/uofzxTSPjlZ1Nh1J/Am8izfLEnF2wj4Gg4RL6/FwFEM95KumwDfIO1rdHuXUIuArwAbVGlUSWqrWcCxdPfxsaXAccTO6Ne0R9PtuSKWAj8DdqzakJI0DPYEfgosIf4E3dSXwAnAPjkar6UeDRxDdzp/S0jH3BX8JGkMs0iXBoZ1meGFwLfo1i/+iewJfAd4kPjjU0fdC3yV9N6WJE1gXeBdwGXEn8Bz1JXAYcDGORtpyGwMfAi4lvjjlaMuJd38uG7ORpKkLnkccCTtW23wDuCbpKVbJ2VvleE1idRm3yY9FRF9HPupW4Av4jC/JGU1GXgyaW70UlcdvJ403PsMhutRviirAQeSLgvdTPzxHauuBP4LeBI+yqcW8VeJ2uxRpC/aA4AnEHON9SbSVMenAicD1wRk6JJdSMf76aQv3M0afv1lwFWkSXtOBU4B/tZwBikLOwAaJuuT7qrfA9iZNPPgtuR5tn4+6cR/NekX34Wk2fpuy7BtDW4L0nD7XqRjvuNITc+w7TuA60j3oVwB/BU4j7RIj9R6dgDUBWuSFlbZjNRJWG/k30mkL4qppEfRFqzw7wJgLulLYC6e9NtmI9LEQ5uP/Lsm6bgDzCBdnlkE3E865vNIx3ge6V6TG0hPJUiSJEmSJEmSJEmSJEmSJEmSJEmSJEmSJEmSJEmSJEmSJEmSJEmSJEmSJEmSJEmSJEmSJEmSJEmSJEmSJEmSJEmSJEmSJEmSJEmSJEmSJEmSJEmSJEmSJEmSJEmSJEmSJEmSJEmSJEmSJEmSJEmSJEmSJEmSJEmSJEmSJEmSJEmSJNXl/wOb9x3uto1RSgAAAABJRU5ErkJggg==;" vertex="1" parent="1">
          <mxGeometry x="-790" y="1270" width="50" height="50" as="geometry" />
        </mxCell>
        <mxCell id="nL-H-F1wq60gKDnkxpsh-25" value="" style="shape=image;verticalLabelPosition=bottom;labelBackgroundColor=default;verticalAlign=top;aspect=fixed;imageAspect=0;image=data:image/png,iVBORw0KGgoAAAANSUhEUgAAAQAAAAEACAYAAABccqhmAAAABHNCSVQICAgIfAhkiAAAAAlwSFlzAAAHYgAAB2IBOHqZ2wAAABl0RVh0U29mdHdhcmUAd3d3Lmlua3NjYXBlLm9yZ5vuPBoAABf4SURBVHic7d13lJ9VncfxdwohCaRACKSQBKQFkKIC0hKKQcQgRYgNw8qKiqsSWFBAUFYUF1ykWUAsdFgI1YWliBRpAfSAkVASRGAhhhBAkkAKmRn/+E6WMPxmnnbLUz6vc+45Sn5z73ee3zzf+5RboNnWAQ4DrgX+ArwCLAWeBx4AfgzsDPSOFWDN7AX8AXgL6KhReRO4HftbkQpYF/gJsJx0X/AzwAFRIq2PqUAb8U9Wn2U5sK+rAyZ+HAS8Qb4v+DZgWPiQK28I8A/in6Ahylygn5vDJq6dCLRT7AueBawfOvCK25/4J2bIsqubw+Zf39gBBHQE8AMH9WyB3cduB7yW8Nk1secLdX+GcCCwuId/XzdUICUxInYAaTUlAUwAznVY34bARbzTs3VnMdALmOSw7TJaLeHfewWJojwq8/vWvWcC+x3PJfmPNKtPAJ9P8bnLHbcr4kwTEsBngW091X0i0CfhM7/z1LZIYU1IAF/0WPdmwN4Jn5kLzPEYg0hudU8Aw7D7f5/2SfGZJzzHIJJL3RPALvh/0Llnis/M9hyDSC51TwCjA7QxJsVnkl4XikRR9wSwXoA2BgEDEj6zMEAcIpnVPQEsDdBGGzYGvCcaGiqlVPcEMC9AGwuwJNCTwQHiEMms7gkgxNP3WSk+E+JZhEhmdU8AjwAvem7jthSf2cxzDCK51D0BdAA3eKy/Dbg+4TN9gG08xiCSW90TAMAZJD+ky2s6yaP8PgQM9dS+SCFNSADPAxd6qHcJ8L0Un5vsoW0RJ5qQAACOxf0DwaOApxI+04t0MwZFomjKegCLgSnA3cBwB/X9ArggxecGAsc7aK/s3kz4d1+3YGXVtN+3MjYFnqXYck9nU6EFH0riw8Rfpitk2djNYRMfhgG/JvvagPOAgyPEWwe9gAeJf2KGKDc5Ombi2Q7AJSSvUT8Le4awRpwwa2Ms8DjxT1Cf5SHc3GIGo0tZm8yzHfBB3vnylmIn/qPYngDiRj/sKmoHkidQVcmbwP3YmJOkYeHi0brAWrGDEJE4zgRmYMtxi0iDjMAuxTqw1326EhBpkDN578O7TaJGJCJBjKD10/xFwOHoYadIrZ1Fz69nHgB2jBadiHgzkvT7zd8FfBJYPUqkIuJcUu/fqiwE/hv4OnZloC2/pZGqfm88EvgrbgaVvIDNFVjmoC7J7nZgo9hBpPAoNRoSXvXZgMfhbkTZuejkj2ko8L7YQaRQq23eqrwewAjgy47qWoBN8ZV4FsQOIKVabfJS5QRwPO56/9OwNQMknidjB5DS07EDcKmqCWAk6v3rxvfqza78PXYAAufgbgrnMYFjl3friz3LWUb86bxpynLgP7DVniWCLO/9k8oraOJQTO8D/kD8kzpPeQANNY/CZe9/bODYxfTCbuEWE/9ELlLeBKZR/dfplaHev/pGAjcT/+R1WW5D278FcS7uvjT1/uFNAV4l/gnro7wOTHV3qKQr9f7VNRy4lvgnaYhyNRpa7oV6/2raB5hL/BMzZJkH7Ofi4IlR7189Q4CLyPcdvYXN8Yh9IncAs7FFYrP+XDs2vkR/aw78BHdfqHp//3bFVlPO8/08DIwHxgHzc9bhqswFRgFbYlvN56njb8BuxQ5ns6n3r44B2GvarJuudGADbL7Duyeo7Ya77z5rWYgtF7/SatgAoOU56moDfoTWochFvX817ICN58/zvczi3SfbqnbDlnYLefL/A9ipm3i2xqYE56n3cWy7eElJvX/5rQZ8H3ibfD3jGUD/hDZ2JtyDxGeBbRPiWR2bQLYiR/3LgBOp/lT8IH6Kuy9Wvb97WwJ/Iv+JNjFDW+sBd+RsK225gWzLye+EzQ7M09YMbAEa6YZ6//JaOZR35T4MWcsl2JZsedqdgq3e5PLEfxE4NEc8YFcvp2FXM1nbfQubCFXVWbleuez9vxk49jorMoHn78BkBzEMAo6m+FbvTwFfBQY6iGk38r+6/B0wxkEMtaHev5z2x56O5/kefIyQ6wNMwgaJzUkRQzv2oPIM7PbDdc+7JnAe+d6CvAbs7TieyvoZ6v3LZgr5LnNfAz4XKMYh2BiEzwBHYJfXXwE+jd2vh+oIPkq+25QVuLlCqrRRwBLU+5fJRuS7IruV5s6SGwJcSPZj9gZ2DjSWev/yuYpsx30x1gNrnjzsS/ZXmL+MEmkJjCHfuGv1/v6sRbbluh5Er7e6GorNC8iSQBv5t/tz1PuXzb6kO95aKy/ZZNJfDeweJ8R41PuX0zSSj/dj2BBZSbYucB3Jx/SLIYIp0wCEE3A3WeJHaJ1/VzpSfOZkYKbvQGpiPnBT7CDKRr1/eR1I8jGfiS790+pPuleEk2IFGMN56N6/rEaQbtJL3qG0TfNNko/lMuzBYSOo9y+/G0k+9s+h+e5J1sIGRiUdyytiBRiDy97/W4Fjb4rtSTe89d9jBVgRp5N8DNuAD8QKMDTXvX+eGWaSzjUkfwevkW06bZOMIt3syYtjBRjD+aj3r4pNSbfox6mxAiy5X5F87JZhsy0bYSzuNoRU7x9GmtFsbwHrxwqwpDYjXfI8M1aAMaj3r56RpLuMPT9WgCV1PcnHbCE2SKgR1PtX1w9J/k5WAJvHCrBkdiDdA9QTYwUYQ5aJEer9y2UIsIDk7+WaWAGWzJ0kH6u5wBoxgosxXXMstnpLPwd1LcAemixyUJekdwy2qk5POrBFOB5y3PZwbNGP9XGzlNdibGTefdgGny5NJt2w36/SoNsm9f7V1x94nuTv5y6HbW6HLTCSZynuNOVt7F59S0fx9saGSCe1+zS2tHoj6N6/Pr5Auu/p4w7amka+5cjyJoIjHcT8LynbO9hBW5VxAer966I3Ng046XuaSbFZpyenaMNH+bcCMfcj3QrBD9OgVZPU+9fPJ0j3fU3NWf8e5Fth10VZTvIOQd05OmUbe+asv5LU+9fTvSR/X38j30ShvDvyuiq35oh5CNZBJdV9S466K8tl778A9f5l8mHS9dJHZ6z3/Snq9F3ayT6q8dQU9TZqwg/YKqeuvpTjAscuyW4g+Xt7Besd0zoyRZ0hyuczxDwSe62YVOdlGeqsvHGo96+7tGPdf5ChzjNS1BeifDtDzGmGty/D9lloDPX+zfBrkr+/xVgvmYbL8SJFymkp490Ue3CYVN85KeurhXGo92+K0aSbKHReyvqqlgCmp6hrESWb8ON7VeDv4GbIL8B/oSG/ZfYStqtTki9Rv4lC2wMHpfjcj7BVgRtBvX/zDAVeJfn7nJ6iripdAdyRop6XadjfcJoVUNIW3ftXx3Ekf5/t2DTZrkYDXwPOBp5JUU+IMgs4C7tyaXX5vnfKeoqMLKyccaj3b6oBwIskf693rvIzo7GrglDj/fOWt4GLsBmJYLfQj6b4uTk0aMIPpHsinLao96+ew0n33e4D7IJtiR375M5SXsaGCX8u5ec/XexwVss41Ps3XV/gCZK/32ewpbBin9B5/zbT7PDzCA2a8APq/cWk2VKsCeUjRQ9klYxDvb+8437in4AxS57JRJX2G9wdvOMDxy7uTSD+SRirtAMfLH4Iq2Mj0o0HT1PU+9fHTcQ/GWOUy10cvCr5Ce4Onnr/+tgKf+v4lbUsp2ETflYaAIwHDgHOxRaCyHrwtMNv/VxM/JMyZGnUhJ8k22HPBtJuAqrev37GAUuIf2KGKI3a4SeLkdjU4J4uB9X719c04p+cvks7thqw9OBDwJOo92+iQ4FniX+i+ihPAZ90d6jqbSBwCer9m2o49l1X/Q3BRcBgYG2nR6chegHfR71/kw2nPLP+spbH0KtqJ05B7/2bbBS2f2DsEzpL+T3q9Z1qNTdcmqMvtg7AHOKf3D2Vx7Et0XyvpBVM3llKg7BdTTbE5nL3w1aCmY3tsvqik+ikiTbvLEdhQ4ljuxXb1GYmtt1Xo+2BPbhJeqd/P7YdVJ84YUoNVGlJsNrbALiZ7AfvMWznGJGslAACSHMvMwHbxTTPNs/bAH/A1lMTkZLpm/Dve2KbGBZZ2rsfls37YDuniEhJ9HQFsDG2UKOLdf17YWvGN2p1FJGy6ykBXITbd529gQuxkVMiUgLdJYADsdVaXRsDfMNDvSKSQ3cJ4ASPbR6Fu+3CRKSAVglgfWwOvy/rALt6rF9EUmqVAPbD/zrmkz3XLyIptEoAmwRod3yANkQkQasEMDpAu+sFaENEErQaCLRGgHZDtCHV9kNsEk5s82IH4FOrBPBagHZfD9CGVNvznUU8anUL8GyAdmcHaENEErRKAA8GaPehAG2ISA79sdsAX9Mr2wjzoFFEErS6AlgKXOqxzZuBlzzWLyIFjcB2OPHR+2v9P5EK+DruE8DZQX8DEelR0pDfK4DPOmrrXmAvYJmj+qRn78OWcqvNCraSWRu2kOkLeStYDbia4j3/fcBaeYOQTDbGFmWNvZaeSnnK7RR48N4HOAnb8zxrw+3YMmAD8jYumayDLcke+w9OpXzlaQqOwN0auB47qdM0eB+2jLiEcwrx/9BUylum0UWeab8bYFOGP47t+z4au1V4Hdv19wFsLcGZOeqWYu4GdosdhJTW9XTZwdj3vH8J64/Y9usirdyBPYj/f3pCLNJgsRPAwMjtizRazARwIHBPxPZFGi9GAugHnA5cgy0+unWEGESE8Algd+AR4FurtO1qpKGIZBQqAeyGbSt+F+/t8T+D3kaIRJG0OWhefYBtseW/PwVs2cNnNwB2xoavikhARRPAROyyvg0YhE0j3hjYimx7AH4WJQAX2mMHIKXW5rrCbXEzRHE+/q5GmmQ68YebqpS3nE8XRZ8BPAbMKlgHwHBgkoN6mu6S2AFIaXXQ4u+jj4OK1wb2dFBPO3CDg3qabDYwFNgxdiBSOt8FLu/6H108fd8ImOOgrkXYjkFLCkck+wJTgQ2JP9pT4lmBLQjyK+wNnDczcHOPMsVnkCLybi5uAcAWGviYg3r6Alc5qEdEAhqBXW4UvQJYit3DikgAru4P5+HmHmN1uixYICL+uHxAdKWjejQ3QKSCBmNP8IveBrQBowLHLtJILq8AFgK3OKinN3obIFJJU3DzOnBG6MBFmsj1NNz+2APBIQ7q2hQbYCT5HQIcULCOG2gxgiyAL1OO4eE3Eu/33yvxUz27DIs/qItxcxVwUujAa+h0in8PpweP2vwiQ4w+y2m+f9FuXJAhxu7KcUmN+Bgm6uptwCGO6hGRbvhIAHcALzuoZzw23VhEPPGRAFZgC366oDEBIh75minmclCQZrOJeOLr5HoA+JuDesYAuzioR0Ra8JUAOnA3q0+3ASKe+Ly8dnUbMAXbfVhEHPOZAGYCjzuoZx2KD4gQkRZ8P2DTDEGREvOdAC7HngcUdSC26pCIOOQ7ATyPm4k9a2ALXYqIQyHeses2QKSkQiSAq7DRgUXtg+1BICKOhEgA84E7HdTTD60XKOJUqGG2ug0QKaFQG3JeB/wcGFCwnt2B0cBLRQOS0rsM+FPn/x7WWdbDdp/epPP/S0GhEsBC4H+BgwrW0xv4FHBW4Yik7O7tLN0ZC+wATAD2BjYLEVTdhJxpp9sAcekFbNr5NGztiI2xVaSeiBlU1YRMADcDbzioZ3tsvUCRVf0VOBXYEpgITMfN26daC5kAlgLXF/j5dmzB0ZnAVk4ikrq6F7tV3ARbW68tbjjlFXqxjbS3AUuB+7AFGT8BrI+9BhwJbANc6yU6qZvngK9gHcZlKBG8R+gE8Hu6Xy9wOXaFsD+2QegE4ATgJuypv748yetJYCr2rODX2A5WQvgE0AZc3eW/PYs9yBmNDfT5LbAscFzSDM8Ah2OvEPcDLgUWRY0oslCvAVd1JfANYAFwBnA2OuHlvQZifxc+rvyWAP/TWfoD78duLbfGHiIOBQZ1/lutrxZiJIAZwFHYpdjiCO1LNZyF7Y7Tho0jeQN7ADwT+DP2d/Sig3aWAn/sLI0TIwF0AOdEaFeqqQ+wVmfZALt0X+kJ7HXfFcDs4JHVgJbclirbAjgZeBp7a7Rn3HCqRwlA6mIX7C3TndicEUkhxi1AVqtjW4R9CBsBuAG2QtBa2KvDRcBr2D4ETwGPYouRuliKTKpnj85yF/Bd7MpAulHWBDAIOBhbC3AS2WcRzsf2KLwSuBUNCW2iPbARgTOwZ07XYR2GrKJstwAbAudjA39+g40CzDOFeF3gc9hrnheB72CvdqR5dsQ6gr8D52GJQftMdCpLAhiGnfhPY0M3Bzmsez3gFGyB0m9jQ4qledYGjsCeESzARp0eg404HRwxrqjKcAtwCDYYaB3P7QzGZotNBb6E7g2bbDBwQGdZ6WVspOArwKudpQO4B7gldIChxEwAA4GfAV8I3O547AHRydhko/bA7Us5rddZWqltAoh1CzAMe0j3hUjt98WuBq7C3jKINFKMBDAWu/zeKULbXR2MZfc1YwciEkPoBDAEm947PnC7PdkDuBFdCUgDhUwA/bHXcmVczWdP4JexgxAJLWQCOB175VJWU7FXkCKNESoB7I2tAVB2Z2PzwUUaIUQCGAj8CugVoK2i+mMbmFQhVpHCQiSAo7FFPatiIjaMWKT2fCeAdYBveW7Dh+9iC1GI1JrvBPAlqjnOelNsjIBIrflMAH2wNd2q6ojYAYj45nMuwCRs8Q6XFmIj9+7Bpgz3wUYWTuos/R22NREYh80iFKklnwlgssO6VgA/xibv/KPFv5+D7SvwfeAwR232xnYzPtNRfSKl4/MWYB9H9SzEksnxtD75V3oJ+FcsAbhaAUiLTEqt+UoAI7Htmotqw17J3Z7hZy7CFnpwYSJ6GyA15isBvN9RPb/AthXP6lxsunFRg7DnACK15CsBuBhOuwL4QYGfP9lBDFCumYsiTvlKAKMc1HEftpBjXg/iZusoXQFIbflKAC4G/8wo+PMdDuqAag5kEkmlzAmgSO/vsg6XKxSLlIqvBOBifMHAktRRhpWTRbwoy74Arbi4997QQR0itVXmBLAPxeblr4ltGCki3ShzAhgH7FXg5w9DC32K9KjMCQBsHcE8J/FwbD9Aqa63YwfQqdYbipY9AWyLbeiY5VZgdeAaLAlIdS2KHUCnhbED8KnsCQDsUv4q0m3eMQrb9mui14gkhBdiB9Cp1tPBq5AAAKYAs4Gv0XoT0bHYMl5PUY4dh6S4WbED6PRE7AB8qtI77pHAT7G5/08A/4ft8z4W2CxiXOLHw8BS3C7yktWrwJMR2/euSglgpT7Y7kJl3GFI3FmKzejcN2IMN1Hz3aOrcgsgzXRJ5PYvjty+d0oAUmbXAXMitf0ocHektoNRApAyawO+F6ntE7AZpbWmBCBldwVwZ+A2rwZuC9xmFEoAUnYd2M7NrwRq7zkatCeEEoBUwVzsbcBiz+28AewPvO65ndJQApCqeBjYD39Dc1/BNpeZ6an+UlICkCq5C5iAjQp16VFsBOkfHddbekoAUjUzge2wpd/bCta1DDgV2Bn4a8G6KkkJQKpoETANGw16KXYiZ/EWtufEeOAkbNRhI1VxKLDISk8Ch2LJ4EDgI8D22FJwq/5tv4318A8BvwN+S3mmG0elBCB18Drwm84C0A9bmXowtp/kQtztF1krSgBSR8uBBZ1FeqBnACINpgQg0mC+bgEuwM3uvGXw59gBFHAtxV9vPeYiEMnsUoqPS3jIRSAiIiIiIiIiIiIiIiIiUil5tt8eQNzNGsroLbLPSAthCBrs1WRtOFhAZTVsf75bsEkXHSoty3xgOjYrLU9idWUQNlde35VKB7bS0X+Ss9P+MLb6SuxfomrlIWCjHMe7qP6dbcf+/VXKV27HdtVKbTKwpASBV7UsAD6Q5YA7cKSj2FXqWQ6hi+7uD7cArkT3+kUMA26k9W7Gvnw8YFtSPZO7/ofuEsBZ2L2kFDMGODlgeyGTjVTP8K7/oVUC2Ar4qP9YGuPL2NN4kdJplQD2Cx5FvfUDPhY7CJFWWiWAzYNHUX86plJKrRKA7iPdWzd2ACKttEoAmd4VSio6plJKGiYq0mBKACIN1ioBdASPov5CHVN9d9KT9/x9tEoA8wME0jTzArWj70568p6/w1YJ4PoAgTRJB3BDoLZCtSPVlOrvoxc2rTX2xIW6lNPSHHRH+mKbX8b+nVXKV6bTYpp6d6+nrsN2Tx0HDEUPC7NaDvwFOA74ccB224GrsY0wx2DfXcy1CSSuFcAcrBM6Fvv7eJd/Anpm2lZkjHloAAAAAElFTkSuQmCC;" vertex="1" parent="1">
          <mxGeometry x="-790" y="1540" width="50" height="50" as="geometry" />
        </mxCell>
        <mxCell id="nL-H-F1wq60gKDnkxpsh-26" value="" style="endArrow=classic;html=1;rounded=0;strokeWidth=1;fontSize=32;fontColor=#BA5D00;entryX=0;entryY=0.5;entryDx=0;entryDy=0;exitX=1;exitY=0.5;exitDx=0;exitDy=0;strokeColor=#808080;dashed=1;fillColor=#f5f5f5;" edge="1" parent="1" source="nL-H-F1wq60gKDnkxpsh-3" target="nL-H-F1wq60gKDnkxpsh-19">
          <mxGeometry width="50" height="50" relative="1" as="geometry">
            <mxPoint x="-190" y="1720" as="sourcePoint" />
            <mxPoint x="-140" y="1670" as="targetPoint" />
          </mxGeometry>
        </mxCell>
      </root>
    </mxGraphModel>
  </diagram>
</mxfile>
